<svg width="48" height="48" viewBox="0 0 48 48" fill="none" xmlns="http://www.w3.org/2000/svg">
<g clip-path="url(#clip0_29_946)">
<path d="M46 40.0001H29.632C29.027 38.3062 27.6939 36.9732 26.0001 36.3681V28.0441C28.6881 28.0441 31.0401 28.0201 32.1901 27.9981C32.9079 27.9846 33.6224 27.8968 34.3221 27.7361C37.9972 26.8809 40.8668 24.0112 41.722 20.3361C42.9781 15.0704 39.8272 9.75847 34.6041 8.3361L34.2601 8.26007C33.6601 8.1261 33.3581 8.0601 33.0841 7.40207C30.5459 1.27991 23.5253 -1.62559 17.4032 0.912503C13.8829 2.37191 11.2651 5.41672 10.35 9.116C9.91697 10.9077 9.87806 12.7719 10.236 14.58C6.68475 16.1081 5.04469 20.2256 6.57263 23.7767C7.41131 25.726 9.08897 27.1895 11.1339 27.756C11.6782 27.9006 12.2371 27.9825 12.8 28.0001C14.1099 28.0361 17.868 28.0521 21.788 28.0521H21.9999V36.3701C20.3065 36.9747 18.9735 38.3069 18.368 40.0001H1.99997C0.895406 40.0001 0 40.8955 0 42C0 43.1046 0.895406 44 1.99997 44H18.368C19.4516 47.1104 22.8517 48.7535 25.9621 47.6699C27.6815 47.071 29.033 45.7194 29.6319 44H45.9999C47.1045 44 47.9999 43.1046 47.9999 42C48 40.8955 47.1046 40.0001 46 40.0001ZM12.912 24C12.6552 23.9908 12.4002 23.9526 12.152 23.886C11.1633 23.6086 10.3903 22.8365 10.112 21.848C9.68634 20.3902 10.4172 18.8443 11.814 18.248C13.6102 17.4878 14.6041 15.5504 14.174 13.648C13.2622 9.32479 16.0277 5.081 20.3509 4.16928C20.4952 4.13882 20.6403 4.11238 20.786 4.08997C21.1761 4.03232 21.5697 4.00222 21.9639 3.99997C25.2138 3.98872 28.1496 5.93835 29.3999 8.93797C30.1059 10.6924 31.6952 11.9362 33.5679 12.2C36.7099 13.0701 38.5962 16.2747 37.832 19.444C37.3054 21.6159 35.6058 23.3093 33.432 23.828C33.0004 23.9292 32.5593 23.9842 32.116 23.992C30.73 24.018 14.422 24.0401 12.912 24ZM24 44C22.8954 44 22 43.1046 22 42C22 40.8955 22.8954 40.0001 24 40.0001C25.1046 40.0001 26 40.8955 26 42C26 43.1046 25.1046 44 24 44Z" fill="url(#paint0_linear_29_946)"/>
</g>
<defs>
<linearGradient id="paint0_linear_29_946" x1="31.9687" y1="30.2071" x2="-13.2817" y2="27.0068" gradientUnits="userSpaceOnUse">
<stop stop-color="#007CFF"/>
<stop offset="1" stop-color="#DFB5EB"/>
</linearGradient>
<clipPath id="clip0_29_946">
<rect width="48" height="48" fill="white"/>
</clipPath>
</defs>
</svg>
