<svg width="48" height="48" viewBox="0 0 48 48" fill="none" xmlns="http://www.w3.org/2000/svg">
<g clip-path="url(#clip0_29_931)">
<path d="M3.75807 35.7561C2.02041 38.1554 0.77326 40.8739 0.0880723 43.7561C-0.0428114 44.3299 -0.0259468 44.9275 0.137087 45.493C0.300121 46.0585 0.603992 46.5734 1.02025 46.9894C1.43651 47.4055 1.95154 47.7091 2.51712 47.8719C3.0827 48.0346 3.68034 48.0512 4.25407 47.9201C7.13177 47.2338 9.8461 45.9874 12.2421 44.2521V44.2521C13.3687 43.127 14.0023 41.6005 14.0034 40.0083C14.0045 38.4161 13.3731 36.8887 12.2481 35.7621C11.123 34.6354 9.5965 34.0019 8.00432 34.0007C6.41213 33.9996 4.88471 34.631 3.75807 35.7561V35.7561ZM9.41407 41.4141C7.80208 42.4465 6.05114 43.2439 4.21407 43.7821C4.75303 41.9453 5.55034 40.1944 6.58207 38.5821C6.95928 38.2177 7.46448 38.0162 7.98887 38.0207C8.51327 38.0253 9.01489 38.2356 9.38571 38.6064C9.75653 38.9772 9.96686 39.4789 9.97142 40.0033C9.97598 40.5277 9.77439 41.0329 9.41007 41.4101L9.41407 41.4141ZM36.0001 17.0001C36.0001 18.3261 35.4733 19.5979 34.5356 20.5356C33.5979 21.4733 32.3262 22.0001 31.0001 22.0001C29.674 22.0001 28.4022 21.4733 27.4645 20.5356C26.5269 19.5979 26.0001 18.3261 26.0001 17.0001C26.0001 15.674 26.5269 14.4022 27.4645 13.4645C28.4022 12.5268 29.674 12.0001 31.0001 12.0001C32.3262 12.0001 33.5979 12.5268 34.5356 13.4645C35.4733 14.4022 36.0001 15.674 36.0001 17.0001V17.0001ZM41.9441 5.90709e-05C37.1846 -0.0282342 32.4826 1.04071 28.2031 3.12392C23.9236 5.20712 20.1818 8.24854 17.2681 12.0121C14.0903 12.1219 10.9736 12.9153 8.13007 14.3381C4.83251 15.8565 2.14055 18.4386 0.486072 21.6701C0.0978112 22.5716 -0.0597878 23.5556 0.0275063 24.5333C0.1148 25.511 0.444238 26.4516 0.986072 27.2701C1.53308 28.1086 2.28065 28.7974 3.16105 29.2741C4.04146 29.7508 5.02689 30.0003 6.02807 30.0001H11.0001C12.8538 30.009 14.6291 30.7494 15.9399 32.0602C17.2508 33.371 17.9911 35.1463 18.0001 37.0001V41.9721C17.9994 42.9729 18.2483 43.9581 18.7243 44.8384C19.2002 45.7188 19.8883 46.4666 20.7261 47.0141C21.5446 47.5559 22.4851 47.8853 23.4628 47.9726C24.4405 48.0599 25.4245 47.9023 26.3261 47.5141C29.5575 45.8596 32.1396 43.1676 33.6581 39.8701C35.0809 37.0265 35.8742 33.9098 35.9841 30.7321C39.7536 27.8109 42.7987 24.0599 44.8827 19.7705C46.9667 15.4811 48.0335 10.7688 48.0001 6.00006C47.9977 5.20807 47.8391 4.42434 47.5332 3.6938C47.2273 2.96325 46.7803 2.30026 46.2177 1.74285C45.655 1.18544 44.9879 0.744557 44.2546 0.445491C43.5212 0.146425 42.736 -0.00494536 41.9441 5.90709e-05V5.90709e-05ZM8.69207 26.0001H6.02807C5.68987 26.0027 5.35653 25.9194 5.05922 25.7582C4.76192 25.597 4.51036 25.3629 4.32807 25.0781C4.149 24.8135 4.03954 24.508 4.00982 24.1898C3.98011 23.8717 4.0311 23.5513 4.15807 23.2581C5.44677 20.8963 7.47136 19.0199 9.92407 17.9141C11.1913 17.2787 12.5293 16.7953 13.9101 16.4741C11.9221 19.5068 10.1774 22.692 8.69207 26.0001V26.0001ZM30.0921 38.0761C28.9863 40.5281 27.1107 42.5526 24.7501 43.8421C24.4566 43.9692 24.1358 44.0203 23.8173 43.9906C23.4988 43.9609 23.193 43.8513 22.9281 43.6721C22.6432 43.4898 22.4092 43.2382 22.2479 42.9409C22.0867 42.6436 22.0035 42.3103 22.0061 41.9721V39.3081C25.3141 37.8228 28.4994 36.078 31.5321 34.0901C31.2089 35.4711 30.7236 36.8091 30.0861 38.0761H30.0921ZM30.3621 30.0361C27.6557 31.9158 24.7986 33.5687 21.8201 34.9781C21.4133 32.7942 20.355 30.7847 18.7842 29.2139C17.2134 27.6432 15.2039 26.5848 13.0201 26.1781C14.4304 23.2022 16.0841 20.3478 17.9641 17.6441C24.7001 8.24806 31.6801 4.29406 42.0001 4.00006C42.5209 3.99986 43.0213 4.20286 43.3948 4.56591C43.7684 4.92896 43.9855 5.42339 44.0001 5.94406C43.7061 16.3201 39.7521 23.3001 30.3561 30.0361H30.3621Z" fill="url(#paint0_linear_29_931)"/>
</g>
<defs>
<linearGradient id="paint0_linear_29_931" x1="31.9696" y1="30.2115" x2="-13.2807" y2="27.0111" gradientUnits="userSpaceOnUse">
<stop stop-color="#007CFF"/>
<stop offset="1" stop-color="#DFB5EB"/>
</linearGradient>
<clipPath id="clip0_29_931">
<rect width="48" height="48" fill="white"/>
</clipPath>
</defs>
</svg>
