<svg width="48" height="48" viewBox="0 0 48 48" fill="none" xmlns="http://www.w3.org/2000/svg">
<g clip-path="url(#clip0_29_921)">
<path d="M36.0001 24C36.0001 25.104 35.1041 26 34.0001 26C32.8961 26 32.0001 25.104 32.0001 24C32.0001 22.896 32.8961 22 34.0001 22C35.1041 22 36.0001 22.896 36.0001 24ZM14.0001 10C15.1041 10 16.0001 9.106 16.0001 8C16.0001 5.794 17.7941 4 20.0001 4C22.2061 4 24.0001 5.794 24.0001 8C24.0001 9.106 24.8961 10 26.0001 10C27.1041 10 28.0001 9.106 28.0001 8C28.0001 3.588 24.4121 0 20.0001 0C15.5881 0 12.0001 3.588 12.0001 8C12.0001 9.106 12.8961 10 14.0001 10ZM48.0001 26V30C48.0001 32.212 46.5041 33.558 44.8641 33.908C43.5421 37.216 41.1201 40.01 38.0001 41.816V42C38.0001 45.308 35.3081 48 32.0001 48C29.3921 48 27.1681 46.328 26.3421 44H21.6561C20.8301 46.328 18.6061 48 15.9981 48C12.6901 48 9.99809 45.308 9.99809 42V41.842C4.72809 38.804 1.63409 33.088 2.03209 26.94C2.15809 24.984 2.65209 23.126 3.44209 21.428C1.40809 20.466 -0.00390625 18.396 -0.00390625 16C-0.00390625 12.692 2.68809 10 5.99609 10C7.10009 10 7.99609 10.894 7.99609 12C7.99609 13.106 7.10009 14 5.99609 14C4.89209 14 3.99609 14.896 3.99609 16C3.99609 16.982 4.70809 17.8 5.64209 17.968C8.6841 14.322 13.3481 12 18.5281 12H29.2541C30.7201 9.044 33.4581 6.976 37.1081 6.108C38.2901 5.83 39.5141 6.102 40.4701 6.856C41.4401 7.624 41.9981 8.772 41.9981 10.008V17.438C43.2141 18.82 44.1861 20.4 44.8621 22.092C46.5041 22.442 47.9981 23.788 47.9981 26H48.0001ZM44.0001 26H43.4121C42.5281 26 41.7481 25.418 41.4961 24.57C40.9481 22.73 39.9361 21.018 38.5701 19.616C38.2041 19.242 38.0001 18.74 38.0001 18.22V10.008C36.0501 10.472 33.4701 11.668 32.4721 14.678C32.1901 15.524 31.3661 16.106 30.4921 16.046C30.3561 16.04 18.5321 16.002 18.5321 16.002C11.9261 16.002 6.43209 20.92 6.02609 27.2C5.70609 32.138 8.38809 36.704 12.8601 38.83C13.5581 39.162 14.0001 39.866 14.0001 40.636V42.002C14.0001 43.106 14.8981 44.002 16.0001 44.002C17.1021 44.002 18.0001 43.106 18.0001 42.002C18.0001 40.898 18.8961 40.002 20.0001 40.002H28.0001C29.1041 40.002 30.0001 40.896 30.0001 42.002C30.0001 43.108 30.8981 44.002 32.0001 44.002C33.1021 44.002 34.0001 43.106 34.0001 42.002V40.614C34.0001 39.844 34.4421 39.142 35.1381 38.81C38.2221 37.338 40.5381 34.648 41.4961 31.434C41.7481 30.586 42.5281 30.004 43.4121 30.004H44.0001V26.004V26Z" fill="url(#paint0_linear_29_921)"/>
</g>
<defs>
<linearGradient id="paint0_linear_29_921" x1="31.9675" y1="30.2069" x2="-13.2866" y2="27.0055" gradientUnits="userSpaceOnUse">
<stop stop-color="#007CFF"/>
<stop offset="1" stop-color="#DFB5EB"/>
</linearGradient>
<clipPath id="clip0_29_921">
<rect width="48" height="48" fill="white"/>
</clipPath>
</defs>
</svg>
