<svg width="48" height="48" viewBox="0 0 48 48" fill="none" xmlns="http://www.w3.org/2000/svg">
<g clip-path="url(#clip0_29_936)">
<path d="M48.0001 23C47.9953 21.6515 47.6859 20.3216 47.0951 19.1095C46.5043 17.8974 45.6473 16.8344 44.5881 16C46.0534 14.8448 47.1217 13.261 47.6438 11.4696C48.166 9.67823 48.1159 7.76853 47.5007 6.00693C46.8854 4.24533 45.7357 2.7197 44.2118 1.64286C42.688 0.566023 40.866 -0.00831595 39.0001 -3.37402e-05H9.00007C7.13415 -0.00831595 5.31217 0.566023 3.7883 1.64286C2.26444 2.7197 1.11469 4.24533 0.499456 6.00693C-0.115782 7.76853 -0.165826 9.67823 0.356304 11.4696C0.878434 13.261 1.9467 14.8448 3.41207 16C2.34916 16.8311 1.48948 17.8934 0.898245 19.1063C0.307006 20.3191 -0.000265805 21.6507 -0.000265805 23C-0.000265805 24.3493 0.307006 25.6808 0.898245 26.8937C1.48948 28.1065 2.34916 29.1688 3.41207 30C1.9467 31.1551 0.878434 32.7389 0.356304 34.5303C-0.165826 36.3217 -0.115782 38.2314 0.499456 39.993C1.11469 41.7546 2.26444 43.2802 3.7883 44.3571C5.31217 45.4339 7.13415 46.0082 9.00007 46H39.0001C40.866 46.0082 42.688 45.4339 44.2118 44.3571C45.7357 43.2802 46.8854 41.7546 47.5007 39.993C48.1159 38.2314 48.166 36.3217 47.6438 34.5303C47.1217 32.7389 46.0534 31.1551 44.5881 30C45.6473 29.1655 46.5043 28.1025 47.0951 26.8904C47.6859 25.6783 47.9953 24.3484 48.0001 23ZM4.00007 8.99997C4.00007 7.67388 4.52685 6.40211 5.46454 5.46443C6.40222 4.52675 7.67399 3.99997 9.00007 3.99997H10.0001V5.99997C10.0001 6.5304 10.2108 7.03911 10.5859 7.41418C10.9609 7.78925 11.4696 7.99997 12.0001 7.99997C12.5305 7.99997 13.0392 7.78925 13.4143 7.41418C13.7894 7.03911 14.0001 6.5304 14.0001 5.99997V3.99997H18.0001V5.99997C18.0001 6.5304 18.2108 7.03911 18.5859 7.41418C18.9609 7.78925 19.4696 7.99997 20.0001 7.99997C20.5305 7.99997 21.0392 7.78925 21.4143 7.41418C21.7894 7.03911 22.0001 6.5304 22.0001 5.99997V3.99997H39.0001C40.3262 3.99997 41.5979 4.52675 42.5356 5.46443C43.4733 6.40211 44.0001 7.67388 44.0001 8.99997C44.0001 10.326 43.4733 11.5978 42.5356 12.5355C41.5979 13.4732 40.3262 14 39.0001 14H9.00007C7.67399 14 6.40222 13.4732 5.46454 12.5355C4.52685 11.5978 4.00007 10.326 4.00007 8.99997ZM44.0001 37C44.0001 38.326 43.4733 39.5978 42.5356 40.5355C41.5979 41.4732 40.3262 42 39.0001 42H9.00007C7.67399 42 6.40222 41.4732 5.46454 40.5355C4.52685 39.5978 4.00007 38.326 4.00007 37C4.00007 35.6739 4.52685 34.4021 5.46454 33.4644C6.40222 32.5267 7.67399 32 9.00007 32H10.0001V34C10.0001 34.5304 10.2108 35.0391 10.5859 35.4142C10.9609 35.7893 11.4696 36 12.0001 36C12.5305 36 13.0392 35.7893 13.4143 35.4142C13.7894 35.0391 14.0001 34.5304 14.0001 34V32H18.0001V34C18.0001 34.5304 18.2108 35.0391 18.5859 35.4142C18.9609 35.7893 19.4696 36 20.0001 36C20.5305 36 21.0392 35.7893 21.4143 35.4142C21.7894 35.0391 22.0001 34.5304 22.0001 34V32H39.0001C40.3262 32 41.5979 32.5267 42.5356 33.4644C43.4733 34.4021 44.0001 35.6739 44.0001 37ZM9.00007 28C7.67399 28 6.40222 27.4732 5.46454 26.5355C4.52685 25.5978 4.00007 24.326 4.00007 23C4.00007 21.6739 4.52685 20.4021 5.46454 19.4644C6.40222 18.5268 7.67399 18 9.00007 18H10.0001V20C10.0001 20.5304 10.2108 21.0391 10.5859 21.4142C10.9609 21.7893 11.4696 22 12.0001 22C12.5305 22 13.0392 21.7893 13.4143 21.4142C13.7894 21.0391 14.0001 20.5304 14.0001 20V18H18.0001V20C18.0001 20.5304 18.2108 21.0391 18.5859 21.4142C18.9609 21.7893 19.4696 22 20.0001 22C20.5305 22 21.0392 21.7893 21.4143 21.4142C21.7894 21.0391 22.0001 20.5304 22.0001 20V18H39.0001C40.3262 18 41.5979 18.5268 42.5356 19.4644C43.4733 20.4021 44.0001 21.6739 44.0001 23C44.0001 24.326 43.4733 25.5978 42.5356 26.5355C41.5979 27.4732 40.3262 28 39.0001 28H9.00007Z" fill="url(#paint0_linear_29_936)"/>
</g>
<defs>
<linearGradient id="paint0_linear_29_936" x1="31.9694" y1="28.9483" x2="-13.2643" y2="25.6092" gradientUnits="userSpaceOnUse">
<stop stop-color="#007CFF"/>
<stop offset="1" stop-color="#DFB5EB"/>
</linearGradient>
<clipPath id="clip0_29_936">
<rect width="48" height="48" fill="white"/>
</clipPath>
</defs>
</svg>
