<svg width="48" height="48" viewBox="0 0 48 48" fill="none" xmlns="http://www.w3.org/2000/svg">
<path d="M41.9999 24.848V22C41.9999 17.2261 40.1035 12.6477 36.7278 9.27208C33.3522 5.89642 28.7738 4 23.9999 4C19.226 4 14.6476 5.89642 11.272 9.27208C7.89632 12.6477 5.9999 17.2261 5.9999 22V24.848C3.90222 25.7717 2.1855 27.3879 1.13714 29.4261C0.0887865 31.4644 -0.227577 33.8009 0.241016 36.0445C0.70961 38.2881 1.93472 40.3027 3.71124 41.7509C5.48777 43.1991 7.70787 43.9931 9.9999 44C11.0608 44 12.0782 43.5786 12.8283 42.8284C13.5785 42.0783 13.9999 41.0609 13.9999 40V28C13.9999 26.9391 13.5785 25.9217 12.8283 25.1716C12.0782 24.4214 11.0608 24 9.9999 24V22C9.9999 18.287 11.4749 14.726 14.1004 12.1005C16.7259 9.47499 20.2869 8 23.9999 8C27.7129 8 31.2739 9.47499 33.8994 12.1005C36.5249 14.726 37.9999 18.287 37.9999 22V24C36.939 24 35.9216 24.4214 35.1715 25.1716C34.4213 25.9217 33.9999 26.9391 33.9999 28V40H27.9999C27.4695 40 26.9608 40.2107 26.5857 40.5858C26.2106 40.9609 25.9999 41.4696 25.9999 42C25.9999 42.5304 26.2106 43.0391 26.5857 43.4142C26.9608 43.7893 27.4695 44 27.9999 44H37.9999C40.2919 43.9931 42.512 43.1991 44.2886 41.7509C46.0651 40.3027 47.2902 38.2881 47.7588 36.0445C48.2274 33.8009 47.911 31.4644 46.8627 29.4261C45.8143 27.3879 44.0976 25.7717 41.9999 24.848ZM9.9999 40C8.4086 40 6.88248 39.3679 5.75726 38.2426C4.63204 37.1174 3.9999 35.5913 3.9999 34C3.9999 32.4087 4.63204 30.8826 5.75726 29.7574C6.88248 28.6321 8.4086 28 9.9999 28V40ZM37.9999 40V28C39.5912 28 41.1173 28.6321 42.2425 29.7574C43.3678 30.8826 43.9999 32.4087 43.9999 34C43.9999 35.5913 43.3678 37.1174 42.2425 38.2426C41.1173 39.3679 39.5912 40 37.9999 40Z" fill="url(#paint0_linear_29_941)"/>
<defs>
<linearGradient id="paint0_linear_29_941" x1="31.9587" y1="29.1724" x2="-13.1373" y2="25.3492" gradientUnits="userSpaceOnUse">
<stop stop-color="#007CFF"/>
<stop offset="1" stop-color="#DFB5EB"/>
</linearGradient>
</defs>
</svg>
