<svg width="24" height="24" viewBox="0 0 24 24" fill="none" xmlns="http://www.w3.org/2000/svg">
<g clip-path="url(#clip0_7_10)">
<path d="M17.17 24C17.0384 24.0008 16.9079 23.9755 16.7861 23.9258C16.6643 23.876 16.5535 23.8027 16.46 23.71L8.29001 15.54C7.82438 15.0755 7.45495 14.5238 7.20289 13.9163C6.95082 13.3089 6.82108 12.6577 6.82108 12C6.82108 11.3423 6.95082 10.6911 7.20289 10.0837C7.45495 9.47621 7.82438 8.92446 8.29001 8.46L16.46 0.290002C16.5533 0.196764 16.6639 0.122803 16.7858 0.0723426C16.9076 0.0218822 17.0382 -0.00408935 17.17 -0.00408936C17.3019 -0.00408936 17.4324 0.0218822 17.5543 0.0723426C17.6761 0.122803 17.7868 0.196764 17.88 0.290002C17.9733 0.383241 18.0472 0.493931 18.0977 0.615753C18.1481 0.737575 18.1741 0.868143 18.1741 1C18.1741 1.13186 18.1481 1.26243 18.0977 1.38425C18.0472 1.50607 17.9733 1.61676 17.88 1.71L9.71001 9.88C9.14821 10.4425 8.83265 11.205 8.83265 12C8.83265 12.795 9.14821 13.5575 9.71001 14.12L17.88 22.29C17.9737 22.383 18.0481 22.4936 18.0989 22.6154C18.1497 22.7373 18.1758 22.868 18.1758 23C18.1758 23.132 18.1497 23.2627 18.0989 23.3846C18.0481 23.5064 17.9737 23.617 17.88 23.71C17.7866 23.8027 17.6758 23.876 17.5539 23.9258C17.4321 23.9755 17.3016 24.0008 17.17 24Z" fill="#434343"/>
</g>
<defs>
<clipPath id="clip0_7_10">
<rect width="24" height="24" fill="white"/>
</clipPath>
</defs>
</svg>
