<svg width="24" height="24" viewBox="0 0 24 24" fill="none" xmlns="http://www.w3.org/2000/svg">
<g clip-path="url(#clip0_29_1184)">
<path d="M17.974 7.146C17.643 7.08 17.372 6.873 17.232 6.577C15.682 3.30601 12.089 1.477 8.498 2.139C5.226 2.739 2.661 5.35101 2.114 8.64001C1.952 9.61101 1.964 10.583 2.147 11.53C2.207 11.839 2.074 12.183 1.801 12.431C0.656 13.472 0 14.955 0 16.501C0 19.533 2.467 22.001 5.5 22.001H16.5C20.636 22.001 24 18.637 24 14.501C24 10.936 21.466 7.843 17.974 7.147V7.146ZM16.5 20H5.5C3.57 20 2 18.43 2 16.5C2 15.517 2.418 14.572 3.146 13.91C3.932 13.195 4.301 12.137 4.109 11.147C3.971 10.435 3.963 9.702 4.085 8.966C4.488 6.544 6.45 4.54501 8.856 4.10401C9.241 4.03401 9.624 4.00001 10.002 4.00001C12.314 4.00001 14.407 5.289 15.424 7.434C15.837 8.306 16.624 8.91601 17.582 9.10701C20.142 9.61801 21.999 11.886 21.999 14.501C21.999 17.533 19.531 20.001 16.499 20.001L16.5 20ZM15.121 12.293C15.512 12.684 15.512 13.316 15.121 13.707C14.926 13.902 14.67 14 14.414 14C14.158 14 13.902 13.902 13.707 13.707L12 12V17C12 17.553 11.552 18 11 18C10.448 18 10 17.553 10 17V12L8.293 13.707C7.902 14.098 7.27 14.098 6.879 13.707C6.488 13.316 6.488 12.684 6.879 12.293L9.586 9.58601C9.972 9.20001 10.479 9.00601 10.986 9.00301L11 9L11.014 9.00301C11.522 9.00601 12.028 9.20001 12.414 9.58601L15.121 12.293V12.293Z" fill="#434343"/>
</g>
<defs>
<clipPath id="clip0_29_1184">
<rect width="24" height="24" fill="white"/>
</clipPath>
</defs>
</svg>
