<svg width="400" height="400" viewBox="0 0 400 400" fill="none" xmlns="http://www.w3.org/2000/svg">
<path d="M23.6764 81.3394C34.8374 64.6758 51.4376 52.0499 72.0238 50.3978C92.2423 48.7754 111.949 59.1856 126.283 72.7302C168.91 113.009 173.504 191.993 233.767 213.943C258.95 223.115 284.753 211.198 309.389 206.096C328.568 202.123 348.441 208.696 352.22 230.206C356.432 254.173 340.026 279.517 326.696 297.988C312.13 318.171 289.573 332.099 265.627 338.132C215.338 350.802 160.324 332.892 116.831 307.692C103.458 299.944 90.6641 291.134 78.8388 281.173C32.1254 241.827 -0.850525 182.028 8.79553 119.498C10.8192 106.378 15.9417 92.8891 23.6764 81.3394Z" fill="url(#paint0_linear_29_801)"/>
<path d="M378.266 361.938C378.266 367.942 294.931 372.808 192.133 372.808C89.3345 372.808 6 367.942 6 361.938C6 355.935 89.3345 351.068 192.133 351.068C294.931 351.068 378.266 355.935 378.266 361.938Z" fill="url(#paint1_linear_29_801)"/>
<path d="M378.371 51.2559V244.455C378.371 249.083 374.32 253.23 369.703 253.23H91.7067C87.0891 253.23 83.6523 249.083 83.6523 244.455V51.2559C83.6523 46.6384 87.0891 42.9904 91.7067 42.9904H369.703C374.32 42.9904 378.371 46.6384 378.371 51.2559Z" fill="url(#paint2_linear_29_801)"/>
<g filter="url(#filter0_b_29_801)">
<path d="M394.371 39.2559V232.455C394.371 237.083 390.32 241.23 385.703 241.23H107.707C103.089 241.23 99.6523 237.083 99.6523 232.455V39.2559C99.6523 34.6384 103.089 30.9904 107.707 30.9904H385.703C390.32 30.9904 394.371 34.6384 394.371 39.2559Z" fill="white" fill-opacity="0.3"/>
</g>
<path d="M302.455 226.184H161.446C160.163 226.184 158.934 225.675 158.027 224.768C157.12 223.862 156.611 222.632 156.611 221.35C156.611 220.068 157.12 218.838 158.027 217.931C158.934 217.025 160.163 216.515 161.446 216.515H302.455C303.737 216.515 304.967 217.025 305.873 217.931C306.78 218.838 307.289 220.068 307.289 221.35C307.289 222.632 306.78 223.862 305.873 224.768C304.967 225.675 303.737 226.184 302.455 226.184" fill="#213B89" fill-opacity="0.7"/>
<path d="M161.447 225.19C159.311 225.19 157.572 223.487 157.572 221.35C157.572 219.213 159.311 217.51 161.447 217.51H244.819C246.956 217.51 248.694 219.213 248.694 221.35C248.694 223.487 246.956 225.19 244.819 225.19H161.447Z" fill="#007CFF"/>
<path d="M161.447 225.19C159.311 225.19 157.572 223.487 157.572 221.35C157.572 219.213 159.311 217.51 161.447 217.51H244.819C246.956 217.51 248.694 219.213 248.694 221.35C248.694 223.487 246.956 225.19 244.819 225.19H161.447Z" fill="url(#paint3_linear_29_801)"/>
<path d="M105.665 238.119C114.611 245.309 111.491 279.629 113.171 284.909C114.851 290.189 122.051 294.525 122.051 294.525L112.006 306.285C112.006 306.285 103.607 304.829 97.2286 291.149C90.8513 277.469 105.665 238.119 105.665 238.119Z" fill="#1A2E35"/>
<g opacity="0.199997">
<path d="M105.665 238.119C114.611 245.309 111.491 279.629 113.171 284.909C114.851 290.189 122.051 294.525 122.051 294.525L112.006 306.285C112.006 306.285 103.607 304.829 97.2286 291.149C90.8513 277.469 105.665 238.119 105.665 238.119Z" fill="black"/>
</g>
<path d="M96.1609 313.473C96.1609 313.473 160.452 295.531 168.528 318.095C176.605 340.658 118.235 358.647 85.9303 359.748C53.6244 360.849 40.4456 338.196 49.9726 316.667L96.1609 313.473Z" fill="#007CFF"/>
<g opacity="0.199997">
<path d="M96.1609 313.473C96.1609 313.473 160.452 295.531 168.528 318.095C176.605 340.658 118.235 358.647 85.9303 359.748C53.6244 360.849 40.4456 338.196 49.9726 316.667L96.1609 313.473Z" fill="black"/>
</g>
<path d="M159.451 349.396C160.457 348.954 161.273 348.168 161.752 347.179C161.78 347.047 161.769 346.909 161.72 346.783C161.671 346.657 161.588 346.547 161.478 346.467C161.449 346.43 161.409 346.403 161.363 346.39C161.318 346.377 161.27 346.378 161.225 346.393C161.133 346.424 161.048 346.473 160.976 346.539C160.299 347.391 159.782 348.359 159.451 349.396M159.173 349.993C159.137 350.015 159.095 350.025 159.052 350.023C159.01 350.021 158.969 350.006 158.935 349.98C158.905 349.958 158.882 349.926 158.872 349.89C158.862 349.854 158.865 349.815 158.88 349.78C158.985 349.42 160.055 346.315 161.137 345.988C161.251 345.961 161.371 345.963 161.485 345.997C161.598 346.03 161.7 346.092 161.782 346.178C162.088 346.43 162.235 346.828 162.166 347.219C161.99 347.8 161.636 348.311 161.153 348.678C160.539 349.182 159.876 349.623 159.173 349.993" fill="#007CFF"/>
<path d="M158.268 346.343C158.134 346.46 158.043 346.619 158.01 346.795C157.854 347.598 158.603 348.805 159.008 349.382C159.254 348.307 159.174 346.539 158.716 346.222C158.667 346.196 158.573 346.122 158.343 346.284L158.268 346.343ZM159.116 350.033C159.081 350.046 159.042 350.047 159.006 350.037C158.97 350.026 158.938 350.004 158.915 349.974C158.814 349.888 157.323 348.005 157.568 346.734C157.628 346.416 157.813 346.135 158.083 345.956C158.196 345.847 158.343 345.779 158.499 345.765C158.656 345.75 158.813 345.789 158.944 345.875C159.724 346.424 159.629 348.944 159.246 349.899L159.219 349.994C159.189 350.017 159.153 350.03 159.116 350.033" fill="#007CFF"/>
<path d="M93.8706 362.03C93.4826 363.058 93.4734 364.191 93.8447 365.226C93.92 365.338 94.026 365.426 94.1501 365.48C94.2742 365.534 94.4112 365.55 94.5445 365.528C94.6405 365.538 94.7327 365.486 94.7749 365.4C94.817 365.312 94.8412 365.217 94.846 365.119C94.7101 364.039 94.3797 362.992 93.8706 362.03M93.6393 361.415C93.6585 361.33 93.7276 361.266 93.814 361.253C93.8512 361.247 93.8896 361.253 93.9227 361.271C93.9559 361.289 93.9819 361.318 93.9964 361.353C94.1797 361.68 95.6504 364.618 95.1253 365.619C95.0652 365.721 94.9794 365.805 94.8766 365.862C94.7738 365.92 94.6576 365.949 94.5397 365.948C94.3457 365.969 94.1496 365.938 93.9717 365.858C93.7937 365.778 93.6402 365.652 93.5269 365.493C93.2341 364.961 93.1171 364.351 93.1929 363.748C93.262 362.957 93.4117 362.176 93.6393 361.415" fill="#007CFF"/>
<path d="M109.215 339.697L97.8381 348.039L92.3738 352.044L95.943 358.269L101.487 355.236L115.032 347.829L109.215 339.697Z" fill="#FDB473"/>
<path d="M97.7047 358.085L94.2727 350.51C94.2273 350.41 94.1622 350.32 94.0813 350.245C94.0004 350.17 93.9053 350.113 93.8018 350.076C93.6982 350.038 93.5882 350.022 93.4783 350.028C93.3684 350.034 93.2609 350.062 93.162 350.111L89.4612 351.924C89.4612 351.924 84.3089 354.007 83.6609 355.682C81.7707 360.574 88.9332 377.524 91.169 377.527C91.987 377.528 92.4727 376.261 92.587 375.453C92.9489 372.886 93.0103 366.432 93.3386 364.294C93.7226 361.795 96.2494 359.872 97.4157 359.106C97.5776 358.998 97.6956 358.836 97.7486 358.649C97.8016 358.462 97.786 358.262 97.7047 358.085" fill="#1A2E35"/>
<path d="M96.881 363.322C96.8917 363.144 96.8416 362.967 96.7389 362.821C96.2733 362.148 94.888 361.839 94.192 361.724C94.7882 362.652 96.1063 363.832 96.6535 363.727C96.7072 363.71 96.8244 363.695 96.8704 363.416L96.881 363.322ZM93.6516 361.346C93.6832 361.274 93.7572 361.233 93.834 361.243C93.9664 361.232 96.3549 361.484 97.0903 362.548C97.2765 362.813 97.3476 363.143 97.2871 363.46C97.2856 363.618 97.2308 363.77 97.1318 363.892C97.0327 364.014 96.8953 364.099 96.7418 364.132C95.8029 364.305 94.0692 362.474 93.6554 361.533L93.6064 361.446C93.6116 361.409 93.6272 361.374 93.6516 361.346" fill="#007CFF"/>
<g opacity="0.199997">
<path d="M109.215 339.697L97.8381 348.039L101.487 355.236L115.032 347.829L109.215 339.697Z" fill="black"/>
</g>
<path d="M104.086 355.706L107.828 354.874L101.609 343.008L98.1416 346.548L104.086 355.706Z" fill="#007CFF"/>
<g opacity="0.600006">
<path d="M104.086 355.706L107.828 354.874L101.609 343.008L98.1416 346.548L104.086 355.706Z" fill="white"/>
</g>
<path d="M132.758 354.062L146.678 356.353L153.363 357.454L155.313 350.548L149.267 348.71L134.499 344.216L132.758 354.062Z" fill="#FDB473"/>
<path d="M153.95 349.418L150.939 357.17C150.899 357.272 150.88 357.382 150.884 357.492C150.887 357.602 150.912 357.71 150.958 357.811C151.004 357.911 151.07 358 151.151 358.075C151.232 358.149 151.328 358.206 151.432 358.243L155.316 359.618C155.316 359.618 160.41 361.842 162.059 361.132C166.877 359.061 173.974 342.082 172.413 340.483C171.841 339.897 170.595 340.438 169.939 340.922C167.851 342.459 163.197 346.931 161.44 348.193C159.385 349.667 156.244 349.207 154.881 348.911C154.691 348.87 154.492 348.898 154.322 348.991C154.151 349.084 154.019 349.236 153.95 349.418" fill="#1A2E35"/>
<g opacity="0.199997">
<path d="M132.758 354.062L146.678 356.353L149.267 348.71L134.499 344.216L132.758 354.062Z" fill="black"/>
</g>
<path d="M146.87 347.266C146.87 347.266 89.0013 313.133 69.4184 314.042C49.8344 314.95 48.1227 334.442 56.2021 345.247C64.2824 356.054 79.2017 358.685 79.2017 358.685C79.2017 358.685 69.044 344.33 70.5127 340.291C71.9806 336.253 77.5793 349.836 77.5793 349.836C77.5793 349.836 113.433 354.531 144.668 357.178L146.87 347.266Z" fill="#007CFF"/>
<path d="M147.785 346.39L144.573 344.231L140.446 356.909H145.401L147.785 346.39Z" fill="#007CFF"/>
<g opacity="0.600006">
<path d="M147.785 346.39L144.573 344.231L140.446 356.909H145.401L147.785 346.39Z" fill="white"/>
</g>
<path d="M103.703 319.469C93.2361 299.31 96.5663 268.641 105.666 238.12C99.333 232.829 74.0496 229.257 54.7479 234.866C54.7479 234.866 42.5146 280.191 43.9594 329.692L103.703 319.469Z" fill="#1A2E35"/>
<path d="M81.473 243.073C73.0538 243.073 67.5723 234.241 67.5723 234.241C78.6122 230.372 78.6506 218.718 78.6506 218.718L82.9034 222.875L88.961 228.807C83.921 232.379 86.3018 235.47 87.905 236.842C88.481 237.351 88.961 237.63 88.961 237.63C88.961 237.63 89.8922 243.073 81.473 243.073Z" fill="#FDB473"/>
<g opacity="0.199997">
<path d="M87.9051 236.842C77.5756 238.004 78.2764 222.539 78.2764 222.539C79.918 222.519 81.4636 222.635 82.9035 222.875L88.9611 228.807C83.9211 232.378 86.3019 235.47 87.9051 236.842Z" fill="black"/>
</g>
<path d="M95.9738 207.117C92.0599 208.738 92.8087 213.008 99.2992 220.787C103.296 217.347 105.46 209.513 103.364 206.999C101.269 204.485 99.3818 205.719 95.9738 207.117Z" fill="#1A2E35"/>
<path d="M101.748 224.43C101.748 224.43 101.748 224.439 101.739 224.459C101.364 225.553 100.942 226.58 100.491 227.511C96.6314 235.374 85.5338 236.9 80.6186 229.124C80.5994 229.095 80.5802 229.076 80.561 229.047C77.3162 223.815 78.5354 218.929 79.889 210.462C80.1578 208.667 80.8394 206.967 81.8858 205.479C85.5914 200.19 92.8778 198.903 98.1674 202.609C104.609 207.083 104.225 217.201 101.748 224.43Z" fill="#FDB473"/>
<path d="M91.8469 215.55C91.6952 216.23 91.9343 216.862 92.3778 216.959C92.8223 217.056 93.2984 216.592 93.4501 215.913C93.6018 215.233 93.3714 214.605 92.9317 214.499C92.492 214.392 92.0437 214.891 91.8469 215.55Z" fill="#1A2E35"/>
<path d="M99.571 217.293C99.4193 217.973 99.6584 218.605 100.103 218.702C100.546 218.799 101.031 218.34 101.188 217.651C101.343 216.963 101.1 216.339 100.656 216.242C100.212 216.145 99.7227 216.613 99.571 217.293Z" fill="#1A2E35"/>
<path d="M96.978 217.048C97.3228 219.308 97.9773 221.51 98.923 223.591C97.4446 224.437 95.5361 223.466 95.5361 223.466L96.978 217.048Z" fill="#ED883E"/>
<path d="M90.283 212.641C90.1919 212.632 90.1065 212.593 90.0411 212.529C89.9708 212.446 89.9356 212.339 89.9431 212.231C89.9507 212.123 90.0003 212.022 90.0814 211.95C90.5665 211.517 91.149 211.207 91.7794 211.047C92.4099 210.887 93.0696 210.882 93.7025 211.031C93.7527 211.044 93.8 211.066 93.8415 211.097C93.8829 211.128 93.9179 211.167 93.9443 211.212C93.9707 211.257 93.988 211.306 93.9953 211.357C94.0026 211.409 93.9996 211.461 93.9867 211.511L93.978 211.539C93.944 211.641 93.8727 211.726 93.7784 211.777C93.6842 211.828 93.574 211.841 93.4702 211.814C92.9695 211.705 92.4498 211.716 91.9543 211.847C91.4588 211.978 91.0017 212.226 90.6209 212.569C90.5728 212.604 90.5178 212.628 90.4596 212.641C90.4014 212.653 90.3412 212.653 90.283 212.641" fill="#1A2E35"/>
<path d="M103.673 215.478C103.598 215.46 103.529 215.422 103.473 215.367C103.418 215.313 103.378 215.245 103.359 215.17C103.256 214.666 103.036 214.195 102.716 213.793C102.396 213.392 101.985 213.071 101.518 212.859C101.416 212.821 101.333 212.745 101.287 212.646C101.241 212.548 101.236 212.435 101.272 212.333C101.31 212.232 101.385 212.15 101.481 212.104C101.578 212.057 101.689 212.05 101.79 212.083C102.387 212.343 102.912 212.742 103.323 213.246C103.734 213.751 104.018 214.346 104.152 214.982C104.165 215.034 104.167 215.088 104.159 215.14C104.151 215.192 104.133 215.243 104.105 215.288C104.077 215.334 104.041 215.373 103.998 215.404C103.956 215.436 103.907 215.458 103.855 215.471L103.85 215.472C103.792 215.485 103.732 215.487 103.673 215.478" fill="#1A2E35"/>
<path d="M84.8772 203.81C88.4811 206.024 87.0584 210.125 79.4158 216.766C76.0136 212.733 75.1217 204.646 77.5995 202.513C80.0773 200.379 81.7275 201.883 84.8772 203.81Z" fill="#1A2E35"/>
<path d="M74.4162 216.252C74.5443 218.407 75.5209 220.423 77.132 221.859C79.2834 223.736 81.5816 222.107 82.0146 219.438C82.4024 217.031 81.7448 213.15 79.0943 212.302C76.4447 211.454 74.2722 213.61 74.4162 216.252Z" fill="#FDB473"/>
<path d="M88.9573 223.557C88.9573 223.557 89.8443 226.608 93.932 227.316" stroke="#1A2E35" stroke-width="0.742665" stroke-miterlimit="10" stroke-linecap="round" stroke-linejoin="round"/>
<path d="M96.3117 217.105C96.3117 217.487 96.2364 217.866 96.0902 218.219C95.944 218.572 95.7296 218.892 95.4594 219.163C95.1892 219.433 94.8685 219.647 94.5155 219.793C94.1624 219.94 93.7841 220.015 93.4019 220.015C93.0198 220.015 92.6415 219.94 92.2884 219.793C91.9354 219.647 91.6146 219.433 91.3444 219.163C91.0742 218.892 90.8599 218.572 90.7137 218.219C90.5675 217.866 90.4922 217.487 90.4922 217.105C90.4922 216.333 90.7987 215.593 91.3444 215.048C91.8901 214.502 92.6302 214.195 93.4019 214.195C94.1737 214.195 94.9138 214.502 95.4594 215.048C96.0051 215.593 96.3117 216.333 96.3117 217.105V217.105Z" stroke="#1A2E35" stroke-width="0.742665" stroke-miterlimit="10" stroke-linecap="round" stroke-linejoin="round"/>
<path d="M104.158 218.716C104.158 219.098 104.083 219.476 103.936 219.829C103.79 220.182 103.576 220.503 103.306 220.773C103.035 221.044 102.715 221.258 102.362 221.404C102.009 221.55 101.63 221.626 101.248 221.626C100.866 221.626 100.488 221.55 100.135 221.404C99.7816 221.258 99.4608 221.044 99.1906 220.773C98.9204 220.503 98.7061 220.182 98.5599 219.829C98.4136 219.476 98.3384 219.098 98.3384 218.716C98.3384 217.944 98.6449 217.204 99.1906 216.658C99.7363 216.113 100.476 215.806 101.248 215.806C102.02 215.806 102.76 216.113 103.306 216.658C103.851 217.204 104.158 217.944 104.158 218.716V218.716Z" stroke="#1A2E35" stroke-width="0.742665" stroke-miterlimit="10" stroke-linecap="round" stroke-linejoin="round"/>
<path d="M96.3118 217.889C96.3118 217.889 97.6644 217.23 98.3383 218.429" stroke="#1A2E35" stroke-width="0.742665" stroke-miterlimit="10" stroke-linecap="round" stroke-linejoin="round"/>
<path d="M90.5538 216.51C90.5538 216.51 82.2104 212.998 80.6523 212.65" stroke="#1A2E35" stroke-width="0.742665" stroke-miterlimit="10" stroke-linecap="round" stroke-linejoin="round"/>
<path d="M77.52 202.626C77.52 202.626 76.655 195.847 83.5737 194.727C90.4924 193.607 99.5529 195.339 102.352 194.139C102.352 194.139 101.978 196.285 100.37 197.084C100.37 197.084 105.648 199.03 109.808 197.35C109.808 197.35 108 202.35 105.666 204.27H107.652C107.652 204.27 103.715 208.03 98.9241 208.11C94.1327 208.191 89.6226 201.591 84.8783 203.811C80.1321 206.031 77.52 202.626 77.52 202.626Z" fill="#1A2E35"/>
<g opacity="0.399994">
<path d="M101.748 224.43C101.748 224.43 101.748 224.439 101.739 224.459C101.364 225.553 100.942 226.58 100.491 227.511C96.6316 235.374 85.534 236.9 80.6188 229.124C80.5996 229.095 80.5804 229.076 80.5612 229.047C78.0268 224.545 80.0524 219.63 80.0524 219.63L81.5308 214.839L82.606 213.774C82.606 213.774 82.8556 218.641 83.614 220.014C84.3724 221.387 88.6924 221.79 89.5756 222.03C90.4492 222.27 92.5516 224.766 93.5884 225.438C94.6156 226.11 98.4268 225.553 98.878 226.11C99.3292 226.667 101.748 224.43 101.748 224.43Z" fill="black"/>
</g>
<g opacity="0.199997">
<path d="M58.5857 301.71L78.4922 323.783C78.4922 323.783 100.502 323.293 127.226 336.355C127.226 336.355 155.903 324.509 158.538 314.669C161.172 304.83 98.3382 311.789 98.3382 311.789L58.5857 301.71Z" fill="black"/>
</g>
<path d="M64.2123 295.23L96.1322 305.67C96.1322 305.67 107.532 303.15 109.572 303.15C111.612 303.15 119.487 309.554 115.031 311.79C110.575 314.025 98.4122 314.31 97.0922 313.59C95.7722 312.87 60.3723 304.586 60.3723 304.586L64.2123 295.23Z" fill="#FDB473"/>
<path d="M54.7468 234.866C61.9698 233.465 49.439 277.47 52.5062 283.95C55.5724 290.43 67.5723 294.526 67.5723 294.526L62.0524 306.71C62.0524 306.71 45.7324 303.63 36.8524 292.35C27.9725 281.07 42.9609 237.153 54.7468 234.866Z" fill="#1A2E35"/>
<g opacity="0.199997">
<path d="M54.7468 234.866C61.9698 233.465 49.439 277.47 52.5062 283.95C55.5724 290.43 67.5723 294.526 67.5723 294.526L62.0524 306.71C62.0524 306.71 45.7324 303.63 36.8524 292.35C27.9725 281.07 42.9609 237.153 54.7468 234.866Z" fill="black"/>
</g>
<path d="M67.5723 293.55L60.8523 306.71L66.6123 307.949L71.8923 295.829L67.5723 293.55Z" fill="#1A2E35"/>
<g opacity="0.199997">
<path d="M67.5723 293.55L60.8523 306.71L66.6123 307.949L71.8923 295.829L67.5723 293.55Z" fill="white"/>
</g>
<path d="M80.7722 311.789V313.882C80.7722 315.293 81.9463 316.589 83.3671 316.589H160.541C161.962 316.589 163.332 315.293 163.332 313.882V311.789H80.7722Z" fill="#1A2E35"/>
<g opacity="0.199997">
<path d="M80.7722 311.789V313.882C80.7722 315.293 81.9463 316.589 83.3671 316.589H160.541C161.962 316.589 163.332 315.293 163.332 313.882V311.789H80.7722Z" fill="white"/>
</g>
<g opacity="0.199997">
<path d="M109.572 311.789V313.882C109.572 315.293 110.766 316.589 112.177 316.589H160.541C161.962 316.589 163.332 315.293 163.332 313.882V311.789H109.572Z" fill="white"/>
</g>
<path d="M112.177 314.669H163.162C164.727 314.669 166.388 313.441 166.868 311.933L178.56 275.257C179.04 273.75 178.167 272.43 176.602 272.43H125.617C124.052 272.43 122.391 273.75 121.911 275.257L110.218 311.887C109.738 313.396 110.612 314.669 112.177 314.669Z" fill="#1A2E35"/>
<g opacity="0.199997">
<path d="M112.177 314.669H163.162C164.727 314.669 166.388 313.441 166.868 311.933L178.56 275.257C179.04 273.75 178.167 272.43 176.602 272.43H125.617C124.052 272.43 122.391 273.75 121.911 275.257L110.218 311.887C109.738 313.396 110.612 314.669 112.177 314.669Z" fill="white"/>
</g>
<g opacity="0.199997">
<path d="M114.097 314.669H163.162C164.727 314.669 166.388 313.441 166.868 311.933L178.56 275.257C179.04 273.75 178.167 272.43 176.602 272.43H127.537C125.972 272.43 124.311 273.75 123.831 275.257L112.138 311.887C111.658 313.396 112.532 314.669 114.097 314.669Z" fill="white"/>
</g>
<g opacity="0.199997">
<path d="M149.24 289.527L142.181 294.526L145.233 299.526L152.292 294.526L149.24 289.527Z" fill="white"/>
</g>
<path d="M195.544 111.532H141.45C139.585 111.532 137.796 110.791 136.477 109.472C135.158 108.153 134.417 106.365 134.417 104.499V50.4054C134.417 48.5401 135.158 46.7513 136.477 45.4323C137.796 44.1134 139.585 43.3724 141.45 43.3724H195.544C197.409 43.3724 199.198 44.1134 200.517 45.4323C201.836 46.7513 202.577 48.5401 202.577 50.4054V104.499C202.577 106.365 201.836 108.153 200.517 109.472C199.198 110.791 197.409 111.532 195.544 111.532" fill="#007CFF"/>
<path d="M160.775 73.1055C159.294 73.1055 157.875 72.5174 156.828 71.4707C155.781 70.424 155.193 69.0043 155.193 67.524C155.193 66.0438 155.781 64.6241 156.828 63.5774C157.875 62.5307 159.294 61.9426 160.775 61.9426C162.255 61.9426 163.675 62.5307 164.721 63.5774C165.768 64.6241 166.356 66.0438 166.356 67.524C166.356 69.0043 165.768 70.424 164.721 71.4707C163.675 72.5174 162.255 73.1055 160.775 73.1055M173.748 69.5861V65.4639L171.626 65.2632C171.342 63.9059 170.805 62.6142 170.042 61.4559L171.406 59.8085L168.49 56.894L166.844 58.2572C165.685 57.4946 164.393 56.9576 163.035 56.6741L162.836 54.5516H158.714L158.514 56.6741C157.156 56.9571 155.864 57.4942 154.706 58.2572L153.059 56.894L150.144 59.8085L151.507 61.4559C150.744 62.6142 150.207 63.9059 149.924 65.2632L147.801 65.4639V69.5861L149.924 69.7858C150.211 71.1682 150.758 72.4527 151.507 73.5941L150.144 75.2405L153.059 78.156L154.706 76.7918C155.864 77.5548 157.156 78.0919 158.514 78.3749L158.714 80.4974H162.836L163.035 78.3749C164.418 78.0888 165.702 77.5406 166.844 76.7918L168.49 78.156L171.406 75.2405L170.042 73.5941C170.805 72.4356 171.342 71.1435 171.626 69.7858L173.748 69.5861Z" fill="url(#paint4_linear_29_801)"/>
<path d="M180.29 83.9813C179.131 83.9813 178.018 83.5206 177.198 82.7005C176.378 81.8805 175.918 80.7683 175.918 79.6085C175.918 78.4488 176.378 77.3365 177.198 76.5165C178.018 75.6964 179.131 75.2357 180.29 75.2357C181.45 75.2357 182.562 75.6964 183.382 76.5165C184.202 77.3365 184.663 78.4488 184.663 79.6085C184.663 80.7683 184.202 81.8805 183.382 82.7005C182.562 83.5206 181.45 83.9813 180.29 83.9813M190.457 81.2232L190.456 77.9928L188.793 77.8364C188.571 76.7726 188.15 75.7603 187.553 74.8527L188.621 73.5615L186.336 71.2777L185.046 72.3461C184.139 71.7487 183.126 71.3279 182.063 71.1058L181.906 69.4421H178.675L178.518 71.1058C177.455 71.3279 176.442 71.7487 175.535 72.3461L174.244 71.2777L171.96 73.5615L173.028 74.8527C172.43 75.7603 172.01 76.7726 171.788 77.8364L170.124 77.9928L170.125 81.2232L171.788 81.3797C172.01 82.4437 172.431 83.4563 173.028 84.3643L171.96 85.6546L174.244 87.9384L175.535 86.8699C176.442 87.468 177.454 87.8892 178.518 88.1112L178.675 89.7739H181.906L182.063 88.1112C183.126 87.8892 184.139 87.468 185.046 86.8699L186.336 87.9384L188.621 85.6546L187.553 84.3643C188.15 83.4563 188.571 82.4437 188.793 81.3797L190.457 81.2232Z" fill="url(#paint5_linear_29_801)"/>
<path d="M165.209 92.7105C164.235 92.7105 163.3 92.3236 162.612 91.6348C161.923 90.9459 161.536 90.0117 161.536 89.0376C161.536 88.0635 161.923 87.1292 162.612 86.4404C163.3 85.7516 164.235 85.3646 165.209 85.3646C166.183 85.3646 167.117 85.7516 167.806 86.4404C168.495 87.1292 168.882 88.0635 168.882 89.0376C168.882 90.0117 168.495 90.9459 167.806 91.6348C167.117 92.3236 166.183 92.7105 165.209 92.7105ZM173.748 90.3941V87.6811L172.35 87.5496C172.164 86.6559 171.811 85.8054 171.309 85.043L172.206 83.9592L170.287 82.0402L169.203 82.9378C168.441 82.4358 167.591 82.0824 166.697 81.8962L166.565 80.4984H163.852L163.721 81.8962C162.827 82.0824 161.977 82.4358 161.214 82.9378L160.13 82.0402L158.211 83.9592L159.109 85.043C158.607 85.8054 158.254 86.6559 158.067 87.5496L156.67 87.6811L156.671 90.3941L158.067 90.5256C158.254 91.4192 158.607 92.2697 159.109 93.0321L158.211 94.116L160.13 96.0341L161.214 95.1374C161.977 95.6395 162.827 95.9929 163.721 96.179L163.852 97.5758H166.565L166.697 96.179C167.591 95.9929 168.441 95.6395 169.203 95.1374L170.287 96.0341L172.206 94.116L171.309 93.0321C171.811 92.2697 172.164 91.4192 172.35 90.5256L173.748 90.3941Z" fill="url(#paint6_linear_29_801)"/>
<path d="M309.768 190.242H259.762C258.908 190.243 258.063 190.074 257.274 189.748C256.485 189.421 255.768 188.942 255.165 188.339C254.561 187.735 254.082 187.018 253.755 186.229C253.429 185.441 253.261 184.595 253.261 183.741V133.734C253.261 132.88 253.429 132.035 253.755 131.246C254.082 130.457 254.561 129.741 255.165 129.137C255.768 128.533 256.485 128.054 257.274 127.728C258.063 127.401 258.908 127.233 259.762 127.233H309.768C311.492 127.233 313.146 127.918 314.365 129.137C315.584 130.356 316.269 132.01 316.269 133.734V183.741C316.269 185.466 315.584 187.119 314.365 188.338C313.146 189.557 311.492 190.242 309.768 190.242" fill="#007CFF"/>
<path d="M287.167 168.855C287.173 169.157 287.119 169.458 287.007 169.74C286.896 170.021 286.729 170.277 286.517 170.494C286.306 170.71 286.053 170.882 285.774 170.999C285.495 171.116 285.195 171.177 284.892 171.177C284.589 171.177 284.29 171.116 284.011 170.999C283.732 170.882 283.479 170.71 283.267 170.494C283.055 170.277 282.888 170.021 282.777 169.74C282.665 169.458 282.611 169.157 282.617 168.855C282.63 168.259 282.875 167.693 283.3 167.276C283.725 166.859 284.297 166.626 284.892 166.626C285.487 166.626 286.059 166.859 286.484 167.276C286.91 167.693 287.155 168.259 287.167 168.855" fill="url(#paint7_linear_29_801)"/>
<path d="M284.701 146.161C272.224 146.161 262.112 156.27 262.112 168.75H280.152C280.152 165.87 282.188 164.296 284.701 164.296C285.177 164.296 285.627 164.43 286.058 164.558L294.516 154.739L288.543 166.354C288.984 167.053 289.249 167.79 289.249 168.75H307.289C307.289 156.27 297.176 146.161 284.701 146.161Z" fill="url(#paint8_linear_29_801)"/>
<path d="M346.237 120.621H302.362C300.849 120.621 299.398 120.02 298.328 118.951C297.258 117.881 296.657 116.43 296.657 114.917V71.0414C296.657 69.5286 297.258 68.0777 298.328 67.0079C299.398 65.9381 300.849 65.3371 302.362 65.3371H346.237C347.75 65.3371 349.201 65.9381 350.271 67.0079C351.341 68.0777 351.942 69.5286 351.942 71.0414V114.917C351.942 116.43 351.341 117.881 350.271 118.951C349.201 120.02 347.75 120.621 346.237 120.621" fill="#007CFF"/>
<path d="M334.941 83.3774C334.737 83.3774 334.534 83.3371 334.345 83.2588C334.156 83.1806 333.985 83.0659 333.84 82.9213C333.696 82.7767 333.581 82.6051 333.503 82.4161C333.424 82.2272 333.384 82.0247 333.384 81.8203C333.384 81.6158 333.424 81.4133 333.503 81.2244C333.581 81.0355 333.696 80.8638 333.84 80.7192C333.985 80.5746 334.156 80.4599 334.345 80.3817C334.534 80.3034 334.737 80.2631 334.941 80.2631C335.354 80.2631 335.75 80.4272 336.042 80.7192C336.334 81.0112 336.498 81.4073 336.498 81.8203C336.498 82.2332 336.334 82.6293 336.042 82.9213C335.75 83.2133 335.354 83.3774 334.941 83.3774M330.788 82.5988H329.231V81.0417H330.788V82.5988ZM339.732 79.3675C339.731 78.8857 339.54 78.4237 339.199 78.0831C338.858 77.7425 338.396 77.5512 337.914 77.5512H310.828C310.346 77.5512 309.884 77.7425 309.544 78.0831C309.203 78.4238 309.012 78.8858 309.012 79.3675V85.3338C309.012 86.338 309.825 87.1511 310.828 87.1511H337.914C338.918 87.1511 339.732 86.338 339.732 85.3338V79.3675Z" fill="url(#paint9_linear_29_801)"/>
<path d="M334.941 94.5374C334.737 94.5374 334.534 94.4971 334.345 94.4189C334.156 94.3406 333.985 94.2259 333.84 94.0813C333.696 93.9368 333.581 93.7651 333.503 93.5762C333.424 93.3873 333.384 93.1848 333.384 92.9803C333.384 92.7758 333.424 92.5733 333.503 92.3844C333.581 92.1955 333.696 92.0238 333.84 91.8793C333.985 91.7347 334.156 91.62 334.345 91.5417C334.534 91.4635 334.737 91.4232 334.941 91.4232C335.354 91.4232 335.75 91.5872 336.042 91.8793C336.334 92.1713 336.498 92.5673 336.498 92.9803C336.498 93.3933 336.334 93.7893 336.042 94.0813C335.75 94.3734 335.354 94.5374 334.941 94.5374M330.788 93.7589H329.231V92.2017H330.788V93.7589ZM339.732 89.9275C339.732 89.4455 339.54 88.9833 339.199 88.6425C338.859 88.3017 338.396 88.1102 337.914 88.1102H310.828C310.589 88.1102 310.353 88.1572 310.133 88.2486C309.912 88.3399 309.712 88.4738 309.543 88.6426C309.375 88.8113 309.241 89.0117 309.15 89.2321C309.058 89.4526 309.012 89.6889 309.012 89.9275V95.8939C309.012 96.8971 309.825 97.7102 310.828 97.7102H337.914C338.918 97.7102 339.732 96.8971 339.732 95.8939V89.9275Z" fill="url(#paint10_linear_29_801)"/>
<path d="M334.941 105.697C334.737 105.697 334.534 105.657 334.345 105.579C334.156 105.501 333.985 105.386 333.84 105.241C333.696 105.097 333.581 104.925 333.503 104.736C333.424 104.547 333.384 104.345 333.384 104.14C333.384 103.936 333.424 103.733 333.503 103.544C333.581 103.355 333.696 103.184 333.84 103.039C333.985 102.895 334.156 102.78 334.345 102.702C334.534 102.623 334.737 102.583 334.941 102.583C335.354 102.583 335.75 102.747 336.042 103.039C336.334 103.331 336.498 103.727 336.498 104.14C336.498 104.553 336.334 104.949 336.042 105.241C335.75 105.533 335.354 105.697 334.941 105.697M330.788 104.919H329.231V103.362H330.788V104.919ZM339.732 100.486C339.731 100.005 339.54 99.5427 339.199 99.2021C338.858 98.8615 338.396 98.6702 337.914 98.6702H310.828C310.346 98.6702 309.884 98.8615 309.544 99.2022C309.203 99.5428 309.012 100.005 309.012 100.486V106.453C309.012 107.456 309.825 108.27 310.828 108.27H337.914C338.918 108.27 339.732 107.456 339.732 106.453V100.486Z" fill="url(#paint11_linear_29_801)"/>
<path d="M233.57 184.654H179.476C177.611 184.654 175.822 183.913 174.503 182.594C173.184 181.275 172.443 179.486 172.443 177.621V123.527C172.443 121.662 173.184 119.873 174.503 118.554C175.822 117.235 177.611 116.494 179.476 116.494H233.57C235.435 116.494 237.224 117.235 238.543 118.554C239.862 119.873 240.603 121.662 240.603 123.527V177.621C240.603 179.486 239.862 181.275 238.543 182.594C237.224 183.913 235.435 184.654 233.57 184.654" fill="#007CFF"/>
<path d="M187.666 169.288C187.171 168.793 186.779 168.206 186.511 167.56C186.244 166.914 186.106 166.221 186.106 165.521C186.106 164.822 186.244 164.129 186.511 163.483C186.779 162.837 187.171 162.25 187.666 161.755L200.097 149.324C200.376 149.045 200.707 148.824 201.072 148.673C201.437 148.522 201.827 148.444 202.222 148.444C202.617 148.444 203.007 148.522 203.372 148.673C203.737 148.824 204.068 149.045 204.347 149.324L207.629 152.607C207.908 152.886 208.13 153.217 208.281 153.582C208.432 153.946 208.51 154.337 208.51 154.732C208.51 155.126 208.432 155.517 208.281 155.882C208.13 156.246 207.908 156.578 207.629 156.857L195.198 169.288C194.704 169.782 194.117 170.175 193.47 170.442C192.824 170.71 192.132 170.848 191.432 170.848C190.733 170.848 190.04 170.71 189.394 170.442C188.748 170.175 188.161 169.782 187.666 169.288" fill="url(#paint12_linear_29_801)"/>
<path d="M210.57 148.827L208.126 146.384L222.173 132.338L225.228 131.726L224.616 134.78L210.57 148.827Z" fill="url(#paint13_linear_29_801)"/>
<path d="M209.195 152.085L204.869 147.76C204.777 147.668 204.704 147.559 204.655 147.439C204.605 147.318 204.579 147.19 204.579 147.06C204.579 146.93 204.605 146.801 204.655 146.681C204.704 146.561 204.777 146.452 204.869 146.36C204.961 146.268 205.07 146.195 205.19 146.145C205.31 146.096 205.439 146.07 205.569 146.07C205.699 146.07 205.828 146.096 205.948 146.145C206.068 146.195 206.177 146.268 206.269 146.36L210.595 150.686C210.687 150.778 210.759 150.887 210.809 151.007C210.859 151.127 210.885 151.256 210.885 151.386C210.885 151.515 210.859 151.644 210.809 151.764C210.759 151.884 210.687 151.993 210.595 152.085C210.503 152.177 210.394 152.25 210.274 152.3C210.153 152.35 210.025 152.375 209.895 152.375C209.765 152.375 209.636 152.35 209.516 152.3C209.396 152.25 209.287 152.177 209.195 152.085" fill="url(#paint14_linear_29_801)"/>
<path d="M203.372 143.801L197.446 137.86C198.555 134.894 196.321 131.245 193.892 130.281L193.843 134.854C193.838 135.368 193.632 135.859 193.268 136.222C192.904 136.585 192.412 136.79 191.899 136.793C190.839 136.792 189.958 135.952 189.96 134.892L189.966 130.361C188.045 131.106 186.027 133.292 186.023 135.884C186.02 138.825 188.306 141.211 191.149 141.611C192.121 141.757 193.114 141.617 194.009 141.21L199.977 147.195L203.372 143.801Z" fill="url(#paint15_linear_29_801)"/>
<path d="M223.091 166.334L223.082 170.868C225.003 170.122 227.019 167.937 227.023 165.345C227.027 162.404 224.868 159.891 222.025 159.493C221.037 159.353 220.23 159.348 219.292 159.766L213.088 153.545L209.693 156.939L215.853 163.116C214.065 166.761 216.852 169.859 219.282 170.823L219.267 166.312C219.266 166.061 219.315 165.813 219.411 165.581C219.507 165.349 219.648 165.138 219.826 164.961C220.003 164.784 220.214 164.643 220.447 164.548C220.679 164.453 220.928 164.405 221.179 164.406C221.431 164.407 221.68 164.458 221.913 164.555C222.145 164.652 222.356 164.795 222.534 164.974C222.711 165.153 222.852 165.365 222.948 165.598C223.043 165.832 223.092 166.081 223.091 166.334" fill="url(#paint16_linear_29_801)"/>
<g filter="url(#filter1_b_29_801)">
<path d="M219.244 104.157H284.448C286.696 104.157 288.853 103.264 290.442 101.675C292.032 100.085 292.925 97.9289 292.925 95.6807V30.4767C292.925 28.2286 292.032 26.0725 290.442 24.4827C288.853 22.893 286.696 22 284.448 22H219.244C216.996 22 214.84 22.893 213.25 24.4827C211.661 26.0725 210.768 28.2286 210.768 30.4767V95.6807C210.768 97.9289 211.661 100.085 213.25 101.675C214.84 103.264 216.996 104.157 219.244 104.157" fill="#007CFF"/>
</g>
<path d="M251.186 71.0855C251.025 71.3013 250.817 71.4771 250.577 71.5993C250.337 71.7215 250.072 71.7868 249.803 71.7902H249.785C249.236 71.7902 248.722 71.5022 248.399 71.0577L239.575 58.8993C239.305 58.5261 239.193 58.0607 239.265 57.6053C239.338 57.15 239.587 56.7418 239.96 56.4705C240.737 55.9051 241.822 56.0769 242.384 56.8536L249.833 67.1092L262.017 51.037C262.155 50.8552 262.327 50.7023 262.523 50.5871C262.72 50.4719 262.938 50.3965 263.163 50.3654C263.389 50.3343 263.619 50.348 263.84 50.4057C264.06 50.4635 264.267 50.5641 264.449 50.7019C265.212 51.2818 265.362 52.4741 264.783 53.2382L251.186 71.0855ZM251.829 37.621L226.66 47.4955C226.66 47.4955 229.843 82.0554 251.829 88.5354C273.815 82.0554 276.996 47.4955 276.996 47.4955L251.829 37.621Z" fill="url(#paint17_linear_29_801)"/>
<path d="M367.863 291.107H286.025V235.88H367.863V291.107Z" fill="#007CFF"/>
<g opacity="0.699997">
<path d="M367.863 291.107H286.025V235.88H367.863V291.107Z" fill="white"/>
</g>
<path d="M366.138 289.269H287.546V240.139H366.138V289.269Z" fill="#1A2E35"/>
<path d="M355.762 249.189H291.146V247.749H355.762V249.189ZM346.157 253.269H291.146V251.829H346.157V253.269ZM355.762 257.349H291.146V255.909H355.762V257.349ZM346.157 261.429H291.146V259.989H346.157V261.429ZM298.126 265.509H291.145V264.069H298.126V265.509ZM326.944 269.589H291.146V268.149H326.944V269.589ZM346.157 273.669H291.146V272.229H346.157V273.669ZM298.126 277.749H291.145V276.309H298.126V277.749ZM298.126 281.829H291.145V280.389H298.126V281.829Z" fill="#E1E1E1"/>
<path d="M131.873 176.204H50.0352V120.977H131.873V176.204Z" fill="#007CFF"/>
<g opacity="0.699997">
<path d="M131.873 176.204H50.0352V120.977H131.873V176.204Z" fill="white"/>
</g>
<path d="M130.148 174.365H51.5547V125.235H130.148V174.365Z" fill="#1A2E35"/>
<path d="M119.772 134.285H55.1557V132.845H119.772V134.285ZM110.166 138.365H55.1557V136.925H110.166V138.365ZM119.772 142.445H55.1557V141.005H119.772V142.445ZM110.166 146.525H55.1557V145.085H110.166V146.525ZM62.1359 150.605H55.1548V149.165H62.1359V150.605ZM90.954 154.685H55.1548V153.245H90.954V154.685ZM110.166 158.765H55.1557V157.325H110.166V158.765ZM62.1359 162.845H55.1548V161.405H62.1359V162.845ZM62.1359 166.925H55.1548V165.485H62.1359V166.925Z" fill="#E1E1E1"/>
<defs>
<filter id="filter0_b_29_801" x="79.6523" y="10.9904" width="334.719" height="250.239" filterUnits="userSpaceOnUse" color-interpolation-filters="sRGB">
<feFlood flood-opacity="0" result="BackgroundImageFix"/>
<feGaussianBlur in="BackgroundImage" stdDeviation="10"/>
<feComposite in2="SourceAlpha" operator="in" result="effect1_backgroundBlur_29_801"/>
<feBlend mode="normal" in="SourceGraphic" in2="effect1_backgroundBlur_29_801" result="shape"/>
</filter>
<filter id="filter1_b_29_801" x="190.768" y="2" width="122.157" height="122.157" filterUnits="userSpaceOnUse" color-interpolation-filters="sRGB">
<feFlood flood-opacity="0" result="BackgroundImageFix"/>
<feGaussianBlur in="BackgroundImage" stdDeviation="10"/>
<feComposite in2="SourceAlpha" operator="in" result="effect1_backgroundBlur_29_801"/>
<feBlend mode="normal" in="SourceGraphic" in2="effect1_backgroundBlur_29_801" result="shape"/>
</filter>
<linearGradient id="paint0_linear_29_801" x1="617.61" y1="347.811" x2="195.035" y2="28.0484" gradientUnits="userSpaceOnUse">
<stop stop-color="#A0B8FF"/>
<stop offset="1" stop-color="#F3FEFF"/>
</linearGradient>
<linearGradient id="paint1_linear_29_801" x1="253.935" y1="359.127" x2="110.977" y2="532.285" gradientUnits="userSpaceOnUse">
<stop stop-color="#A0B8FF"/>
<stop offset="1" stop-color="#F3FEFF"/>
</linearGradient>
<linearGradient id="paint2_linear_29_801" x1="279.94" y1="120.924" x2="3.43195" y2="148.343" gradientUnits="userSpaceOnUse">
<stop stop-color="#007CFF"/>
<stop offset="1" stop-color="#DFB5EB"/>
</linearGradient>
<linearGradient id="paint3_linear_29_801" x1="218.261" y1="220.357" x2="167.608" y2="262.869" gradientUnits="userSpaceOnUse">
<stop stop-color="#A0B8FF"/>
<stop offset="1" stop-color="#F3FEFF"/>
</linearGradient>
<linearGradient id="paint4_linear_29_801" x1="193.612" y1="80.9865" x2="158.21" y2="58.3577" gradientUnits="userSpaceOnUse">
<stop stop-color="#A0B8FF"/>
<stop offset="1" stop-color="#F3FEFF"/>
</linearGradient>
<linearGradient id="paint5_linear_29_801" x1="206.023" y1="90.1571" x2="178.281" y2="72.4245" gradientUnits="userSpaceOnUse">
<stop stop-color="#A0B8FF"/>
<stop offset="1" stop-color="#F3FEFF"/>
</linearGradient>
<linearGradient id="paint6_linear_29_801" x1="186.823" y1="97.8977" x2="163.521" y2="83.0032" gradientUnits="userSpaceOnUse">
<stop stop-color="#A0B8FF"/>
<stop offset="1" stop-color="#F3FEFF"/>
</linearGradient>
<linearGradient id="paint7_linear_29_801" x1="290.651" y1="171.262" x2="284.442" y2="167.294" gradientUnits="userSpaceOnUse">
<stop stop-color="#A0B8FF"/>
<stop offset="1" stop-color="#F3FEFF"/>
</linearGradient>
<linearGradient id="paint8_linear_29_801" x1="341.876" y1="169.176" x2="308.915" y2="127.04" gradientUnits="userSpaceOnUse">
<stop stop-color="#A0B8FF"/>
<stop offset="1" stop-color="#F3FEFF"/>
</linearGradient>
<linearGradient id="paint9_linear_29_801" x1="363.25" y1="87.3321" x2="351.86" y2="64.0357" gradientUnits="userSpaceOnUse">
<stop stop-color="#A0B8FF"/>
<stop offset="1" stop-color="#F3FEFF"/>
</linearGradient>
<linearGradient id="paint10_linear_29_801" x1="363.25" y1="97.8911" x2="351.86" y2="74.5947" gradientUnits="userSpaceOnUse">
<stop stop-color="#A0B8FF"/>
<stop offset="1" stop-color="#F3FEFF"/>
</linearGradient>
<linearGradient id="paint11_linear_29_801" x1="363.25" y1="108.451" x2="351.86" y2="85.1547" gradientUnits="userSpaceOnUse">
<stop stop-color="#A0B8FF"/>
<stop offset="1" stop-color="#F3FEFF"/>
</linearGradient>
<linearGradient id="paint12_linear_29_801" x1="225.661" y1="171.27" x2="195.093" y2="151.732" gradientUnits="userSpaceOnUse">
<stop stop-color="#A0B8FF"/>
<stop offset="1" stop-color="#F3FEFF"/>
</linearGradient>
<linearGradient id="paint13_linear_29_801" x1="238.32" y1="149.149" x2="214.986" y2="134.235" gradientUnits="userSpaceOnUse">
<stop stop-color="#A0B8FF"/>
<stop offset="1" stop-color="#F3FEFF"/>
</linearGradient>
<linearGradient id="paint14_linear_29_801" x1="215.712" y1="152.494" x2="207.109" y2="146.995" gradientUnits="userSpaceOnUse">
<stop stop-color="#A0B8FF"/>
<stop offset="1" stop-color="#F3FEFF"/>
</linearGradient>
<linearGradient id="paint15_linear_29_801" x1="216.653" y1="147.514" x2="193.334" y2="132.227" gradientUnits="userSpaceOnUse">
<stop stop-color="#A0B8FF"/>
<stop offset="1" stop-color="#F3FEFF"/>
</linearGradient>
<linearGradient id="paint16_linear_29_801" x1="240.29" y1="171.194" x2="216.65" y2="156.078" gradientUnits="userSpaceOnUse">
<stop stop-color="#A0B8FF"/>
<stop offset="1" stop-color="#F3FEFF"/>
</linearGradient>
<linearGradient id="paint17_linear_29_801" x1="315.531" y1="89.4951" x2="246.398" y2="45.8097" gradientUnits="userSpaceOnUse">
<stop stop-color="#A0B8FF"/>
<stop offset="1" stop-color="#F3FEFF"/>
</linearGradient>
</defs>
</svg>
