<svg width="400" height="400" fill="none" xmlns="http://www.w3.org/2000/svg"><path d="M23.676 81.34c11.161-16.664 27.762-29.29 48.348-30.942 20.218-1.623 39.925 8.788 54.259 22.332 42.627 40.279 47.221 119.263 107.484 141.213 25.183 9.172 50.986-2.745 75.622-7.847 19.179-3.973 39.052 2.6 42.831 24.11 4.212 23.967-12.194 49.311-25.524 67.782-14.566 20.183-37.123 34.111-61.069 40.144-50.289 12.67-105.303-5.24-148.796-30.44-13.373-7.748-26.167-16.558-37.992-26.519-46.714-39.346-79.69-99.145-70.043-161.675 2.023-13.12 7.146-26.609 14.88-38.159z" fill="url(#a)"/><path d="M378.266 361.938c0 6.004-83.335 10.87-186.133 10.87C89.334 372.808 6 367.942 6 361.938c0-6.003 83.335-10.87 186.133-10.87 102.798 0 186.133 4.867 186.133 10.87z" fill="url(#b)"/><path d="M378.371 51.256v193.199c0 4.628-4.051 8.775-8.668 8.775H91.707c-4.618 0-8.055-4.147-8.055-8.775v-193.2c0-4.617 3.437-8.265 8.055-8.265h277.996c4.617 0 8.668 3.648 8.668 8.266z" fill="url(#c)"/><g filter="url(#d)"><path d="M394.371 39.256v193.199c0 4.628-4.051 8.775-8.668 8.775H107.707c-4.618 0-8.055-4.147-8.055-8.775v-193.2c0-4.617 3.437-8.265 8.055-8.265h277.996c4.617 0 8.668 3.648 8.668 8.266z" fill="#fff" fill-opacity=".3"/></g><path d="M302.455 226.184H161.446a4.833 4.833 0 1 1 0-9.669h141.009a4.835 4.835 0 0 1 0 9.669" fill="#213B89" fill-opacity=".7"/><path d="M161.447 225.19c-2.136 0-3.875-1.703-3.875-3.84 0-2.137 1.739-3.84 3.875-3.84h83.372c2.137 0 3.875 1.703 3.875 3.84 0 2.137-1.738 3.84-3.875 3.84h-83.372z" fill="#007CFF"/><path d="M161.447 225.19c-2.136 0-3.875-1.703-3.875-3.84 0-2.137 1.739-3.84 3.875-3.84h83.372c2.137 0 3.875 1.703 3.875 3.84 0 2.137-1.738 3.84-3.875 3.84h-83.372z" fill="url(#e)"/><path d="M105.665 238.119c8.946 7.19 5.826 41.51 7.506 46.79 1.68 5.28 8.88 9.616 8.88 9.616l-10.045 11.76s-8.399-1.456-14.777-15.136 8.436-53.03 8.436-53.03z" fill="#1A2E35"/><path d="M105.665 238.119c8.946 7.19 5.826 41.51 7.506 46.79 1.68 5.28 8.88 9.616 8.88 9.616l-10.045 11.76s-8.399-1.456-14.777-15.136 8.436-53.03 8.436-53.03z" fill="#000" opacity=".2"/><path d="M96.16 313.473s64.292-17.942 72.368 4.622c8.077 22.563-50.293 40.552-82.598 41.653-32.306 1.101-45.484-21.552-35.957-43.081l46.188-3.194z" fill="#007CFF"/><path d="M96.16 313.473s64.292-17.942 72.368 4.622c8.077 22.563-50.293 40.552-82.598 41.653-32.306 1.101-45.484-21.552-35.957-43.081l46.188-3.194z" fill="#000" opacity=".2"/><path d="M159.451 349.396a4.623 4.623 0 0 0 2.301-2.217.706.706 0 0 0-.274-.712.232.232 0 0 0-.253-.074.697.697 0 0 0-.249.146 8.984 8.984 0 0 0-1.525 2.857m-.278.597a.212.212 0 0 1-.238-.013.17.17 0 0 1-.063-.09.167.167 0 0 1 .008-.11c.105-.36 1.175-3.465 2.257-3.792a.674.674 0 0 1 .645.19c.306.252.453.65.384 1.041a2.88 2.88 0 0 1-1.013 1.459c-.614.504-1.277.945-1.98 1.315" fill="#007CFF"/><path d="M158.268 346.343a.794.794 0 0 0-.258.452c-.156.803.593 2.01.998 2.587.246-1.075.166-2.843-.292-3.16-.049-.026-.143-.1-.373.062l-.075.059zm.848 3.69a.18.18 0 0 1-.11.004.182.182 0 0 1-.091-.063c-.101-.086-1.592-1.969-1.347-3.24a1.2 1.2 0 0 1 .515-.778.69.69 0 0 1 .861-.081c.78.549.685 3.069.302 4.024l-.027.095a.195.195 0 0 1-.103.039M93.87 362.03a4.627 4.627 0 0 0-.025 3.196.708.708 0 0 0 .7.302.231.231 0 0 0 .23-.128.733.733 0 0 0 .071-.281 9.01 9.01 0 0 0-.975-3.089m-.232-.615a.21.21 0 0 1 .175-.162.165.165 0 0 1 .182.1c.184.327 1.654 3.265 1.13 4.266a.673.673 0 0 1-.586.329 1.097 1.097 0 0 1-1.013-.455 2.873 2.873 0 0 1-.334-1.745c.069-.791.219-1.572.446-2.333" fill="#007CFF"/><path d="m109.215 339.697-11.377 8.342-5.464 4.005 3.569 6.225 5.544-3.033 13.545-7.407-5.817-8.132z" fill="#FDB473"/><path d="m97.705 358.085-3.432-7.575a.829.829 0 0 0-.795-.482.811.811 0 0 0-.316.083l-3.7 1.813s-5.153 2.083-5.801 3.758c-1.89 4.892 5.272 21.842 7.508 21.845.818.001 1.304-1.266 1.418-2.074.362-2.567.423-9.021.752-11.159.384-2.499 2.91-4.422 4.077-5.188a.817.817 0 0 0 .289-1.021" fill="#1A2E35"/><path d="M96.881 363.322a.79.79 0 0 0-.142-.501c-.466-.673-1.851-.982-2.547-1.097.596.928 1.914 2.108 2.462 2.003.053-.017.17-.032.216-.311l.011-.094zm-3.23-1.976a.174.174 0 0 1 .183-.103c.132-.011 2.52.241 3.256 1.305.186.265.258.595.197.912a.695.695 0 0 1-.545.672c-.94.173-2.673-1.658-3.087-2.599l-.049-.087a.193.193 0 0 1 .046-.1" fill="#007CFF"/><path d="m109.215 339.697-11.377 8.342 3.649 7.197 13.545-7.407-5.817-8.132z" fill="#000" opacity=".2"/><path d="m104.086 355.706 3.742-.832-6.219-11.866-3.467 3.54 5.944 9.158z" fill="#007CFF"/><path d="m104.086 355.706 3.742-.832-6.219-11.866-3.467 3.54 5.944 9.158z" fill="#fff" opacity=".6"/><path d="m132.758 354.062 13.92 2.291 6.685 1.101 1.95-6.906-6.046-1.838-14.768-4.494-1.741 9.846z" fill="#FDB473"/><path d="m153.95 349.418-3.011 7.752a.822.822 0 0 0 .493 1.073l3.884 1.375s5.094 2.224 6.743 1.514c4.818-2.071 11.915-19.05 10.354-20.649-.572-.586-1.818-.045-2.474.439-2.088 1.537-6.742 6.009-8.499 7.271-2.055 1.474-5.196 1.014-6.559.718a.81.81 0 0 0-.931.507" fill="#1A2E35"/><path d="m132.758 354.062 13.92 2.291 2.589-7.643-14.768-4.494-1.741 9.846z" fill="#000" opacity=".2"/><path d="M146.87 347.266s-57.869-34.133-77.452-33.224c-19.584.908-21.295 20.4-13.216 31.205 8.08 10.807 23 13.438 23 13.438s-10.158-14.355-8.69-18.394c1.469-4.038 7.067 9.545 7.067 9.545s35.854 4.695 67.089 7.342l2.202-9.912z" fill="#007CFF"/><path d="m147.785 346.39-3.212-2.159-4.127 12.678h4.955l2.384-10.519z" fill="#007CFF"/><path d="m147.785 346.39-3.212-2.159-4.127 12.678h4.955l2.384-10.519z" fill="#fff" opacity=".6"/><path d="M103.703 319.469c-10.467-20.159-7.137-50.828 1.963-81.349-6.333-5.291-31.616-8.863-50.918-3.254 0 0-12.233 45.325-10.789 94.826l59.744-10.223z" fill="#1A2E35"/><path d="M81.473 243.073c-8.42 0-13.9-8.832-13.9-8.832 11.04-3.869 11.078-15.523 11.078-15.523l4.252 4.157 6.058 5.932c-5.04 3.572-2.66 6.663-1.056 8.035a7.403 7.403 0 0 0 1.056.788s.931 5.443-7.488 5.443z" fill="#FDB473"/><path d="M87.905 236.842c-10.33 1.162-9.629-14.303-9.629-14.303a26.22 26.22 0 0 1 4.627.336l6.058 5.932c-5.04 3.571-2.66 6.663-1.056 8.035z" fill="#000" opacity=".2"/><path d="M95.974 207.117c-3.914 1.621-3.165 5.891 3.325 13.67 3.997-3.44 6.161-11.274 4.065-13.788-2.095-2.514-3.982-1.28-7.39.118z" fill="#1A2E35"/><path d="M101.748 224.43s0 .009-.009.029a27.45 27.45 0 0 1-1.248 3.052c-3.86 7.863-14.957 9.389-19.872 1.613-.02-.029-.039-.048-.058-.077-3.245-5.232-2.026-10.118-.672-18.585.269-1.795.95-3.495 1.997-4.983 3.705-5.289 10.992-6.576 16.281-2.87 6.442 4.474 6.058 14.592 3.581 21.821z" fill="#FDB473"/><path d="M91.847 215.55c-.152.68.087 1.312.53 1.409.445.097.921-.367 1.073-1.046.152-.68-.079-1.308-.518-1.414-.44-.107-.888.392-1.085 1.051zM99.571 217.293c-.152.68.087 1.312.532 1.409.443.097.928-.362 1.085-1.051.155-.688-.088-1.312-.532-1.409-.444-.097-.933.371-1.085 1.051z" fill="#1A2E35"/><path d="M96.978 217.048c.345 2.26 1 4.462 1.945 6.543-1.478.846-3.387-.125-3.387-.125l1.442-6.418z" fill="#ED883E"/><path d="M90.283 212.641a.402.402 0 0 1-.242-.112.417.417 0 0 1 .04-.579 4.045 4.045 0 0 1 3.621-.919.399.399 0 0 1 .242.181.397.397 0 0 1 .043.299l-.009.028a.422.422 0 0 1-.508.275 3.225 3.225 0 0 0-2.85.755.434.434 0 0 1-.337.072M103.673 215.478a.427.427 0 0 1-.314-.308 3.256 3.256 0 0 0-1.841-2.311.413.413 0 0 1-.246-.526.416.416 0 0 1 .518-.25 4.08 4.08 0 0 1 2.362 2.899.401.401 0 0 1-.154.422.392.392 0 0 1-.143.067l-.005.001a.479.479 0 0 1-.177.006M84.877 203.81c3.604 2.214 2.181 6.315-5.461 12.956-3.402-4.033-4.294-12.12-1.816-14.253 2.477-2.134 4.128-.63 7.277 1.297z" fill="#1A2E35"/><path d="M74.416 216.252a8.16 8.16 0 0 0 2.716 5.607c2.151 1.877 4.45.248 4.883-2.421.387-2.407-.27-6.288-2.92-7.136-2.65-.848-4.823 1.308-4.679 3.95z" fill="#FDB473"/><path d="M88.957 223.557s.887 3.051 4.975 3.759M96.312 217.105a2.913 2.913 0 0 1-1.796 2.688 2.896 2.896 0 0 1-2.228 0 2.907 2.907 0 0 1-.944-4.745 2.91 2.91 0 0 1 4.968 2.057v0zM104.158 218.716a2.905 2.905 0 0 1-4.023 2.688 2.907 2.907 0 0 1-.944-4.746 2.912 2.912 0 0 1 4.967 2.058v0z" stroke="#1A2E35" stroke-width=".743" stroke-miterlimit="10" stroke-linecap="round" stroke-linejoin="round"/><path d="M96.312 217.889s1.352-.659 2.026.54M90.554 216.51s-8.344-3.512-9.902-3.86" stroke="#1A2E35" stroke-width=".743" stroke-miterlimit="10" stroke-linecap="round" stroke-linejoin="round"/><path d="M77.52 202.626s-.865-6.779 6.054-7.899c6.918-1.12 15.979.612 18.778-.588 0 0-.374 2.146-1.982 2.945 0 0 5.278 1.946 9.438.266 0 0-1.808 5-4.142 6.92h1.986s-3.937 3.76-8.728 3.84c-4.791.081-9.301-6.519-14.046-4.299-4.746 2.22-7.358-1.185-7.358-1.185z" fill="#1A2E35"/><path d="M101.748 224.43s0 .009-.009.029a27.45 27.45 0 0 1-1.248 3.052c-3.86 7.863-14.957 9.389-19.872 1.613-.02-.029-.039-.048-.058-.077-2.534-4.502-.509-9.417-.509-9.417l1.479-4.791 1.075-1.065s.25 4.867 1.008 6.24c.758 1.373 5.078 1.776 5.962 2.016.873.24 2.976 2.736 4.012 3.408 1.028.672 4.839.115 5.29.672.451.557 2.87-1.68 2.87-1.68z" fill="#000" opacity=".4"/><path d="m58.586 301.71 19.906 22.073s22.01-.49 48.734 12.572c0 0 28.677-11.846 31.312-21.686 2.634-9.839-60.2-2.88-60.2-2.88L58.586 301.71z" fill="#000" opacity=".2"/><path d="m64.212 295.23 31.92 10.44s11.4-2.52 13.44-2.52c2.04 0 9.915 6.404 5.459 8.64-4.456 2.235-16.619 2.52-17.939 1.8-1.32-.72-36.72-9.004-36.72-9.004l3.84-9.356z" fill="#FDB473"/><path d="M54.747 234.866c7.223-1.401-5.308 42.604-2.24 49.084 3.065 6.48 15.065 10.576 15.065 10.576l-5.52 12.184s-16.32-3.08-25.2-14.36c-8.88-11.28 6.109-55.197 17.895-57.484z" fill="#1A2E35"/><path d="M54.747 234.866c7.223-1.401-5.308 42.604-2.24 49.084 3.065 6.48 15.065 10.576 15.065 10.576l-5.52 12.184s-16.32-3.08-25.2-14.36c-8.88-11.28 6.109-55.197 17.895-57.484z" fill="#000" opacity=".2"/><path d="m67.572 293.55-6.72 13.16 5.76 1.239 5.28-12.12-4.32-2.279z" fill="#1A2E35"/><path d="m67.572 293.55-6.72 13.16 5.76 1.239 5.28-12.12-4.32-2.279z" fill="#fff" opacity=".2"/><path d="M80.772 311.789v2.093c0 1.411 1.174 2.707 2.595 2.707h77.174c1.421 0 2.791-1.296 2.791-2.707v-2.093h-82.56z" fill="#1A2E35"/><path d="M80.772 311.789v2.093c0 1.411 1.174 2.707 2.595 2.707h77.174c1.421 0 2.791-1.296 2.791-2.707v-2.093h-82.56z" fill="#fff" opacity=".2"/><path d="M109.572 311.789v2.093c0 1.411 1.194 2.707 2.605 2.707h48.364c1.421 0 2.791-1.296 2.791-2.707v-2.093h-53.76z" fill="#fff" opacity=".2"/><path d="M112.177 314.669h50.985c1.565 0 3.226-1.228 3.706-2.736l11.692-36.676c.48-1.507-.393-2.827-1.958-2.827h-50.985c-1.565 0-3.226 1.32-3.706 2.827l-11.693 36.63c-.48 1.509.394 2.782 1.959 2.782z" fill="#1A2E35"/><path d="M112.177 314.669h50.985c1.565 0 3.226-1.228 3.706-2.736l11.692-36.676c.48-1.507-.393-2.827-1.958-2.827h-50.985c-1.565 0-3.226 1.32-3.706 2.827l-11.693 36.63c-.48 1.509.394 2.782 1.959 2.782z" fill="#fff" opacity=".2"/><path d="M114.097 314.669h49.065c1.565 0 3.226-1.228 3.706-2.736l11.692-36.676c.48-1.507-.393-2.827-1.958-2.827h-49.065c-1.565 0-3.226 1.32-3.706 2.827l-11.693 36.63c-.48 1.509.394 2.782 1.959 2.782z" fill="#fff" opacity=".2"/><path d="m149.24 289.527-7.059 4.999 3.052 5 7.059-5-3.052-4.999z" fill="#fff" opacity=".2"/><path d="M195.544 111.532H141.45a7.033 7.033 0 0 1-7.033-7.033V50.405a7.033 7.033 0 0 1 7.033-7.033h54.094a7.034 7.034 0 0 1 7.033 7.033V104.5a7.031 7.031 0 0 1-7.033 7.033" fill="#007CFF"/><path d="M160.775 73.106a5.582 5.582 0 1 1 0-11.164 5.582 5.582 0 0 1 0 11.164m12.973-3.52v-4.122l-2.122-.2a11.025 11.025 0 0 0-1.584-3.808l1.364-1.648-2.916-2.914-1.646 1.363a11.03 11.03 0 0 0-3.809-1.583l-.199-2.122h-4.122l-.2 2.122a11 11 0 0 0-3.808 1.583l-1.647-1.363-2.915 2.915 1.363 1.647a11.004 11.004 0 0 0-1.583 3.807l-2.123.2v4.123l2.123.2a11.018 11.018 0 0 0 1.583 3.808l-1.363 1.647 2.915 2.915 1.647-1.364a11 11 0 0 0 3.808 1.583l.2 2.122h4.122l.199-2.122a11.009 11.009 0 0 0 3.809-1.583l1.646 1.364 2.916-2.916-1.364-1.646c.763-1.158 1.3-2.45 1.584-3.808l2.122-.2z" fill="url(#f)"/><path d="M180.29 83.981a4.374 4.374 0 1 1 0-8.747 4.374 4.374 0 0 1 0 8.747m10.167-2.758-.001-3.23-1.663-.157a8.643 8.643 0 0 0-1.24-2.983l1.068-1.291-2.285-2.284-1.29 1.068a8.636 8.636 0 0 0-2.983-1.24l-.157-1.664h-3.231l-.157 1.664a8.636 8.636 0 0 0-2.983 1.24l-1.291-1.068-2.284 2.283 1.068 1.292a8.624 8.624 0 0 0-1.24 2.983l-1.664.157.001 3.23 1.663.157a8.649 8.649 0 0 0 1.24 2.984l-1.068 1.29 2.284 2.284 1.291-1.068a8.614 8.614 0 0 0 2.983 1.241l.157 1.663h3.231l.157-1.663a8.622 8.622 0 0 0 2.983-1.241l1.29 1.068 2.285-2.283-1.068-1.29a8.649 8.649 0 0 0 1.24-2.985l1.664-.157z" fill="url(#g)"/><path d="M165.209 92.71a3.671 3.671 0 0 1-2.597-6.27 3.671 3.671 0 0 1 6.27 2.598 3.673 3.673 0 0 1-3.673 3.672zm8.539-2.316v-2.713l-1.398-.131a7.24 7.24 0 0 0-1.041-2.507l.897-1.084-1.919-1.919-1.084.898a7.237 7.237 0 0 0-2.506-1.042l-.132-1.398h-2.713l-.131 1.398a7.25 7.25 0 0 0-2.507 1.042l-1.084-.898-1.919 1.92.898 1.083a7.261 7.261 0 0 0-1.042 2.507l-1.397.131.001 2.713 1.396.132c.187.893.54 1.744 1.042 2.506l-.898 1.084 1.919 1.918 1.084-.897a7.246 7.246 0 0 0 2.507 1.042l.131 1.397h2.713l.132-1.397a7.233 7.233 0 0 0 2.506-1.042l1.084.897 1.919-1.918-.897-1.084a7.24 7.24 0 0 0 1.041-2.506l1.398-.132z" fill="url(#h)"/><path d="M309.768 190.242h-50.006a6.495 6.495 0 0 1-6.501-6.501v-50.007a6.503 6.503 0 0 1 6.501-6.501h50.006a6.502 6.502 0 0 1 6.501 6.501v50.007a6.5 6.5 0 0 1-6.501 6.501" fill="#007CFF"/><path d="M287.167 168.855a2.275 2.275 0 1 1-4.55.091 2.275 2.275 0 0 1 4.55-.091" fill="url(#i)"/><path d="M284.701 146.161c-12.477 0-22.589 10.109-22.589 22.589h18.04c0-2.88 2.036-4.454 4.549-4.454.476 0 .926.134 1.357.262l8.458-9.819-5.973 11.615c.441.699.706 1.436.706 2.396h18.04c0-12.48-10.113-22.589-22.588-22.589z" fill="url(#j)"/><path d="M346.237 120.621h-43.875a5.705 5.705 0 0 1-5.705-5.704V71.041a5.704 5.704 0 0 1 5.705-5.704h43.875a5.705 5.705 0 0 1 5.705 5.704v43.876a5.705 5.705 0 0 1-5.705 5.704" fill="#007CFF"/><path d="M334.941 83.377a1.559 1.559 0 0 1-1.557-1.557 1.561 1.561 0 0 1 .961-1.439 1.559 1.559 0 0 1 2.153 1.44 1.557 1.557 0 0 1-1.557 1.556m-4.153-.778h-1.557v-1.557h1.557v1.557zm8.944-3.231a1.82 1.82 0 0 0-1.818-1.817h-27.086a1.814 1.814 0 0 0-1.816 1.817v5.966c0 1.004.813 1.817 1.816 1.817h27.086a1.817 1.817 0 0 0 1.818-1.817v-5.966z" fill="url(#k)"/><path d="M334.941 94.537a1.56 1.56 0 0 1-1.438-.96 1.544 1.544 0 0 1 0-1.193 1.56 1.56 0 0 1 1.438-.96 1.557 1.557 0 1 1 0 3.113m-4.153-.778h-1.557v-1.557h1.557v1.557zm8.944-3.832a1.817 1.817 0 0 0-1.818-1.817h-27.086a1.81 1.81 0 0 0-1.285.533 1.821 1.821 0 0 0-.531 1.284v5.967c0 1.003.813 1.816 1.816 1.816h27.086a1.817 1.817 0 0 0 1.818-1.816v-5.967z" fill="url(#l)"/><path d="M334.941 105.697a1.564 1.564 0 0 1-1.101-.456 1.553 1.553 0 0 1-.337-1.697 1.564 1.564 0 0 1 .842-.842 1.557 1.557 0 1 1 .596 2.995m-4.153-.778h-1.557v-1.557h1.557v1.557zm8.944-4.433a1.82 1.82 0 0 0-1.818-1.816h-27.086a1.814 1.814 0 0 0-1.816 1.816v5.967c0 1.003.813 1.817 1.816 1.817h27.086a1.818 1.818 0 0 0 1.818-1.817v-5.967z" fill="url(#m)"/><path d="M233.57 184.654h-54.094a7.033 7.033 0 0 1-7.033-7.033v-54.094a7.033 7.033 0 0 1 7.033-7.033h54.094a7.033 7.033 0 0 1 7.033 7.033v54.094a7.033 7.033 0 0 1-7.033 7.033" fill="#007CFF"/><path d="M187.666 169.288a5.333 5.333 0 0 1-1.56-3.767 5.338 5.338 0 0 1 1.56-3.766l12.431-12.431a3 3 0 0 1 2.125-.88 3.006 3.006 0 0 1 2.125.88l3.282 3.283a3.003 3.003 0 0 1 0 4.25l-12.431 12.431a5.309 5.309 0 0 1-1.728 1.154 5.316 5.316 0 0 1-4.076 0 5.33 5.33 0 0 1-1.728-1.154" fill="url(#n)"/><path d="m210.57 148.827-2.444-2.443 14.047-14.046 3.055-.612-.612 3.054-14.046 14.047z" fill="url(#o)"/><path d="m209.195 152.085-4.326-4.325a.99.99 0 1 1 1.4-1.4l4.326 4.326a.992.992 0 0 1-.321 1.614.989.989 0 0 1-1.079-.215" fill="url(#p)"/><path d="m203.372 143.801-5.926-5.941c1.109-2.966-1.125-6.615-3.554-7.579l-.049 4.573a1.958 1.958 0 0 1-1.944 1.939c-1.06-.001-1.941-.841-1.939-1.901l.006-4.531c-1.921.745-3.939 2.931-3.943 5.523-.003 2.941 2.283 5.327 5.126 5.727a5.084 5.084 0 0 0 2.86-.401l5.968 5.985 3.395-3.394z" fill="url(#q)"/><path d="m223.091 166.334-.009 4.534c1.921-.746 3.937-2.931 3.941-5.523.004-2.941-2.155-5.454-4.998-5.852-.988-.14-1.795-.145-2.733.273l-6.204-6.221-3.395 3.394 6.16 6.177c-1.788 3.645.999 6.743 3.429 7.707l-.015-4.511a1.89 1.89 0 0 1 .559-1.351 1.886 1.886 0 0 1 1.353-.555 1.93 1.93 0 0 1 1.355.568c.177.179.318.391.414.624.095.234.144.483.143.736" fill="url(#r)"/><g filter="url(#s)"><path d="M219.244 104.157h65.204a8.478 8.478 0 0 0 8.477-8.476V30.477A8.476 8.476 0 0 0 284.448 22h-65.204a8.478 8.478 0 0 0-8.476 8.477V95.68a8.48 8.48 0 0 0 2.482 5.994 8.48 8.48 0 0 0 5.994 2.482" fill="#007CFF"/></g><path d="M251.186 71.085a1.75 1.75 0 0 1-1.383.705h-.018c-.549 0-1.063-.288-1.386-.732l-8.824-12.159a1.744 1.744 0 0 1 .385-2.428 1.732 1.732 0 0 1 2.424.383l7.449 10.255 12.184-16.072a1.747 1.747 0 0 1 1.146-.672 1.74 1.74 0 0 1 1.286.337c.763.58.913 1.772.334 2.536l-13.597 17.847zm.643-33.464-25.169 9.874s3.183 34.56 25.169 41.04c21.986-6.48 25.167-41.04 25.167-41.04l-25.167-9.874z" fill="url(#t)"/><path d="M367.863 291.107h-81.838V235.88h81.838v55.227z" fill="#007CFF"/><path d="M367.863 291.107h-81.838V235.88h81.838v55.227z" fill="#fff" opacity=".7"/><path d="M366.138 289.269h-78.592v-49.13h78.592v49.13z" fill="#1A2E35"/><path d="M355.762 249.189h-64.616v-1.44h64.616v1.44zm-9.605 4.08h-55.011v-1.44h55.011v1.44zm9.605 4.08h-64.616v-1.44h64.616v1.44zm-9.605 4.08h-55.011v-1.44h55.011v1.44zm-48.031 4.08h-6.981v-1.44h6.981v1.44zm28.818 4.08h-35.798v-1.44h35.798v1.44zm19.213 4.08h-55.011v-1.44h55.011v1.44zm-48.031 4.08h-6.981v-1.44h6.981v1.44zm0 4.08h-6.981v-1.44h6.981v1.44z" fill="#E1E1E1"/><path d="M131.873 176.204H50.035v-55.227h81.838v55.227z" fill="#007CFF"/><path d="M131.873 176.204H50.035v-55.227h81.838v55.227z" fill="#fff" opacity=".7"/><path d="M130.148 174.365H51.555v-49.13h78.593v49.13z" fill="#1A2E35"/><path d="M119.772 134.285H55.156v-1.44h64.616v1.44zm-9.606 4.08h-55.01v-1.44h55.01v1.44zm9.606 4.08H55.156v-1.44h64.616v1.44zm-9.606 4.08h-55.01v-1.44h55.01v1.44zm-48.03 4.08h-6.981v-1.44h6.98v1.44zm28.818 4.08h-35.8v-1.44h35.8v1.44zm19.212 4.08h-55.01v-1.44h55.01v1.44zm-48.03 4.08h-6.981v-1.44h6.98v1.44zm0 4.08h-6.981v-1.44h6.98v1.44z" fill="#E1E1E1"/><defs><linearGradient id="a" x1="617.61" y1="347.811" x2="195.035" y2="28.048" gradientUnits="userSpaceOnUse"><stop stop-color="#A0B8FF"/><stop offset="1" stop-color="#F3FEFF"/></linearGradient><linearGradient id="b" x1="253.935" y1="359.127" x2="110.977" y2="532.285" gradientUnits="userSpaceOnUse"><stop stop-color="#A0B8FF"/><stop offset="1" stop-color="#F3FEFF"/></linearGradient><linearGradient id="c" x1="279.94" y1="120.924" x2="3.432" y2="148.343" gradientUnits="userSpaceOnUse"><stop stop-color="#007CFF"/><stop offset="1" stop-color="#DFB5EB"/></linearGradient><linearGradient id="e" x1="218.261" y1="220.357" x2="167.608" y2="262.869" gradientUnits="userSpaceOnUse"><stop stop-color="#A0B8FF"/><stop offset="1" stop-color="#F3FEFF"/></linearGradient><linearGradient id="f" x1="193.612" y1="80.987" x2="158.21" y2="58.358" gradientUnits="userSpaceOnUse"><stop stop-color="#A0B8FF"/><stop offset="1" stop-color="#F3FEFF"/></linearGradient><linearGradient id="g" x1="206.023" y1="90.157" x2="178.281" y2="72.424" gradientUnits="userSpaceOnUse"><stop stop-color="#A0B8FF"/><stop offset="1" stop-color="#F3FEFF"/></linearGradient><linearGradient id="h" x1="186.823" y1="97.898" x2="163.521" y2="83.003" gradientUnits="userSpaceOnUse"><stop stop-color="#A0B8FF"/><stop offset="1" stop-color="#F3FEFF"/></linearGradient><linearGradient id="i" x1="290.651" y1="171.262" x2="284.442" y2="167.294" gradientUnits="userSpaceOnUse"><stop stop-color="#A0B8FF"/><stop offset="1" stop-color="#F3FEFF"/></linearGradient><linearGradient id="j" x1="341.876" y1="169.176" x2="308.915" y2="127.04" gradientUnits="userSpaceOnUse"><stop stop-color="#A0B8FF"/><stop offset="1" stop-color="#F3FEFF"/></linearGradient><linearGradient id="k" x1="363.25" y1="87.332" x2="351.86" y2="64.036" gradientUnits="userSpaceOnUse"><stop stop-color="#A0B8FF"/><stop offset="1" stop-color="#F3FEFF"/></linearGradient><linearGradient id="l" x1="363.25" y1="97.891" x2="351.86" y2="74.595" gradientUnits="userSpaceOnUse"><stop stop-color="#A0B8FF"/><stop offset="1" stop-color="#F3FEFF"/></linearGradient><linearGradient id="m" x1="363.25" y1="108.451" x2="351.86" y2="85.155" gradientUnits="userSpaceOnUse"><stop stop-color="#A0B8FF"/><stop offset="1" stop-color="#F3FEFF"/></linearGradient><linearGradient id="n" x1="225.661" y1="171.27" x2="195.093" y2="151.732" gradientUnits="userSpaceOnUse"><stop stop-color="#A0B8FF"/><stop offset="1" stop-color="#F3FEFF"/></linearGradient><linearGradient id="o" x1="238.32" y1="149.149" x2="214.986" y2="134.235" gradientUnits="userSpaceOnUse"><stop stop-color="#A0B8FF"/><stop offset="1" stop-color="#F3FEFF"/></linearGradient><linearGradient id="p" x1="215.712" y1="152.494" x2="207.109" y2="146.995" gradientUnits="userSpaceOnUse"><stop stop-color="#A0B8FF"/><stop offset="1" stop-color="#F3FEFF"/></linearGradient><linearGradient id="q" x1="216.653" y1="147.514" x2="193.334" y2="132.227" gradientUnits="userSpaceOnUse"><stop stop-color="#A0B8FF"/><stop offset="1" stop-color="#F3FEFF"/></linearGradient><linearGradient id="r" x1="240.29" y1="171.194" x2="216.65" y2="156.078" gradientUnits="userSpaceOnUse"><stop stop-color="#A0B8FF"/><stop offset="1" stop-color="#F3FEFF"/></linearGradient><linearGradient id="t" x1="315.531" y1="89.495" x2="246.398" y2="45.81" gradientUnits="userSpaceOnUse"><stop stop-color="#A0B8FF"/><stop offset="1" stop-color="#F3FEFF"/></linearGradient><filter id="d" x="79.652" y="10.99" width="334.719" height="250.239" filterUnits="userSpaceOnUse" color-interpolation-filters="sRGB"><feFlood flood-opacity="0" result="BackgroundImageFix"/><feGaussianBlur in="BackgroundImage" stdDeviation="10"/><feComposite in2="SourceAlpha" operator="in" result="effect1_backgroundBlur_29_801"/><feBlend in="SourceGraphic" in2="effect1_backgroundBlur_29_801" result="shape"/></filter><filter id="s" x="190.768" y="2" width="122.157" height="122.157" filterUnits="userSpaceOnUse" color-interpolation-filters="sRGB"><feFlood flood-opacity="0" result="BackgroundImageFix"/><feGaussianBlur in="BackgroundImage" stdDeviation="10"/><feComposite in2="SourceAlpha" operator="in" result="effect1_backgroundBlur_29_801"/><feBlend in="SourceGraphic" in2="effect1_backgroundBlur_29_801" result="shape"/></filter></defs></svg>