<svg width="24" height="24" viewBox="0 0 24 24" fill="none" xmlns="http://www.w3.org/2000/svg">
<g clip-path="url(#clip0_29_1182)">
<path d="M23 15H22.333C22.083 15 21.835 15.019 21.588 15.057L14.542 9.77299L16.23 8.15699C16.629 7.77499 16.643 7.14099 16.261 6.74299C15.878 6.34399 15.244 6.33099 14.847 6.71199L10.674 10.707C10.466 10.915 10.183 11.022 9.88602 10.997C9.58802 10.973 9.32603 10.822 9.14703 10.572C8.87303 10.192 8.95702 9.59699 9.31502 9.23799L14.018 4.80899C14.909 3.97199 16.302 3.76699 17.392 4.31399L19.708 5.47199C20.398 5.81699 21.172 5.99899 21.943 5.99899H22.999C23.552 5.99899 23.999 5.55199 23.999 4.99899C23.999 4.44599 23.552 3.99899 22.999 3.99899H21.943C21.48 3.99899 21.015 3.88999 20.601 3.68299L18.287 2.52499C16.463 1.61199 14.134 1.95099 12.646 3.35299L12.028 3.93499L11.328 3.29699C10.409 2.45999 9.21902 1.99899 7.93802 1.99899C7.16702 1.99899 6.39802 2.18099 5.71102 2.52399L3.39702 3.68199C2.98202 3.88899 2.51702 3.99799 2.05402 3.99799H1.00002C0.447024 3.99799 2.34377e-05 4.44499 2.34377e-05 4.99799C2.34377e-05 5.55099 0.447024 5.99799 1.00002 5.99799H2.05602C2.82702 5.99799 3.60102 5.81499 4.29202 5.47099L6.60802 4.31299C7.63002 3.79899 9.06603 3.93799 9.98203 4.77499L10.569 5.30999L7.92302 7.80199C6.85002 8.87399 6.67902 10.569 7.52502 11.74C8.04502 12.463 9.07802 12.999 9.96902 12.999C10.762 12.999 11.523 12.687 12.073 12.136L13.079 11.173L19.425 15.932C19.394 15.954 13.227 20.578 13.227 20.578C12.504 21.14 11.495 21.14 10.757 20.567L4.66602 15.999C3.80702 15.354 2.74102 14.999 1.66602 14.999H0.999024C0.446024 14.999 -0.000976562 15.446 -0.000976562 15.999C-0.000976562 16.552 0.446024 16.999 0.999024 16.999H1.66602C2.31102 16.999 2.95002 17.212 3.46602 17.599L9.54303 22.157C10.268 22.721 11.137 23.003 12.004 23.003C12.866 23.003 13.727 22.724 14.441 22.168L20.534 17.6C21.049 17.213 21.688 17 22.333 17H23C23.553 17 24 16.553 24 16C24 15.447 23.553 15 23 15Z" fill="#434343"/>
</g>
<defs>
<clipPath id="clip0_29_1182">
<rect width="24" height="24" fill="white"/>
</clipPath>
</defs>
</svg>
