<svg width="154" height="28" viewBox="0 0 154 28" fill="none" xmlns="http://www.w3.org/2000/svg">
<g filter="url(#filter0_b_2_229)">
<g clip-path="url(#clip0_2_229)">
<path d="M49.6653 13.5128H45.6387V20.433C45.6387 21.2091 45.9617 21.705 46.5862 21.9205C47.2106 22.1361 48.2442 22.2008 49.6653 22.1146V27.4395C45.9402 27.8275 43.3562 27.4826 41.9351 26.3616C40.5139 25.2405 39.7818 23.2787 39.7818 20.433V13.5128H36.6595V7.88604H39.7818V4.178L45.6387 2.41022V7.88604H49.6653V13.5128V13.5128Z" fill="#203C87"/>
<path d="M66.7624 7.88607H72.6193V27.4395H66.7624V25.607C65.3843 27.2024 63.4464 28 60.9486 28C58.3646 28 56.1683 27.0083 54.3595 25.0034C52.5508 22.9985 51.6249 20.5624 51.6249 17.6736C51.6249 14.7847 52.5293 12.3486 54.3595 10.3437C56.1898 8.33879 58.3862 7.34711 60.9486 7.34711C63.4464 7.34711 65.3843 8.14477 66.7624 9.74009V7.88607ZM58.7522 21.1445C59.6135 22.0068 60.7332 22.438 62.1113 22.438C63.4894 22.438 64.6092 22.0068 65.4705 21.1445C66.3318 20.2821 66.7624 19.118 66.7624 17.6736C66.7624 16.2292 66.3318 15.065 65.4705 14.2027C64.6092 13.3403 63.4894 12.9092 62.1113 12.9092C60.7332 12.9092 59.6135 13.3403 58.7522 14.2027C57.8909 15.065 57.4603 16.2292 57.4603 17.6736C57.4603 19.118 57.9125 20.2821 58.7522 21.1445V21.1445Z" fill="#203C87"/>
<path d="M88.3598 13.5128H84.3332V20.433C84.3332 21.2091 84.6562 21.705 85.2806 21.9205C85.9051 22.1361 86.9386 22.2008 88.3598 22.1146V27.4395C84.6346 27.8275 82.0507 27.4826 80.6295 26.3616C79.2084 25.2405 78.4763 23.2787 78.4763 20.433V13.5128H75.354V7.88604H78.4763V4.178L84.3332 2.41022V7.88604H88.3598V13.5128V13.5128Z" fill="#203C87"/>
<path d="M96.5207 20.0018C97.1882 21.8343 98.7601 22.7398 101.215 22.7398C102.808 22.7398 104.057 22.2439 104.962 21.2522L109.656 23.947C107.739 26.6418 104.897 27.9784 101.15 27.9784C97.8773 27.9784 95.2503 27.0083 93.2908 25.0465C91.3313 23.0847 90.3408 20.627 90.3408 17.652C90.3408 14.6769 91.3098 12.2624 93.2477 10.279C95.1857 8.29566 97.6835 7.32553 100.72 7.32553C103.562 7.32553 105.909 8.31722 107.804 10.279C109.699 12.2408 110.625 14.6985 110.625 17.652C110.626 18.4413 110.547 19.2287 110.388 20.0018H96.5207ZM96.3915 15.6255H104.789C104.208 13.5775 102.83 12.5427 100.655 12.5427C98.3941 12.5427 96.9729 13.5775 96.3915 15.6255V15.6255Z" fill="#203C87"/>
<path d="M123.092 27.9784C120.121 27.9784 117.666 26.9868 115.685 25.0034C113.704 23.02 112.735 20.5839 112.735 17.652C112.735 14.72 113.725 12.2839 115.685 10.3006C117.644 8.31721 120.121 7.32553 123.092 7.32553C124.905 7.30955 126.689 7.77842 128.26 8.6837C129.785 9.54635 131.05 10.805 131.921 12.3271L126.817 15.3237C126.107 13.8577 124.858 13.1247 123.028 13.1247C122.441 13.1098 121.858 13.2149 121.314 13.4336C120.769 13.6523 120.276 13.98 119.862 14.3967C119.022 15.2374 118.613 16.3369 118.613 17.652C118.613 18.967 119.022 20.0665 119.862 20.9073C120.276 21.3239 120.769 21.6517 121.314 21.8704C121.858 22.0891 122.441 22.1942 123.028 22.1792C124.879 22.1792 126.128 21.4463 126.817 19.9803L131.942 22.9122C131.087 24.4441 129.828 25.7118 128.303 26.5771C126.73 27.5208 124.926 28.0061 123.092 27.9784V27.9784Z" fill="#203C87"/>
<path d="M145.702 7.34708C147.79 7.34708 149.513 8.05851 150.912 9.50292C152.312 10.9473 153.001 12.9091 153.001 15.453V27.461H147.144V16.3154C147.144 15.1728 146.821 14.2889 146.197 13.6852C145.54 13.0671 144.665 12.7339 143.764 12.7582C142.644 12.7582 141.761 13.1032 141.115 13.7715C140.469 14.4398 140.146 15.453 140.146 16.7896V27.461H134.289V0.0819092H140.146V9.74006C141.287 8.14474 143.161 7.34708 145.702 7.34708Z" fill="#203C87"/>
<path d="M17.2607 0.103485H9.29355L0 27.4826H2.30616C3.6197 27.4832 4.89943 27.0658 5.96066 26.2908C7.02189 25.5159 7.80973 24.4233 8.21045 23.1709V23.1709L13.2965 7.27164L18.7228 23.1709C19.1514 24.4305 19.9635 25.5238 21.045 26.2972C22.1265 27.0706 23.4229 27.4852 24.7519 27.4826H26.5994L17.2607 0.103485Z" fill="#203C87"/>
<path d="M34.5558 21.4678C35.0453 21.899 35.8299 22.0858 36.9094 22.0283V27.5925C33.8732 27.7722 31.6346 27.1923 30.1933 25.8528C28.752 24.5133 28.0343 22.3366 28.04 19.3228V0H33.8302V19.3228C33.8244 20.3274 34.0663 21.0424 34.5558 21.4678Z" fill="#203C87"/>
</g>
</g>
<defs>
<filter id="filter0_b_2_229" x="-20" y="-20" width="193.001" height="68" filterUnits="userSpaceOnUse" color-interpolation-filters="sRGB">
<feFlood flood-opacity="0" result="BackgroundImageFix"/>
<feGaussianBlur in="BackgroundImage" stdDeviation="10"/>
<feComposite in2="SourceAlpha" operator="in" result="effect1_backgroundBlur_2_229"/>
<feBlend mode="normal" in="SourceGraphic" in2="effect1_backgroundBlur_2_229" result="shape"/>
</filter>
<clipPath id="clip0_2_229">
<rect width="153.001" height="28" fill="white"/>
</clipPath>
</defs>
</svg>
