<svg xmlns="http://www.w3.org/2000/svg" width="549" height="410" fill="none" viewBox="0 0 549 410">
  <g filter="url(#a)">
    <path fill="url(#b)" d="M190.721 115.797c-.173-20.783-17.068-37.578-37.892-37.578-5.017 0-9.803.984-14.187 2.755-7.441-15.225-23.076-25.713-41.164-25.713-21.874 0-40.154 15.34-44.701 35.846-20.572 1.323-36.85 18.419-36.85 39.326 0 21.769 17.647 39.417 39.417 39.417h125.428c15.432 0 27.941-12.511 27.941-27.943 0-11.925-7.475-22.1-17.992-26.11Z"/>
  </g>
  <g filter="url(#c)">
    <path fill="url(#d)" d="M511.906 297.723c-.174-20.783-17.069-37.578-37.892-37.578-5.017 0-9.802.984-14.186 2.755-7.442-15.224-23.076-25.713-41.164-25.713-21.875 0-40.156 15.34-44.702 35.846-20.572 1.323-36.85 18.419-36.85 39.326 0 21.769 17.648 39.417 39.417 39.417h125.427c15.432 0 27.942-12.511 27.942-27.943 0-11.925-7.474-22.1-17.992-26.11Z"/>
  </g>
  <path fill="#E1E1E1" d="M391.799 174.858c-.091-10.778-8.853-19.49-19.653-19.49-2.603 0-5.086.51-7.359 1.429-3.86-7.897-11.968-13.337-21.349-13.337-11.347 0-20.828 7.957-23.187 18.593-10.669.685-19.113 9.553-19.113 20.397 0 11.291 9.153 20.444 20.445 20.444h65.055c8.004 0 14.493-6.489 14.493-14.493 0-6.185-3.877-11.463-9.332-13.543Z"/>
  <g filter="url(#e)">
    <path fill="url(#f)" d="M483.54 57.481c-.12-14.24-11.696-25.749-25.965-25.749-3.438 0-6.716.675-9.72 1.888C442.756 23.188 432.043 16 419.648 16c-14.989 0-27.515 10.512-30.629 24.564-14.098.907-25.252 12.62-25.252 26.947 0 14.916 12.093 27.009 27.009 27.009h85.945c10.575 0 19.147-8.572 19.147-19.147 0-8.172-5.121-15.144-12.328-17.892Z"/>
  </g>
  <path fill="#F5F5F5" d="M207.968 286.008c-.119-14.24-11.696-25.75-25.964-25.75-3.439 0-6.718.675-9.722 1.888-5.098-10.432-15.812-17.62-28.205-17.62-14.989 0-27.516 10.512-30.631 24.564-14.096.907-25.252 12.62-25.252 26.947 0 14.916 12.094 27.009 27.011 27.009h85.945c10.574 0 19.147-8.572 19.147-19.146 0-8.172-5.123-15.144-12.329-17.892Z"/>
  <path fill="#E1E1E1" d="M107.852 152.459a.68.68 0 0 1-.468-.2.57.57 0 0 1-.146-.213.58.58 0 0 1-.053-.254c0-.093.013-.173.053-.266a.573.573 0 0 1 .146-.214.7.7 0 0 1 .72-.146c.081.04.161.093.214.146.134.134.2.294.2.48 0 .08-.014.174-.053.254a.584.584 0 0 1-.147.213c-.12.12-.293.2-.466.2Zm-.667 6.68c0-.373.305-.667.667-.667a.66.66 0 0 1 .666.667.67.67 0 0 1-.666.667.677.677 0 0 1-.667-.667Zm0 7.347a.667.667 0 0 1 1.333 0c0 .36-.294.666-.666.666a.676.676 0 0 1-.667-.666Zm0 7.346a.667.667 0 0 1 1.333 0 .67.67 0 0 1-.666.667.677.677 0 0 1-.667-.667Zm0 7.347c0-.373.305-.667.667-.667a.66.66 0 0 1 .666.667.66.66 0 0 1-.666.667.668.668 0 0 1-.667-.667Zm.667 8.013a.574.574 0 0 1-.254-.053.475.475 0 0 1-.214-.147.478.478 0 0 1-.146-.213.54.54 0 0 1-.053-.253.58.58 0 0 1 .053-.254c.027-.08.08-.16.146-.213.053-.067.134-.107.214-.147a.671.671 0 0 1 .506 0c.081.04.161.08.214.147a.488.488 0 0 1 .147.213c.039.08.053.174.053.254a.622.622 0 0 1-.2.466.47.47 0 0 1-.214.147.536.536 0 0 1-.252.053Zm7.479-.666c0-.36.307-.667.667-.667.373 0 .666.307.666.667a.66.66 0 0 1-.666.666.669.669 0 0 1-.667-.666Zm8.147 0c0-.36.308-.667.666-.667.375 0 .667.307.667.667a.66.66 0 0 1-.667.666.669.669 0 0 1-.666-.666Zm8.148 0c0-.36.305-.667.666-.667a.67.67 0 0 1 .667.667.667.667 0 0 1-1.333 0Zm8.16 0c0-.36.293-.667.666-.667.359 0 .652.307.652.667a.66.66 0 1 1-1.318 0Zm8.132 0c0-.36.306-.667.666-.667a.68.68 0 0 1 .68.667.67.67 0 0 1-.68.666.668.668 0 0 1-.666-.666Zm8.161 0c0-.36.292-.667.667-.667.358 0 .666.307.666.667a.669.669 0 0 1-.666.666.66.66 0 0 1-.667-.666Zm8.145 0a.67.67 0 0 1 .667-.667c.36 0 .667.307.667.667a.669.669 0 0 1-.667.666.66.66 0 0 1-.667-.666Zm8.147 0c0-.36.293-.667.667-.667.361 0 .666.307.666.667a.667.667 0 0 1-1.333 0Zm8.148 0c0-.36.292-.667.667-.667a.67.67 0 0 1 .666.667.66.66 0 0 1-.666.666.66.66 0 0 1-.667-.666Zm8.145 0a.67.67 0 0 1 .667-.667.67.67 0 0 1 .667.667.66.66 0 0 1-.667.666.66.66 0 0 1-.667-.666Zm8.147 0c0-.36.308-.667.667-.667.374 0 .666.307.666.667a.659.659 0 0 1-.666.666.67.67 0 0 1-.667-.666Zm8.148 0c0-.36.305-.667.667-.667a.67.67 0 0 1 .666.667.667.667 0 0 1-1.333 0Zm8.16 0c0-.36.293-.667.667-.667.358 0 .666.307.666.667a.669.669 0 0 1-.666.666.66.66 0 0 1-.667-.666Zm8.145 0a.67.67 0 0 1 .667-.667c.361 0 .653.307.653.667a.66.66 0 1 1-1.32 0Zm8.148 0c0-.36.292-.667.654-.667.372 0 .68.307.68.667a.672.672 0 0 1-.68.666.656.656 0 0 1-.654-.666Zm8.812.666a.536.536 0 0 1-.252-.053.6.6 0 0 1-.361-.36.554.554 0 0 1-.054-.253c0-.08.015-.174.054-.254a.6.6 0 0 1 .361-.36.669.669 0 0 1 .505 0c.08.027.162.08.215.147a.806.806 0 0 1 .145.213c.027.08.054.174.054.254 0 .173-.08.346-.199.466a.478.478 0 0 1-.215.147.567.567 0 0 1-.253.053Zm-.667-72.133c0-.373.295-.667.667-.667.361 0 .667.294.667.667a.669.669 0 0 1-.667.667.662.662 0 0 1-.667-.667Zm0 7.947a.668.668 0 0 1 1.334 0c0 .36-.306.666-.667.666a.67.67 0 0 1-.667-.666Zm0 7.933a.67.67 0 0 1 .667-.667c.361 0 .667.307.667.667a.669.669 0 0 1-.667.667.662.662 0 0 1-.667-.667Zm0 7.947a.668.668 0 0 1 1.334 0c0 .36-.306.666-.667.666a.67.67 0 0 1-.667-.666Zm0 7.933a.67.67 0 0 1 .667-.667c.361 0 .667.307.667.667a.669.669 0 0 1-.667.667.662.662 0 0 1-.667-.667Zm0 7.947a.668.668 0 0 1 1.334 0 .668.668 0 0 1-1.334 0Zm0 7.933a.67.67 0 0 1 .667-.667c.361 0 .667.307.667.667a.669.669 0 0 1-.667.667.662.662 0 0 1-.667-.667Zm0 7.947a.668.668 0 0 1 1.334 0 .668.668 0 0 1-1.334 0Zm0 7.946a.668.668 0 0 1 1.334 0c0 .36-.306.667-.667.667a.67.67 0 0 1-.667-.667Zm.667-70.8a.765.765 0 0 1-.252-.053 1.228 1.228 0 0 1-.227-.147.743.743 0 0 1-.188-.466.743.743 0 0 1 .188-.48c.066-.054.146-.107.227-.147a.66.66 0 0 1 .505 0c.08.04.162.093.215.147a.74.74 0 0 1 .199.48.681.681 0 0 1-.667.666Zm7.32-.666c0-.374.294-.68.667-.68a.68.68 0 0 1 .667.68c0 .36-.306.666-.667.666a.669.669 0 0 1-.667-.666Zm7.974 0a.68.68 0 0 1 .666-.68c.374 0 .667.306.667.68 0 .36-.293.666-.667.666a.676.676 0 0 1-.666-.666Zm7.986 0c0-.374.294-.68.667-.68.373 0 .667.306.667.68 0 .36-.294.666-.667.666a.669.669 0 0 1-.667-.666Zm7.987 0c0-.374.295-.68.667-.68a.68.68 0 0 1 .666.68c0 .36-.306.666-.666.666a.67.67 0 0 1-.667-.666Zm7.987 0a.67.67 0 0 1 .666-.68.67.67 0 0 1 .654.68c0 .36-.294.666-.654.666a.668.668 0 0 1-.666-.666Zm7.974 0a.68.68 0 0 1 .667-.68c.372 0 .667.306.667.68a.67.67 0 0 1-.667.666.676.676 0 0 1-.667-.666Zm7.986 0c0-.374.294-.68.666-.68a.68.68 0 0 1 .667.68c0 .36-.307.666-.667.666a.668.668 0 0 1-.666-.666Zm7.986 0c0-.374.294-.68.667-.68a.68.68 0 0 1 .667.68c0 .36-.306.666-.667.666a.669.669 0 0 1-.667-.666Zm7.975 0c0-.374.305-.68.667-.68.372 0 .678.306.678.68 0 .36-.306.666-.678.666a.676.676 0 0 1-.667-.666Zm7.985 0a.68.68 0 0 1 .667-.68c.373 0 .667.306.667.68 0 .36-.294.666-.667.666a.677.677 0 0 1-.667-.666Zm7.987 0c0-.374.293-.68.667-.68a.67.67 0 0 1 .666.68.668.668 0 0 1-1.333 0Zm7.987 0a.67.67 0 0 1 .666-.68.68.68 0 0 1 .667.68c0 .36-.307.666-.667.666a.668.668 0 0 1-.666-.666Zm7.973 0c0-.374.307-.68.681-.68.359 0 .652.306.652.68 0 .36-.293.666-.652.666a.68.68 0 0 1-.681-.666Zm7.987 0a.68.68 0 0 1 .666-.68c.374 0 .667.306.667.68 0 .36-.293.666-.667.666a.678.678 0 0 1-.666-.666Zm7.986 0c0-.374.294-.68.667-.68a.68.68 0 0 1 .667.68c0 .36-.307.666-.667.666a.669.669 0 0 1-.667-.666Zm7.988 0a.67.67 0 0 1 .667-.68.68.68 0 0 1 .667.68c0 .36-.308.666-.667.666a.667.667 0 0 1-.667-.666Zm7.972 0a.68.68 0 0 1 .667-.68c.373 0 .667.306.667.68 0 .36-.294.666-.667.666a.678.678 0 0 1-.667-.666Zm7.987 0c0-.374.293-.68.667-.68a.67.67 0 0 1 .666.68.667.667 0 0 1-1.333 0Zm7.988 0a.67.67 0 0 1 .667-.68.68.68 0 0 1 .666.68c0 .36-.308.666-.666.666a.667.667 0 0 1-.667-.666Zm7.985 0c0-.374.294-.68.667-.68.36 0 .653.306.653.68 0 .36-.293.666-.653.666a.669.669 0 0 1-.667-.666Zm7.974 0a.68.68 0 0 1 .666-.68.67.67 0 0 1 .667.68c0 .36-.292.666-.667.666a.676.676 0 0 1-.666-.666Zm7.986 0c0-.374.294-.68.667-.68.373 0 .667.306.667.68 0 .36-.294.666-.667.666a.669.669 0 0 1-.667-.666Zm7.987 0c0-.374.293-.68.667-.68a.68.68 0 0 1 .666.68c0 .36-.306.666-.666.666a.668.668 0 0 1-.667-.666Zm8.653.666a.679.679 0 0 1-.478-.2.68.68 0 0 1-.188-.466c0-.174.066-.347.188-.48a1.11 1.11 0 0 1 .212-.147c.253-.093.561-.04.734.147a.89.89 0 0 1 .146.226c.026.08.04.16.04.254a.67.67 0 0 1-.186.466.683.683 0 0 1-.468.2Zm-.679-46.84c0-.36.306-.666.666-.666a.68.68 0 0 1 .68.666.671.671 0 0 1-.68.667.668.668 0 0 1-.666-.667Zm0 7.694c0-.36.306-.667.666-.667a.68.68 0 0 1 .68.667.671.671 0 0 1-.68.666.668.668 0 0 1-.666-.666Zm0 7.693c0-.36.306-.667.666-.667a.68.68 0 0 1 .68.667.671.671 0 0 1-.68.667.668.668 0 0 1-.666-.667Zm0 7.693c0-.36.306-.666.666-.666a.68.68 0 0 1 .68.666.671.671 0 0 1-.68.667.668.668 0 0 1-.666-.667Zm0 7.694c0-.36.306-.667.666-.667a.68.68 0 0 1 .68.667c0 .373-.306.68-.68.68a.68.68 0 0 1-.666-.68Zm0 7.693c0-.36.306-.653.666-.653.374 0 .68.293.68.653a.672.672 0 0 1-.68.667.669.669 0 0 1-.666-.667Zm.679-45.493a.659.659 0 0 1-.666-.667c0-.093.013-.173.04-.253a.87.87 0 0 1 .148-.214c.252-.253.705-.253.946 0a.67.67 0 0 1 .186.467.794.794 0 0 1-.04.253.815.815 0 0 1-.146.214.57.57 0 0 1-.214.146.575.575 0 0 1-.254.054ZM154.252 306.819a.671.671 0 0 1-.48-.187.655.655 0 0 1-.147-.226.771.771 0 0 1-.053-.254c0-.173.08-.346.2-.466a.7.7 0 0 1 .732-.147c.081.04.148.08.214.147a.67.67 0 0 1 .187.466.824.824 0 0 1-.04.254.92.92 0 0 1-.147.226.695.695 0 0 1-.214.134.569.569 0 0 1-.252.053Zm-.667 7.52a.66.66 0 1 1 1.32 0c0 .36-.294.667-.654.667a.669.669 0 0 1-.666-.667Zm0 8.173c0-.36.293-.666.666-.666a.667.667 0 0 1 0 1.333.669.669 0 0 1-.666-.667Zm0 8.174c0-.36.293-.667.666-.667.36 0 .654.307.654.667a.66.66 0 1 1-1.32 0Zm0 8.186a.66.66 0 1 1 1.32 0c0 .36-.294.667-.654.667a.669.669 0 0 1-.666-.667Zm.667 8.84a.628.628 0 0 1-.48-.2.601.601 0 0 1-.147-.213.77.77 0 0 1-.053-.253c0-.08.026-.174.053-.254.04-.08.08-.16.147-.213a.675.675 0 0 1 .732-.147.55.55 0 0 1 .214.147.835.835 0 0 1 .147.213.823.823 0 0 1 0 .507.835.835 0 0 1-.147.213.55.55 0 0 1-.214.147.569.569 0 0 1-.252.053Zm6.959-.666c0-.374.307-.667.667-.667a.66.66 0 0 1 .666.667.66.66 0 0 1-.666.666.669.669 0 0 1-.667-.666Zm7.64 0a.66.66 0 0 1 .667-.667.668.668 0 1 1-.667.667Zm7.627 0a.67.67 0 0 1 .666-.667.66.66 0 0 1 .667.667.66.66 0 0 1-.667.666.669.669 0 0 1-.666-.666Zm7.641 0a.66.66 0 0 1 .667-.667.67.67 0 0 1 .666.667.669.669 0 0 1-.666.666.66.66 0 0 1-.667-.666Zm7.625 0c0-.374.307-.667.68-.667.362 0 .654.293.654.667a.656.656 0 0 1-.654.666.671.671 0 0 1-.68-.666Zm7.64 0c0-.374.295-.667.667-.667.36 0 .667.293.667.667a.669.669 0 0 1-.667.666.66.66 0 0 1-.667-.666Zm7.64 0a.66.66 0 0 1 .667-.667c.36 0 .667.293.667.667a.669.669 0 0 1-.667.666.66.66 0 0 1-.667-.666Zm7.627 0a.67.67 0 0 1 .667-.667.66.66 0 0 1 .666.667.66.66 0 0 1-.666.666.67.67 0 0 1-.667-.666Zm7.641 0a.66.66 0 0 1 .667-.667.67.67 0 0 1 .667.667.67.67 0 0 1-.667.666.66.66 0 0 1-.667-.666Zm7.626 0c0-.374.306-.667.666-.667a.66.66 0 0 1 .667.667.668.668 0 0 1-1.333 0Zm8.306.666a.536.536 0 0 1-.252-.053.6.6 0 0 1-.361-.36.554.554 0 0 1-.054-.253c0-.174.068-.347.188-.467a.592.592 0 0 1 .227-.147.669.669 0 0 1 .505 0c.08.027.162.08.215.147.119.12.199.293.199.467 0 .08-.014.173-.054.253a.597.597 0 0 1-.145.213.478.478 0 0 1-.215.147.567.567 0 0 1-.253.053Zm-.667-109.346a.668.668 0 0 1 1.334 0 .668.668 0 0 1-1.334 0Zm0 7.76a.668.668 0 0 1 1.334 0 .668.668 0 0 1-1.334 0Zm0 7.76a.67.67 0 0 1 .667-.667c.361 0 .667.307.667.667a.668.668 0 0 1-1.334 0Zm0 7.773c0-.373.295-.667.667-.667.361 0 .667.294.667.667 0 .36-.306.667-.667.667a.67.67 0 0 1-.667-.667Zm0 7.76c0-.373.295-.667.667-.667.361 0 .667.294.667.667 0 .36-.306.667-.667.667a.67.67 0 0 1-.667-.667Zm0 7.76c0-.373.295-.667.667-.667.361 0 .667.294.667.667a.669.669 0 0 1-.667.667.662.662 0 0 1-.667-.667Zm0 7.76a.67.67 0 0 1 .667-.667c.361 0 .667.307.667.667a.669.669 0 0 1-.667.667.662.662 0 0 1-.667-.667Zm0 7.773a.668.668 0 0 1 1.334 0c0 .36-.306.667-.667.667a.67.67 0 0 1-.667-.667Zm0 7.76a.668.668 0 0 1 1.334 0c0 .36-.306.667-.667.667a.67.67 0 0 1-.667-.667Zm0 7.76a.668.668 0 0 1 1.334 0c0 .36-.306.667-.667.667a.67.67 0 0 1-.667-.667Zm0 7.76a.67.67 0 0 1 .667-.666c.361 0 .667.306.667.666a.668.668 0 0 1-1.334 0Zm0 7.76a.67.67 0 0 1 .667-.666c.361 0 .667.306.667.666a.668.668 0 0 1-1.334 0Zm0 7.774c0-.374.295-.68.667-.68a.68.68 0 0 1 .667.68c0 .36-.306.666-.667.666a.67.67 0 0 1-.667-.666Zm0 7.76a.668.668 0 0 1 1.334 0c0 .36-.306.666-.667.666a.67.67 0 0 1-.667-.666Zm.667-108.014a.765.765 0 0 1-.252-.053.797.797 0 0 1-.227-.147.743.743 0 0 1-.188-.466c0-.187.068-.347.188-.48a.756.756 0 0 1 .227-.134.669.669 0 0 1 .505 0c.08.027.162.08.215.134a.74.74 0 0 1 .199.48c0 .08-.014.173-.054.253a.738.738 0 0 1-.145.213.847.847 0 0 1-.215.147.829.829 0 0 1-.253.053Zm7.401-.666a.66.66 0 0 1 .667-.667c.36 0 .667.293.667.667 0 .36-.307.666-.667.666a.669.669 0 0 1-.667-.666Zm8.067 0a.66.66 0 0 1 .667-.667.67.67 0 0 1 .666.667c0 .36-.308.666-.666.666a.668.668 0 0 1-.667-.666Zm8.053 0a.668.668 0 0 1 1.334 0c0 .36-.294.666-.667.666a.676.676 0 0 1-.667-.666Zm8.067 0c0-.374.307-.667.667-.667a.668.668 0 0 1 0 1.333.677.677 0 0 1-.667-.666Zm8.065 0a.66.66 0 0 1 .667-.667.667.667 0 1 1-.667.667Zm8.067 0a.67.67 0 0 1 .667-.667.66.66 0 0 1 .666.667c0 .36-.292.666-.666.666a.678.678 0 0 1-.667-.666Zm8.068 0a.66.66 0 0 1 .667-.667c.36 0 .666.293.666.667 0 .36-.306.666-.666.666a.668.668 0 0 1-.667-.666Zm8.067 0a.66.66 0 0 1 .666-.667.67.67 0 0 1 .667.667c0 .36-.308.666-.667.666a.668.668 0 0 1-.666-.666Zm8.066 0a.66.66 0 0 1 .667-.667.67.67 0 0 1 .667.667c0 .36-.308.666-.667.666a.667.667 0 0 1-.667-.666Zm8.066 0a.66.66 0 1 1 1.321 0c0 .36-.293.666-.667.666a.665.665 0 0 1-.654-.666Zm8.053 0a.67.67 0 0 1 .667-.667.66.66 0 0 1 .666.667c0 .36-.292.666-.666.666a.678.678 0 0 1-.667-.666Zm8.067 0a.67.67 0 0 1 .666-.667c.375 0 .682.293.682.667a.68.68 0 0 1-.682.666.678.678 0 0 1-.666-.666Zm8.068 0c0-.374.306-.667.666-.667.372 0 .667.293.667.667a.67.67 0 0 1-.667.666.676.676 0 0 1-.666-.666Zm8.733.666a.683.683 0 0 1-.667-.666c0-.094.027-.174.053-.254a.653.653 0 0 1 .146-.226.578.578 0 0 1 .214-.134.563.563 0 0 1 .506 0 .74.74 0 0 1 .226.134.645.645 0 0 1 .135.226c.04.08.053.16.053.254a.658.658 0 0 1-.188.466.73.73 0 0 1-.478.2Zm-.667-34.333c0-.36.305-.667.667-.667a.67.67 0 0 1 .666.667.66.66 0 0 1-.666.667.668.668 0 0 1-.667-.667Zm0 8.413c0-.36.305-.666.667-.666.372 0 .666.306.666.666a.667.667 0 0 1-1.333 0Zm0 8.427c0-.373.305-.667.667-.667a.66.66 0 1 1 0 1.32.665.665 0 0 1-.667-.653Zm0 8.413a.667.667 0 0 1 1.333 0 .67.67 0 0 1-.666.667.677.677 0 0 1-.667-.667Zm.667-33a.67.67 0 0 1-.468-.186.822.822 0 0 1-.146-.227c-.026-.08-.053-.16-.053-.253 0-.08.027-.174.053-.254.039-.08.08-.16.146-.213.053-.067.134-.107.214-.147a.671.671 0 0 1 .506 0c.094.04.161.08.226.147a.589.589 0 0 1 .135.213.58.58 0 0 1 .053.254.717.717 0 0 1-.188.48.716.716 0 0 1-.478.186Zm78.692 147.414a.66.66 0 0 1-.666-.667c0-.173.066-.347.188-.48a.695.695 0 0 1 .732-.133c.08.026.146.08.214.133a.896.896 0 0 1 .146.227c.026.08.04.16.04.253a.671.671 0 0 1-.186.467.683.683 0 0 1-.468.2Zm-.679 7.013c0-.373.306-.667.666-.667.374 0 .68.294.68.667a.68.68 0 0 1-.68.667.677.677 0 0 1-.666-.667Zm0 7.68c0-.373.306-.667.666-.667.374 0 .68.294.68.667a.672.672 0 0 1-.68.667.669.669 0 0 1-.666-.667Zm0 7.68c0-.36.306-.667.666-.667a.68.68 0 0 1 .68.667.672.672 0 0 1-.68.667.669.669 0 0 1-.666-.667Zm0 7.68c0-.36.306-.667.666-.667a.68.68 0 0 1 .68.667c0 .373-.306.68-.68.68a.68.68 0 0 1-.666-.68Zm0 7.693c0-.373.306-.666.666-.666a.67.67 0 0 1 .68.666.68.68 0 0 1-.68.667.677.677 0 0 1-.666-.667Zm0 7.68c0-.373.306-.666.666-.666a.67.67 0 0 1 .68.666.671.671 0 0 1-.68.667.668.668 0 0 1-.666-.667Zm.679 8.347a.659.659 0 0 1-.666-.667c0-.093.013-.173.04-.253a.863.863 0 0 1 .148-.213c.252-.254.705-.254.946 0a.67.67 0 0 1 .186.466c0 .08-.014.174-.04.254a.808.808 0 0 1-.146.213.572.572 0 0 1-.214.147.574.574 0 0 1-.254.053Zm-184.293-.667c0-.373.306-.666.667-.666.373 0 .68.293.68.666a.672.672 0 0 1-.68.667.668.668 0 0 1-.667-.667Zm7.987 0c0-.373.307-.666.667-.666a.66.66 0 0 1 .666.666.66.66 0 0 1-.666.667.669.669 0 0 1-.667-.667Zm7.985 0a.668.668 0 0 1 1.334 0 .668.668 0 0 1-1.334 0Zm7.988 0a.66.66 0 0 1 .667-.666c.36 0 .667.293.667.666a.669.669 0 0 1-.667.667.66.66 0 0 1-.667-.667Zm7.987 0a.66.66 0 1 1 1.32 0 .661.661 0 1 1-1.32 0Zm7.973 0a.66.66 0 0 1 .667-.666.66.66 0 0 1 .667.666.66.66 0 0 1-.667.667.66.66 0 0 1-.667-.667Zm7.987 0a.668.668 0 1 1 1.33.003.668.668 0 0 1-1.33-.003Zm7.987 0a.66.66 0 0 1 .666-.666c.36 0 .667.293.667.666a.669.669 0 0 1-.667.667.66.66 0 0 1-.666-.667Zm7.973 0c0-.373.307-.666.667-.666a.66.66 0 0 1 .666.666.66.66 0 0 1-.666.667.669.669 0 0 1-.667-.667Zm7.987 0a.668.668 0 0 1 1.333 0 .669.669 0 0 1-.667.667.668.668 0 0 1-.666-.667Zm7.986 0a.66.66 0 0 1 .667-.666c.36 0 .667.293.667.666a.669.669 0 0 1-.667.667.66.66 0 0 1-.667-.667Zm7.974 0c0-.373.306-.666.666-.666a.67.67 0 0 1 .68.666.671.671 0 0 1-.68.667.668.668 0 0 1-.666-.667Zm7.986 0c0-.373.307-.666.667-.666a.66.66 0 0 1 .667.666.66.66 0 0 1-.667.667.669.669 0 0 1-.667-.667Zm7.987 0a.66.66 0 0 1 .667-.666.66.66 0 0 1 .666.666.66.66 0 0 1-.666.667.66.66 0 0 1-.667-.667Zm7.987 0a.66.66 0 0 1 .666-.666c.36 0 .667.293.667.666a.669.669 0 0 1-.667.667.66.66 0 0 1-.666-.667Zm7.973 0c0-.373.307-.666.68-.666.36 0 .667.293.667.666a.669.669 0 0 1-.667.667.672.672 0 0 1-.68-.667Zm7.987 0a.668.668 0 1 1 1.335.003.668.668 0 0 1-1.335-.003Zm7.986 0a.66.66 0 0 1 .667-.666c.36 0 .667.293.667.666a.669.669 0 0 1-.667.667.66.66 0 0 1-.667-.667Zm7.987 0a.668.668 0 1 1 1.33.003.668.668 0 0 1-1.33-.003Zm7.973 0c0-.373.307-.666.667-.666a.66.66 0 0 1 .667.666.66.66 0 0 1-.667.667.669.669 0 0 1-.667-.667Zm7.987 0a.66.66 0 0 1 .667-.666.66.66 0 0 1 .666.666.66.66 0 0 1-.666.667.66.66 0 0 1-.667-.667Zm7.987 0a.66.66 0 0 1 .666-.666c.36 0 .667.293.667.666a.669.669 0 0 1-.667.667.66.66 0 0 1-.666-.667Zm7.985 0a.667.667 0 1 1 1.332.002.667.667 0 0 1-1.332-.002Zm-182.946.667a.536.536 0 0 1-.252-.053.6.6 0 0 1-.361-.36.596.596 0 0 1-.054-.254c0-.08.015-.173.054-.253a.6.6 0 0 1 .361-.36.66.66 0 0 1 .505 0c.08.027.162.08.215.147a.806.806 0 0 1 .145.213.85.85 0 0 1 .054.253c0 .08-.027.174-.054.254a.806.806 0 0 1-.145.213.478.478 0 0 1-.215.147.567.567 0 0 1-.253.053Zm-.667-34.8c0-.373.295-.667.667-.667.361 0 .667.294.667.667a.669.669 0 0 1-.667.667.662.662 0 0 1-.667-.667Zm0 8.533a.668.668 0 0 1 1.334 0 .668.668 0 0 1-1.334 0Zm0 8.534a.668.668 0 0 1 1.334 0 .668.668 0 0 1-1.334 0Zm0 8.533c0-.373.295-.667.667-.667.361 0 .667.294.667.667a.669.669 0 0 1-.667.667.662.662 0 0 1-.667-.667Z"/>
  <path fill="#E1E1E1" d="M238.224 347.712a.536.536 0 0 1-.252-.053.6.6 0 0 1-.361-.36.554.554 0 0 1-.054-.253c0-.174.068-.347.188-.467a.592.592 0 0 1 .227-.147.669.669 0 0 1 .505 0c.08.027.162.08.215.147.119.12.199.293.199.467 0 .08-.014.173-.054.253a.597.597 0 0 1-.145.213.478.478 0 0 1-.215.147.567.567 0 0 1-.253.053Zm0-158.52a.536.536 0 0 1-.252-.053.6.6 0 0 1-.361-.36.554.554 0 0 1-.054-.253c0-.08.015-.174.054-.254a.6.6 0 0 1 .361-.36.669.669 0 0 1 .505 0c.08.027.162.08.215.147a.806.806 0 0 1 .145.213c.027.08.054.174.054.254 0 .173-.08.346-.199.466a.478.478 0 0 1-.215.147.567.567 0 0 1-.253.053Zm-.667 7.747a.67.67 0 0 1 .667-.667c.361 0 .667.307.667.667a.669.669 0 0 1-.667.667.662.662 0 0 1-.667-.667Zm0 8.413a.67.67 0 0 1 .667-.666c.361 0 .667.306.667.666a.668.668 0 0 1-1.334 0Zm0 8.427c0-.373.295-.667.667-.667.361 0 .667.294.667.667 0 .36-.306.667-.667.667a.67.67 0 0 1-.667-.667Zm0 8.413c0-.373.295-.68.667-.68a.68.68 0 0 1 .667.68c0 .36-.306.667-.667.667a.67.67 0 0 1-.667-.667Zm.667 9.08a.765.765 0 0 1-.252-.053.797.797 0 0 1-.227-.147.743.743 0 0 1-.188-.466c0-.187.068-.347.188-.48a.756.756 0 0 1 .227-.134.669.669 0 0 1 .505 0c.08.027.162.08.215.134a.74.74 0 0 1 .199.48c0 .08-.014.173-.054.253a.738.738 0 0 1-.145.213.847.847 0 0 1-.215.147.829.829 0 0 1-.253.053Z"/>
  <g filter="url(#g)">
    <path fill="#fff" fill-opacity=".33" d="M318.572 389.884c114.08-14.646 141.932-81.453 147.389-125.493 7.828-63.179-42.829-136.833-171.004-125.516-93.753 8.277-217.756 50.285-214.088 141.459 4.036 100.306 81.236 129.64 237.703 109.55Z"/>
  </g>
  <path fill="#007CFF" d="m97.588 390.356 2.614-45.656c.153-2.668 2.44-4.831 5.108-4.831h74.085c2.668 0 4.707 2.163 4.555 4.831l-2.615 45.656c-.153 2.668-2.44 4.831-5.108 4.831h-74.085c-2.668 0-4.708-2.163-4.554-4.831Z"/>
  <path fill="#fff" d="m93.843 390.356 2.615-45.656c.153-2.668 2.44-4.831 5.108-4.831h77.059c2.668 0 4.708 2.163 4.554 4.831l-2.614 45.656c-.154 2.668-2.44 4.831-5.108 4.831H98.398c-2.668 0-4.708-2.163-4.555-4.831Z"/>
  <path fill="#007CFF" d="m93.843 390.356 2.615-45.656c.153-2.668 2.44-4.831 5.108-4.831h77.059c2.668 0 4.708 2.163 4.554 4.831l-2.614 45.656c-.154 2.668-2.44 4.831-5.108 4.831H98.398c-2.668 0-4.708-2.163-4.555-4.831Z" opacity=".3"/>
  <path fill="#007CFF" d="M125.471 405.001v-.604a4.831 4.831 0 0 1 4.832-4.831h27.864a4.832 4.832 0 0 1 4.832 4.831v.604a4.831 4.831 0 0 1-4.832 4.83h-27.864a4.83 4.83 0 0 1-4.832-4.83Z"/>
  <path fill="#fff" d="M114.024 405.001v-.604a4.831 4.831 0 0 1 4.831-4.831h30.839a4.83 4.83 0 0 1 4.83 4.831v.604a4.83 4.83 0 0 1-4.83 4.83h-30.839a4.83 4.83 0 0 1-4.831-4.83Z"/>
  <path fill="#007CFF" d="m225.209 390.356 2.615-45.656c.153-2.668 2.44-4.831 5.108-4.831h74.085c2.668 0 4.708 2.163 4.555 4.831l-2.615 45.656c-.153 2.668-2.44 4.831-5.108 4.831h-74.085c-2.668 0-4.708-2.163-4.555-4.831Z"/>
  <path fill="#fff" d="m221.465 390.356 2.615-45.656c.153-2.668 2.44-4.831 5.108-4.831h77.058c2.668 0 4.708 2.163 4.555 4.831l-2.615 45.656c-.152 2.668-2.44 4.831-5.108 4.831H226.02c-2.668 0-4.708-2.163-4.555-4.831Z"/>
  <path fill="#007CFF" d="m221.465 390.356 2.615-45.656c.153-2.668 2.44-4.831 5.108-4.831h77.058c2.668 0 4.708 2.163 4.555 4.831l-2.615 45.656c-.152 2.668-2.44 4.831-5.108 4.831H226.02c-2.668 0-4.708-2.163-4.555-4.831Z" opacity=".3"/>
  <path fill="#007CFF" d="M253.093 405.001v-.604a4.832 4.832 0 0 1 4.832-4.831h27.864a4.832 4.832 0 0 1 4.832 4.831v.604a4.831 4.831 0 0 1-4.832 4.83h-27.864a4.831 4.831 0 0 1-4.832-4.83Z"/>
  <path fill="#fff" d="M241.646 405.001v-.604a4.831 4.831 0 0 1 4.831-4.831h30.838a4.831 4.831 0 0 1 4.831 4.831v.604a4.83 4.83 0 0 1-4.831 4.83h-30.838a4.83 4.83 0 0 1-4.831-4.83Z"/>
  <path fill="#007CFF" d="m352.831 390.356 2.615-45.656c.153-2.668 2.44-4.831 5.108-4.831h74.085c2.668 0 4.708 2.163 4.555 4.831l-2.615 45.656c-.153 2.668-2.44 4.831-5.108 4.831h-74.085c-2.668 0-4.707-2.163-4.555-4.831Z"/>
  <path fill="#fff" d="m349.087 390.356 2.615-45.656c.153-2.668 2.44-4.831 5.107-4.831h77.059c2.669 0 4.708 2.163 4.555 4.831l-2.614 45.656c-.153 2.668-2.441 4.831-5.109 4.831h-77.059c-2.667 0-4.706-2.163-4.554-4.831Z"/>
  <path fill="#007CFF" d="m349.087 390.356 2.615-45.656c.153-2.668 2.44-4.831 5.107-4.831h77.059c2.669 0 4.708 2.163 4.555 4.831l-2.614 45.656c-.153 2.668-2.441 4.831-5.109 4.831h-77.059c-2.667 0-4.706-2.163-4.554-4.831Z" opacity=".3"/>
  <path fill="#007CFF" d="M380.716 405.001v-.604a4.83 4.83 0 0 1 4.83-4.831h27.866a4.83 4.83 0 0 1 4.83 4.831v.604a4.83 4.83 0 0 1-4.83 4.83h-27.866a4.83 4.83 0 0 1-4.83-4.83Z"/>
  <path fill="#fff" d="M125.472 405.001v-.604a4.83 4.83 0 0 1 4.832-4.831h27.864a4.832 4.832 0 0 1 4.832 4.831v.604a4.831 4.831 0 0 1-4.832 4.83h-27.864a4.83 4.83 0 0 1-4.832-4.83Zm127.622 0v-.604a4.832 4.832 0 0 1 4.832-4.831h27.864a4.832 4.832 0 0 1 4.832 4.831v.604a4.831 4.831 0 0 1-4.832 4.83h-27.864a4.831 4.831 0 0 1-4.832-4.83Zm127.622 0v-.604a4.83 4.83 0 0 1 4.83-4.831h27.866a4.83 4.83 0 0 1 4.83 4.831v.604a4.83 4.83 0 0 1-4.83 4.83h-27.866a4.83 4.83 0 0 1-4.83-4.83Z" opacity=".6"/>
  <path fill="#fff" d="M369.268 405.001v-.604a4.83 4.83 0 0 1 4.832-4.831h30.837a4.831 4.831 0 0 1 4.831 4.831v.604a4.83 4.83 0 0 1-4.831 4.83H374.1a4.83 4.83 0 0 1-4.832-4.83Z"/>
  <path fill="#007CFF" d="M114.024 405.001v-.604a4.831 4.831 0 0 1 4.831-4.831h30.839a4.83 4.83 0 0 1 4.83 4.831v.604a4.83 4.83 0 0 1-4.83 4.83h-30.839a4.83 4.83 0 0 1-4.831-4.83Zm127.622 0v-.604a4.831 4.831 0 0 1 4.831-4.831h30.838a4.831 4.831 0 0 1 4.831 4.831v.604a4.83 4.83 0 0 1-4.831 4.83h-30.838a4.83 4.83 0 0 1-4.831-4.83Zm127.622 0v-.604a4.83 4.83 0 0 1 4.832-4.831h30.837a4.831 4.831 0 0 1 4.831 4.831v.604a4.83 4.83 0 0 1-4.831 4.83H374.1a4.83 4.83 0 0 1-4.832-4.83Z" opacity=".3"/>
  <path fill="#fff" d="M176.54 392.845H97.582a1.99 1.99 0 0 1-2.008-2.131l2.656-46.372a2.284 2.284 0 0 1 2.253-2.131h78.957c1.178 0 2.076.954 2.008 2.131l-2.656 46.372c-.066 1.177-1.076 2.131-2.252 2.131Zm127.622 0h-78.957a1.99 1.99 0 0 1-2.009-2.131l2.656-46.372a2.284 2.284 0 0 1 2.253-2.131h78.957c1.178 0 2.076.954 2.01 2.131l-2.658 46.372a2.282 2.282 0 0 1-2.252 2.131Zm127.622 0h-78.957a1.991 1.991 0 0 1-2.01-2.131l2.656-46.372c.068-1.177 1.076-2.131 2.254-2.131h78.957a1.99 1.99 0 0 1 2.009 2.131l-2.656 46.372c-.068 1.177-1.076 2.131-2.253 2.131Z" opacity=".9"/>
  <path fill="#DEEFFF" d="M120.338 392.845h-15.701l14.364-50.634h15.701l-14.364 50.634Zm12.858 0h-10.97l14.365-50.634h10.969l-14.364 50.634Zm23.918 0h-10.97l14.364-50.634h10.97l-14.364 50.634Zm90.846 0h-15.701l14.364-50.634h15.701l-14.364 50.634Zm12.859 0h-10.971l14.364-50.634h10.971l-14.364 50.634Zm23.917 0h-10.971l14.364-50.634H299.1l-14.364 50.634Zm90.846 0h-15.701l14.364-50.634h15.701l-14.364 50.634Zm12.858 0h-10.97l14.364-50.634h10.97l-14.364 50.634Zm23.918 0h-10.971l14.364-50.634h10.971l-14.364 50.634Z"/>
  <path fill="#007CFF" d="M138.091 330.779c-.093 0-.173-.027-.253-.054-.08-.04-.16-.093-.227-.146a.736.736 0 0 1-.186-.467c0-.187.066-.36.186-.48a.703.703 0 0 1 .734-.147c.08.04.16.08.213.147a.56.56 0 0 1 .147.213.6.6 0 0 1 .053.267c0 .08-.013.16-.053.253a.564.564 0 0 1-.147.214.859.859 0 0 1-.213.146.856.856 0 0 1-.254.054Zm-.666-5.56c0-.36.293-.667.666-.667.374 0 .667.307.667.667a.66.66 0 0 1-.667.667.66.66 0 0 1-.666-.667Zm.666-4.213a.68.68 0 0 1-.48-.2.597.597 0 0 1-.133-.214.667.667 0 0 1 .133-.72.678.678 0 0 1 .734-.146c.08.04.16.08.213.146a.48.48 0 0 1 .147.214c.04.08.053.173.053.253a.54.54 0 0 1-.053.253.48.48 0 0 1-.147.214.47.47 0 0 1-.213.146.582.582 0 0 1-.254.054Zm4.68-.667c0-.36.307-.667.667-.667a.67.67 0 0 1 .667.667.661.661 0 0 1-.667.667.67.67 0 0 1-.667-.667Zm5.362 0c0-.36.292-.667.653-.667a.67.67 0 0 1 .667.667.662.662 0 0 1-.667.667.657.657 0 0 1-.653-.667Zm5.345 0c0-.36.293-.667.667-.667.36 0 .666.307.666.667a.669.669 0 0 1-.666.667.66.66 0 0 1-.667-.667Zm5.347 0c0-.36.308-.667.666-.667.374 0 .667.307.667.667a.66.66 0 0 1-.667.667.67.67 0 0 1-.666-.667Zm5.346 0c0-.36.307-.667.667-.667a.67.67 0 0 1 .667.667.661.661 0 0 1-.667.667.67.67 0 0 1-.667-.667Zm5.36 0a.67.67 0 0 1 .667-.667c.36 0 .667.307.667.667a.67.67 0 0 1-.667.667.661.661 0 0 1-.667-.667Zm5.347 0c0-.36.293-.667.667-.667.373 0 .666.307.666.667a.66.66 0 0 1-.666.667.66.66 0 0 1-.667-.667Zm5.347 0c0-.36.306-.667.666-.667.374 0 .682.307.682.667a.673.673 0 0 1-.682.667.669.669 0 0 1-.666-.667Zm5.36 0c0-.36.293-.667.666-.667a.668.668 0 0 1 0 1.334.66.66 0 0 1-.666-.667Zm5.346 0c0-.36.308-.667.667-.667a.67.67 0 0 1 .667.667.661.661 0 0 1-.667.667.67.67 0 0 1-.667-.667Zm5.347 0a.68.68 0 0 1 .681-.667c.359 0 .667.307.667.667a.67.67 0 0 1-.667.667.672.672 0 0 1-.681-.667Zm5.36 0c0-.36.293-.667.667-.667.36 0 .666.307.666.667a.669.669 0 0 1-.666.667.66.66 0 0 1-.667-.667Zm5.347 0c0-.36.308-.667.666-.667.374 0 .667.307.667.667a.66.66 0 0 1-.667.667.67.67 0 0 1-.666-.667Zm5.361 0c0-.36.292-.667.667-.667.358 0 .666.307.666.667a.67.67 0 0 1-.666.667.66.66 0 0 1-.667-.667Zm5.345 0a.67.67 0 0 1 .667-.667c.36 0 .667.307.667.667a.67.67 0 0 1-.667.667.661.661 0 0 1-.667-.667Zm5.347 0c0-.36.308-.667.667-.667.373 0 .666.307.666.667a.66.66 0 0 1-.666.667.67.67 0 0 1-.667-.667Zm5.361 0c0-.36.292-.667.667-.667.359 0 .667.307.667.667a.67.67 0 0 1-.667.667.66.66 0 0 1-.667-.667Zm5.346 0c0-.36.293-.667.666-.667.36 0 .667.307.667.667a.67.67 0 0 1-.667.667.66.66 0 0 1-.666-.667Zm5.346 0c0-.36.308-.667.667-.667a.668.668 0 0 1 0 1.334.67.67 0 0 1-.667-.667Zm5.362 0c0-.36.292-.667.666-.667.359 0 .652.307.652.667a.66.66 0 1 1-1.318 0Zm5.346 0c0-.36.292-.667.667-.667.359 0 .667.307.667.667a.67.67 0 0 1-.667.667.66.66 0 0 1-.667-.667Zm5.346 0c0-.36.308-.667.666-.667a.668.668 0 0 1 0 1.334.67.67 0 0 1-.666-.667Zm5.36 0c0-.36.294-.667.653-.667a.67.67 0 0 1 .667.667.661.661 0 1 1-1.32 0Zm6.013.667a.541.541 0 0 1-.253-.054.588.588 0 0 1-.36-.36.54.54 0 0 1-.053-.253c0-.08.013-.173.053-.253a.582.582 0 0 1 .145-.214c.054-.066.135-.106.215-.146a.66.66 0 0 1 .72.146c.133.12.2.294.2.467a.566.566 0 0 1-.053.253.646.646 0 0 1-.147.227.564.564 0 0 1-.215.133.534.534 0 0 1-.252.054Z"/>
  <path fill="#007CFF" d="M266.518 321.006a.541.541 0 0 1-.253-.054.588.588 0 0 1-.36-.36.54.54 0 0 1-.053-.253c0-.08.013-.173.053-.253a.582.582 0 0 1 .145-.214c.054-.066.135-.106.215-.146a.66.66 0 0 1 .72.146c.133.12.2.294.2.467a.566.566 0 0 1-.053.253.646.646 0 0 1-.147.227.564.564 0 0 1-.215.133.534.534 0 0 1-.252.054Zm-.666-14.547c0-.373.305-.667.666-.667.372 0 .667.294.667.667a.662.662 0 0 1-.667.667.668.668 0 0 1-.666-.667Zm0 4.627a.667.667 0 1 1 1.335 0 .667.667 0 0 1-1.335 0Zm0 4.626a.667.667 0 1 1 1.334.002.667.667 0 0 1-1.334-.002Zm.666-13.213a.63.63 0 0 1-.468-.2.492.492 0 0 1-.145-.214.576.576 0 0 1-.053-.253.54.54 0 0 1 .053-.253.588.588 0 0 1 .36-.36.606.606 0 0 1 .505 0c.082.026.162.08.215.133a.646.646 0 0 1 .147.227c.038.08.053.16.053.253 0 .08-.015.173-.053.253a.505.505 0 0 1-.147.214.626.626 0 0 1-.467.2Z"/>
  <path fill="#007CFF" d="M266.518 321.006a.541.541 0 0 1-.253-.054.588.588 0 0 1-.36-.36.54.54 0 0 1-.053-.253c0-.08.013-.173.053-.253a.582.582 0 0 1 .145-.214c.054-.066.135-.106.215-.146a.66.66 0 0 1 .72.146c.133.12.2.294.2.467a.566.566 0 0 1-.053.253.646.646 0 0 1-.147.227.564.564 0 0 1-.215.133.534.534 0 0 1-.252.054Zm-.666 4.213c0-.36.305-.667.666-.667a.67.67 0 0 1 .667.667.662.662 0 0 1-.667.667.668.668 0 0 1-.666-.667Zm.666 5.56a.683.683 0 0 1-.468-.2.582.582 0 0 1-.145-.214.595.595 0 0 1-.053-.266.58.58 0 0 1 .053-.254.578.578 0 0 1 .145-.213.683.683 0 0 1 .935 0 .597.597 0 0 1 .147.213.61.61 0 0 1 .053.254.623.623 0 0 1-.053.266.6.6 0 0 1-.147.214c-.12.12-.293.2-.467.2Zm128.426 0a.678.678 0 0 1-.466-.2.745.745 0 0 1-.2-.48c0-.174.081-.347.2-.467.24-.24.693-.253.934 0a.57.57 0 0 1 .146.213.58.58 0 0 1 .053.254.683.683 0 0 1-.667.68Zm-.666-5.56c0-.36.306-.667.666-.667.374 0 .667.307.667.667a.66.66 0 0 1-.667.667.669.669 0 0 1-.666-.667Zm.666-4.213a.666.666 0 0 1-.466-.187.743.743 0 0 1-.2-.48c0-.173.081-.347.2-.467.24-.253.68-.253.934 0a.63.63 0 0 1 .199.467.681.681 0 0 1-.199.48.667.667 0 0 1-.468.187Zm-123.746-.667c0-.373.306-.667.667-.667.373 0 .68.294.68.667a.672.672 0 0 1-.68.667.669.669 0 0 1-.667-.667Zm5.36 0c0-.373.294-.667.667-.667a.67.67 0 0 1 .667.667.67.67 0 0 1-.667.667.661.661 0 0 1-.667-.667Zm5.347 0a.66.66 0 0 1 .667-.667.66.66 0 0 1 .666.667.66.66 0 0 1-.666.667.66.66 0 0 1-.667-.667Zm5.347 0c0-.373.306-.667.666-.667.374 0 .68.294.68.667a.672.672 0 0 1-.68.667.669.669 0 0 1-.666-.667Zm5.36 0a.66.66 0 0 1 .666-.667.67.67 0 0 1 .667.667.67.67 0 0 1-.667.667.66.66 0 0 1-.666-.667Zm5.346 0a.67.67 0 0 1 .667-.667c.373 0 .667.294.667.667a.661.661 0 0 1-.667.667.67.67 0 0 1-.667-.667Zm5.347 0a.67.67 0 0 1 .667-.667c.373 0 .68.294.68.667a.672.672 0 0 1-.68.667.67.67 0 0 1-.667-.667Zm5.36 0a.66.66 0 0 1 .667-.667c.36 0 .666.294.666.667a.669.669 0 0 1-.666.667.66.66 0 0 1-.667-.667Zm5.347 0c0-.373.306-.667.666-.667a.66.66 0 0 1 .667.667.66.66 0 0 1-.667.667.669.669 0 0 1-.666-.667Zm5.346 0a.67.67 0 0 1 .667-.667c.373 0 .667.294.667.667a.661.661 0 0 1-.667.667.67.67 0 0 1-.667-.667Zm5.36 0c0-.373.294-.667.667-.667a.67.67 0 0 1 .667.667.67.67 0 0 1-.667.667.661.661 0 0 1-.667-.667Zm5.347 0a.67.67 0 0 1 .667-.667.66.66 0 0 1 .666.667.66.66 0 0 1-.666.667.67.67 0 0 1-.667-.667Zm5.347 0c0-.373.306-.667.666-.667a.66.66 0 0 1 .667.667.66.66 0 0 1-.667.667.669.669 0 0 1-.666-.667Zm5.36 0a.66.66 0 0 1 .666-.667.67.67 0 0 1 .667.667.67.67 0 0 1-.667.667.66.66 0 0 1-.666-.667Zm5.346 0a.67.67 0 0 1 .667-.667c.373 0 .667.294.667.667a.661.661 0 0 1-.667.667.67.67 0 0 1-.667-.667Zm5.347 0a.67.67 0 0 1 .667-.667c.372 0 .68.294.68.667a.673.673 0 0 1-.68.667.67.67 0 0 1-.667-.667Zm5.36 0a.66.66 0 0 1 .667-.667c.36 0 .666.294.666.667a.669.669 0 0 1-.666.667.66.66 0 0 1-.667-.667Zm5.345 0a.67.67 0 0 1 .667-.667.66.66 0 0 1 .667.667.66.66 0 0 1-.667.667.67.67 0 0 1-.667-.667Zm5.348 0a.67.67 0 0 1 .667-.667c.373 0 .68.294.68.667a.672.672 0 0 1-.68.667.67.67 0 0 1-.667-.667Zm5.36 0a.66.66 0 0 1 .667-.667.67.67 0 0 1 .667.667.67.67 0 0 1-.667.667.66.66 0 0 1-.667-.667Zm5.347 0a.67.67 0 0 1 .667-.667.66.66 0 0 1 .666.667.66.66 0 0 1-.666.667.67.67 0 0 1-.667-.667Zm5.347 0c0-.373.306-.667.68-.667.36 0 .666.294.666.667a.669.669 0 0 1-.666.667.672.672 0 0 1-.68-.667Zm5.36 0a.66.66 0 0 1 .666-.667.67.67 0 0 1 .667.667.67.67 0 0 1-.667.667.66.66 0 0 1-.666-.667Z"/>
  <path fill="#007CFF" d="M266.518 321.006a.541.541 0 0 1-.253-.054.588.588 0 0 1-.36-.36.54.54 0 0 1-.053-.253c0-.08.013-.173.053-.253a.582.582 0 0 1 .145-.214c.054-.066.135-.106.215-.146a.66.66 0 0 1 .72.146c.133.12.2.294.2.467a.566.566 0 0 1-.053.253.646.646 0 0 1-.147.227.564.564 0 0 1-.215.133.534.534 0 0 1-.252.054Zm203.403-141.28c-.367-43.812-35.983-79.22-79.883-79.22H357.04c-16.675-28.926-47.904-48.403-83.691-48.403h-64.223v24.485c-14.832 13.238-25.558 30.982-30.014 51.088-43.371 2.79-77.691 38.83-77.691 82.906 0 45.894 37.205 83.1 83.1 83.1h264.424c32.533 0 58.907-26.375 58.907-58.908 0-25.142-15.758-46.594-37.931-55.048Z"/>
  <path fill="#fff" d="M469.921 179.726c-.367-43.812-35.983-79.22-79.883-79.22H357.04c-16.675-28.926-47.904-48.403-83.691-48.403h-64.223v24.485c-14.832 13.238-25.558 30.982-30.014 51.088-43.371 2.79-77.691 38.83-77.691 82.906 0 45.894 37.205 83.1 83.1 83.1h264.424c32.533 0 58.907-26.375 58.907-58.908 0-25.142-15.758-46.594-37.931-55.048Z" opacity=".7"/>
  <g filter="url(#h)">
    <path fill="url(#i)" d="M405.698 179.726c-.367-43.814-35.984-79.22-79.883-79.22a79.628 79.628 0 0 0-29.907 5.808c-15.689-32.097-48.649-54.21-86.782-54.21-46.116 0-84.655 32.34-94.238 75.572-43.37 2.788-77.69 38.83-77.69 82.904 0 45.895 37.205 83.1 83.1 83.1h264.424c32.533 0 58.906-26.373 58.906-58.906 0-25.143-15.757-46.594-37.93-55.048Z"/>
  </g>
  <g filter="url(#j)">
    <path fill="#fff" fill-opacity=".3" d="M469.921 179.726c-.367-43.814-35.983-79.22-79.883-79.22a79.626 79.626 0 0 0-29.906 5.808c-15.69-32.097-48.65-54.21-86.783-54.21-46.116 0-84.655 32.34-94.237 75.572-43.371 2.788-77.691 38.83-77.691 82.904 0 45.895 37.205 83.1 83.1 83.1h264.424c32.533 0 58.907-26.373 58.907-58.906 0-25.143-15.758-46.594-37.931-55.048Z"/>
  </g>
  <path fill="#E1E1E1" d="M175.42 175.841h21.234a5.926 5.926 0 0 1 5.926 5.927V286.46a5.926 5.926 0 0 1-5.926 5.926H175.42V175.841Z"/>
  <path fill="#fff" d="M177.533 175.841h-45.714a5.926 5.926 0 0 0-5.926 5.927V286.46a5.926 5.926 0 0 0 5.926 5.926h45.714a5.926 5.926 0 0 0 5.926-5.926V181.768a5.926 5.926 0 0 0-5.926-5.927Z"/>
  <path fill="#E1E1E1" d="M183.46 269.294h-57.567v-1.083h57.567v1.083Zm0-23.094h-57.567v-1.082h57.567v1.082Zm0-23.092h-57.567v-1.082h57.567v1.082Zm0-23.092h-57.567v-1.082h57.567v1.082Z"/>
  <path fill="#007CFF" d="M154.597 191.443h-19.256a2.2 2.2 0 1 0 0 4.399h19.256a2.2 2.2 0 1 0 0-4.399Zm0-5.714h-19.256a2.2 2.2 0 1 0 0 4.399h19.256a2.2 2.2 0 1 0 0-4.399Zm0-5.714h-19.256a2.2 2.2 0 1 0 0 4.399h19.256a2.2 2.2 0 1 0 0-4.399Z" opacity=".6"/>
  <path fill="#ECECEC" d="M158.817 191.443h8.04v4.399h-8.04v-4.399Z"/>
  <path fill="#007CFF" d="M158.817 185.728h8.04v4.399h-8.04v-4.399Z"/>
  <path fill="#ECECEC" d="M158.817 180.015h8.04v4.399h-8.04v-4.399Zm9.355 11.428h8.04v4.399h-8.04v-4.399Zm0-5.715h8.04v4.399h-8.04v-4.399Z"/>
  <path fill="#007CFF" d="M168.172 180.015h8.04v4.399h-8.04v-4.399Z"/>
  <path fill="#ECECEC" d="M154.597 214.535h-19.256a2.2 2.2 0 0 0 0 4.399h19.256a2.2 2.2 0 1 0 0-4.399Z"/>
  <path fill="#007CFF" d="M154.597 208.822h-19.256a2.2 2.2 0 1 0 0 4.398h19.256a2.2 2.2 0 1 0 0-4.398Zm0-5.714h-19.256a2.2 2.2 0 1 0 0 4.398h19.256a2.2 2.2 0 1 0 0-4.398Z" opacity=".6"/>
  <path fill="#ECECEC" d="M158.817 214.535h8.04v4.399h-8.04v-4.399Zm0-5.713h8.04v4.398h-8.04v-4.398Z"/>
  <path fill="#007CFF" d="M158.817 203.107h8.04v4.399h-8.04v-4.399Z"/>
  <path fill="#ECECEC" d="M168.172 214.535h8.04v4.399h-8.04v-4.399Zm0-5.713h8.04v4.398h-8.04v-4.398Zm0-5.715h8.04v4.399h-8.04v-4.399Z"/>
  <path fill="#007CFF" d="M154.597 237.628h-19.256a2.2 2.2 0 1 0 0 4.399h19.256a2.2 2.2 0 1 0 0-4.399Zm0-5.714h-19.256a2.2 2.2 0 1 0 0 4.4h19.256a2.2 2.2 0 0 0 0-4.4Zm0-5.714h-19.256a2.2 2.2 0 1 0 0 4.399h19.256a2.2 2.2 0 1 0 0-4.399Z" opacity=".6"/>
  <path fill="#ECECEC" d="M158.817 237.628h8.04v4.399h-8.04v-4.399Z"/>
  <path fill="#007CFF" d="M158.817 231.914h8.04v4.4h-8.04v-4.4Z"/>
  <path fill="#ECECEC" d="M158.817 226.2h8.04v4.399h-8.04V226.2Zm9.355 11.428h8.04v4.399h-8.04v-4.399Zm0-5.714h8.04v4.4h-8.04v-4.4Z"/>
  <path fill="#007CFF" d="M168.172 226.2h8.04v4.399h-8.04V226.2Z"/>
  <path fill="#007CFF" d="M154.597 260.721h-19.256a2.2 2.2 0 1 0 0 4.398h19.256a2.2 2.2 0 1 0 0-4.398Zm0-5.714h-19.256a2.2 2.2 0 1 0 0 4.398h19.256a2.2 2.2 0 1 0 0-4.398Zm0-5.714h-19.256a2.2 2.2 0 1 0 0 4.399h19.256a2.2 2.2 0 1 0 0-4.399Z" opacity=".6"/>
  <path fill="#ECECEC" d="M158.817 260.72h8.04v4.399h-8.04v-4.399Z"/>
  <path fill="#007CFF" d="M158.817 255.007h8.04v4.399h-8.04v-4.399Z"/>
  <path fill="#ECECEC" d="M158.817 249.292h8.04v4.399h-8.04v-4.399Z"/>
  <path fill="#007CFF" d="M168.172 260.72h8.04v4.399h-8.04v-4.399Z"/>
  <path fill="#ECECEC" d="M168.172 255.007h8.04v4.399h-8.04v-4.399Z"/>
  <path fill="#007CFF" d="M168.172 249.292h8.04v4.399h-8.04v-4.399Z"/>
  <path fill="#007CFF" d="M154.597 283.813h-19.256a2.2 2.2 0 0 0 0 4.399h19.256a2.2 2.2 0 1 0 0-4.399Zm0-5.714h-19.256a2.2 2.2 0 1 0 0 4.399h19.256a2.2 2.2 0 1 0 0-4.399Zm0-5.714h-19.256a2.2 2.2 0 1 0 0 4.399h19.256a2.2 2.2 0 1 0 0-4.399Z" opacity=".6"/>
  <path fill="#007CFF" d="M158.817 283.814h8.04v4.398h-8.04v-4.398Z"/>
  <path fill="#ECECEC" d="M158.817 278.099h8.04v4.399h-8.04v-4.399Zm0-5.713h8.04v4.398h-8.04v-4.398Zm9.355 11.428h8.04v4.398h-8.04v-4.398Zm0-5.715h8.04v4.399h-8.04v-4.399Z"/>
  <path fill="#007CFF" d="M168.172 272.386h8.04v4.398h-8.04v-4.398Z"/>
  <path fill="#E1E1E1" d="M258.369 120.812h31.26a8.726 8.726 0 0 1 8.726 8.725v154.124a8.726 8.726 0 0 1-8.726 8.726h-31.26V120.812Z"/>
  <path fill="#fff" d="M261.48 120.812h-67.299a8.727 8.727 0 0 0-8.725 8.725v154.124a8.727 8.727 0 0 0 8.725 8.726h67.299a8.725 8.725 0 0 0 8.725-8.726V129.537a8.725 8.725 0 0 0-8.725-8.725Z"/>
  <path fill="#E1E1E1" d="M270.205 258.39h-84.749v-1.594h84.749v1.594Zm0-33.996h-84.749V222.8h84.749v1.594Zm0-33.996h-84.749v-1.594h84.749v1.594Zm0-33.996h-84.749v-1.594h84.749v1.594Z"/>
  <path fill="#007CFF" d="M227.715 143.78h-28.35a3.238 3.238 0 0 0 0 6.476h28.35a3.238 3.238 0 0 0 0-6.476Zm0-8.412h-28.35a3.238 3.238 0 0 0 0 6.476h28.35a3.238 3.238 0 0 0 0-6.476Zm0-8.411h-28.35a3.238 3.238 0 0 0 0 6.476h28.35a3.238 3.238 0 0 0 0-6.476Z" opacity=".6"/>
  <path fill="#ECECEC" d="M233.928 143.78h11.836v6.476h-11.836v-6.476Z"/>
  <path fill="#007CFF" d="M233.928 135.368h11.836v6.476h-11.836v-6.476Z"/>
  <path fill="#ECECEC" d="M233.928 126.956h11.836v6.476h-11.836v-6.476ZM247.7 143.78h11.836v6.476H247.7v-6.476Zm0-8.412h11.836v6.476H247.7v-6.476Z"/>
  <path fill="#007CFF" d="M247.7 126.956h11.836v6.476H247.7v-6.476Z"/>
  <path fill="#007CFF" d="M227.715 177.777h-28.35a3.238 3.238 0 0 0 0 6.476h28.35a3.238 3.238 0 0 0 0-6.476Zm0-8.412h-28.35a3.238 3.238 0 0 0 0 6.476h28.35a3.238 3.238 0 0 0 0-6.476Zm0-8.412h-28.35a3.237 3.237 0 0 0-3.237 3.237 3.237 3.237 0 0 0 3.237 3.239h28.35a3.237 3.237 0 0 0 3.237-3.239 3.237 3.237 0 0 0-3.237-3.237Z" opacity=".6"/>
  <path fill="#ECECEC" d="M233.928 177.776h11.836v6.476h-11.836v-6.476Zm0-8.412h11.836v6.476h-11.836v-6.476Z"/>
  <path fill="#007CFF" d="M233.928 160.952h11.836v6.476h-11.836v-6.476Zm13.772 16.824h11.836v6.476H247.7v-6.476Z"/>
  <path fill="#ECECEC" d="M247.7 169.364h11.836v6.476H247.7v-6.476Z"/>
  <path fill="#007CFF" d="M247.7 160.952h11.836v6.476H247.7v-6.476Z"/>
  <path fill="#007CFF" d="M227.715 211.773h-28.35a3.237 3.237 0 0 0-3.237 3.237 3.237 3.237 0 0 0 3.237 3.239h28.35a3.237 3.237 0 0 0 3.237-3.239 3.237 3.237 0 0 0-3.237-3.237Zm0-8.412h-28.35a3.238 3.238 0 0 0 0 6.476h28.35a3.238 3.238 0 0 0 0-6.476Zm0-8.412h-28.35a3.237 3.237 0 0 0-3.237 3.237 3.237 3.237 0 0 0 3.237 3.239h28.35a3.237 3.237 0 0 0 3.237-3.239 3.237 3.237 0 0 0-3.237-3.237Z" opacity=".6"/>
  <path fill="#007CFF" d="M233.928 211.772h11.836v6.476h-11.836v-6.476Z"/>
  <path fill="#ECECEC" d="M233.928 203.36h11.836v6.476h-11.836v-6.476Zm0-8.412h11.836v6.476h-11.836v-6.476Zm13.772 16.824h11.836v6.476H247.7v-6.476Zm0-8.412h11.836v6.476H247.7v-6.476Z"/>
  <path fill="#007CFF" d="M247.7 194.948h11.836v6.476H247.7v-6.476Z"/>
  <path fill="#007CFF" d="M227.715 245.769h-28.35a3.237 3.237 0 0 0-3.237 3.237 3.237 3.237 0 0 0 3.237 3.239h28.35a3.237 3.237 0 0 0 3.237-3.239 3.237 3.237 0 0 0-3.237-3.237Z" opacity=".6"/>
  <path fill="#ECECEC" d="M227.715 237.357h-28.35a3.238 3.238 0 0 0 0 6.476h28.35a3.238 3.238 0 0 0 0-6.476Z"/>
  <path fill="#007CFF" d="M227.715 228.945h-28.35a3.238 3.238 0 0 0 0 6.476h28.35a3.238 3.238 0 0 0 0-6.476Z" opacity=".6"/>
  <path fill="#ECECEC" d="M233.928 245.768h11.836v6.476h-11.836v-6.476Z"/>
  <path fill="#007CFF" d="M233.928 237.358h11.836v6.476h-11.836v-6.476Z"/>
  <path fill="#ECECEC" d="M233.928 228.946h11.836v6.476h-11.836v-6.476Z"/>
  <path fill="#007CFF" d="M247.7 245.768h11.836v6.476H247.7v-6.476Zm0-8.41h11.836v6.476H247.7v-6.476Z"/>
  <path fill="#ECECEC" d="M247.7 228.946h11.836v6.476H247.7v-6.476Z"/>
  <path fill="#007CFF" d="M227.715 279.765h-28.35a3.238 3.238 0 0 0 0 6.476h28.35a3.238 3.238 0 0 0 0-6.476Zm0-8.412h-28.35a3.238 3.238 0 0 0 0 6.476h28.35a3.238 3.238 0 0 0 0-6.476Zm0-8.411h-28.35a3.238 3.238 0 0 0 0 6.476h28.35a3.238 3.238 0 0 0 0-6.476Z" opacity=".6"/>
  <path fill="#ECECEC" d="M233.928 279.766h11.836v6.476h-11.836v-6.476Zm0-8.412h11.836v6.476h-11.836v-6.476Zm0-8.412h11.836v6.476h-11.836v-6.476Zm13.772 16.824h11.836v6.476H247.7v-6.476Zm0-8.412h11.836v6.476H247.7v-6.476Z"/>
  <path fill="#007CFF" d="M247.7 262.942h11.836v6.476H247.7v-6.476Z"/>
  <path fill="#E1E1E1" d="M336.135 143.158h27.189a7.588 7.588 0 0 1 7.588 7.589v134.051a7.588 7.588 0 0 1-7.588 7.588h-27.189V143.158Z"/>
  <path fill="#fff" d="M338.841 143.158h-58.534a7.589 7.589 0 0 0-7.588 7.589v134.051a7.589 7.589 0 0 0 7.588 7.588h58.534a7.589 7.589 0 0 0 7.589-7.588V150.747a7.588 7.588 0 0 0-7.589-7.589Z"/>
  <path fill="#E1E1E1" d="M346.431 262.818H272.72v-1.386h73.711v1.386Zm0-29.568H272.72v-1.386h73.711v1.386Zm0-29.57H272.72v-1.385h73.711v1.385Zm0-29.568H272.72v-1.386h73.711v1.386Z"/>
  <path fill="#007CFF" d="M309.472 163.135h-24.657a2.816 2.816 0 0 0 0 5.633h24.657a2.816 2.816 0 1 0 0-5.633Zm0-7.316h-24.657a2.816 2.816 0 0 0 0 5.633h24.657a2.816 2.816 0 1 0 0-5.633Zm0-7.317h-24.657a2.816 2.816 0 0 0 0 5.633h24.657a2.816 2.816 0 1 0 0-5.633Z" opacity=".6"/>
  <path fill="#ECECEC" d="M314.877 272.408h10.295v-5.633h-10.295v5.633Z"/>
  <path fill="#007CFF" d="M314.877 279.726h10.295v-5.634h-10.295v5.634Z"/>
  <path fill="#ECECEC" d="M314.877 287.042h10.295v-5.634h-10.295v5.634Zm11.977-14.634h10.295v-5.633h-10.295v5.633Zm0 7.318h10.295v-5.634h-10.295v5.634Z"/>
  <path fill="#007CFF" d="M326.854 287.042h10.295v-5.634h-10.295v5.634Z"/>
  <path fill="#ECECEC" d="M309.472 192.703h-24.657a2.817 2.817 0 0 0 0 5.634h24.657a2.817 2.817 0 0 0 0-5.634Z"/>
  <path fill="#007CFF" d="M309.472 185.387h-24.657a2.816 2.816 0 0 0 0 5.633h24.657a2.816 2.816 0 1 0 0-5.633Zm0-7.316h-24.657a2.816 2.816 0 0 0 0 5.632h24.657a2.815 2.815 0 1 0 0-5.632Z" opacity=".6"/>
  <path fill="#ECECEC" d="M314.877 242.84h10.295v-5.633h-10.295v5.633Zm0 7.316h10.295v-5.632h-10.295v5.632Z"/>
  <path fill="#007CFF" d="M314.877 257.474h10.295v-5.634h-10.295v5.634Zm11.977-14.634h10.295v-5.633h-10.295v5.633Z"/>
  <path fill="#ECECEC" d="M326.854 250.156h10.295v-5.632h-10.295v5.632Z"/>
  <path fill="#007CFF" d="M326.854 257.474h10.295v-5.634h-10.295v5.634Z"/>
  <path fill="#007CFF" d="M309.472 222.272h-24.657a2.816 2.816 0 0 0 0 5.633h24.657a2.816 2.816 0 1 0 0-5.633Zm0-7.316h-24.657a2.816 2.816 0 0 0 0 5.633h24.657a2.816 2.816 0 1 0 0-5.633Zm0-7.317h-24.657a2.817 2.817 0 0 0 0 5.634h24.657a2.817 2.817 0 0 0 0-5.634Z" opacity=".6"/>
  <path fill="#007CFF" d="M314.877 213.272h10.295v-5.633h-10.295v5.633Z"/>
  <path fill="#ECECEC" d="M314.877 220.588h10.295v-5.633h-10.295v5.633Zm0 7.316h10.295v-5.633h-10.295v5.633Zm11.977-14.632h10.295v-5.633h-10.295v5.633Zm0 7.316h10.295v-5.633h-10.295v5.633Z"/>
  <path fill="#007CFF" d="M326.854 227.904h10.295v-5.633h-10.295v5.633Z"/>
  <path fill="#007CFF" d="M309.472 251.84h-24.657a2.817 2.817 0 0 0 0 5.634h24.657a2.817 2.817 0 0 0 0-5.634Zm0-7.316h-24.657a2.817 2.817 0 0 0 0 5.632h24.657a2.815 2.815 0 1 0 0-5.632Zm0-7.316h-24.657a2.816 2.816 0 0 0 0 5.633h24.657a2.816 2.816 0 1 0 0-5.633Z" opacity=".6"/>
  <path fill="#ECECEC" d="M314.877 183.703h10.295v-5.632h-10.295v5.632Z"/>
  <path fill="#007CFF" d="M314.877 191.019h10.295v-5.633h-10.295v5.633Z"/>
  <path fill="#ECECEC" d="M314.877 198.336h10.295v-5.633h-10.295v5.633Z"/>
  <path fill="#007CFF" d="M326.854 183.703h10.295v-5.632h-10.295v5.632Z"/>
  <path fill="#ECECEC" d="M326.854 191.019h10.295v-5.633h-10.295v5.633Zm0 7.317h10.295v-5.633h-10.295v5.633Z"/>
  <path fill="#007CFF" d="M309.472 281.409h-24.657a2.816 2.816 0 0 0 0 5.633h24.657a2.816 2.816 0 1 0 0-5.633Zm0-7.316h-24.657a2.816 2.816 0 0 0 0 5.633h24.657a2.816 2.816 0 1 0 0-5.633Zm0-7.317h-24.657a2.817 2.817 0 0 0 0 5.634h24.657a2.817 2.817 0 0 0 0-5.634Z" opacity=".6"/>
  <path fill="#007CFF" d="M314.877 154.135h10.295v-5.633h-10.295v5.633Z"/>
  <path fill="#ECECEC" d="M314.877 161.451h10.295v-5.633h-10.295v5.633Zm0 7.316h10.295v-5.633h-10.295v5.633Zm11.977-14.632h10.295v-5.633h-10.295v5.633Zm0 7.316h10.295v-5.633h-10.295v5.633Z"/>
  <path fill="#007CFF" d="M326.854 168.767h10.295v-5.633h-10.295v5.633Z"/>
  <defs>
    <filter id="a" width="230.787" height="152.589" x=".926" y="40.261" color-interpolation-filters="sRGB" filterUnits="userSpaceOnUse">
      <feFlood flood-opacity="0" result="BackgroundImageFix"/>
      <feColorMatrix in="SourceAlpha" result="hardAlpha" values="0 0 0 0 0 0 0 0 0 0 0 0 0 0 0 0 0 0 127 0"/>
      <feOffset dx="4" dy="4"/>
      <feGaussianBlur stdDeviation="9.5"/>
      <feComposite in2="hardAlpha" operator="out"/>
      <feColorMatrix values="0 0 0 0 0.54902 0 0 0 0 0.601218 0 0 0 0 0.827451 0 0 0 0.12 0"/>
      <feBlend in2="BackgroundImageFix" result="effect1_dropShadow_29_133"/>
      <feBlend in="SourceGraphic" in2="effect1_dropShadow_29_133" result="shape"/>
    </filter>
    <filter id="c" width="230.787" height="152.589" x="318.112" y="224.187" color-interpolation-filters="sRGB" filterUnits="userSpaceOnUse">
      <feFlood flood-opacity="0" result="BackgroundImageFix"/>
      <feColorMatrix in="SourceAlpha" result="hardAlpha" values="0 0 0 0 0 0 0 0 0 0 0 0 0 0 0 0 0 0 127 0"/>
      <feOffset dy="6"/>
      <feGaussianBlur stdDeviation="9.5"/>
      <feComposite in2="hardAlpha" operator="out"/>
      <feColorMatrix values="0 0 0 0 0.154167 0 0 0 0 0.154167 0 0 0 0 0.154167 0 0 0 0.12 0"/>
      <feBlend in2="BackgroundImageFix" result="effect1_dropShadow_29_133"/>
      <feBlend in="SourceGraphic" in2="effect1_dropShadow_29_133" result="shape"/>
    </filter>
    <filter id="e" width="170.101" height="116.52" x="344.767" y="0" color-interpolation-filters="sRGB" filterUnits="userSpaceOnUse">
      <feFlood flood-opacity="0" result="BackgroundImageFix"/>
      <feColorMatrix in="SourceAlpha" result="hardAlpha" values="0 0 0 0 0 0 0 0 0 0 0 0 0 0 0 0 0 0 127 0"/>
      <feOffset dy="3"/>
      <feGaussianBlur stdDeviation="9.5"/>
      <feComposite in2="hardAlpha" operator="out"/>
      <feColorMatrix values="0 0 0 0 0.54902 0 0 0 0 0.601218 0 0 0 0 0.827451 0 0 0 0.12 0"/>
      <feBlend in2="BackgroundImageFix" result="effect1_dropShadow_29_133"/>
      <feBlend in="SourceGraphic" in2="effect1_dropShadow_29_133" result="shape"/>
    </filter>
    <filter id="g" width="483.952" height="356.124" x="31.79" y="88.715" color-interpolation-filters="sRGB" filterUnits="userSpaceOnUse">
      <feFlood flood-opacity="0" result="BackgroundImageFix"/>
      <feGaussianBlur in="BackgroundImage" stdDeviation="24.5"/>
      <feComposite in2="SourceAlpha" operator="in" result="effect1_backgroundBlur_29_133"/>
      <feBlend in="SourceGraphic" in2="effect1_backgroundBlur_29_133" result="shape"/>
    </filter>
    <filter id="h" width="440.431" height="275.577" x="20.198" y="39.103" color-interpolation-filters="sRGB" filterUnits="userSpaceOnUse">
      <feFlood flood-opacity="0" result="BackgroundImageFix"/>
      <feColorMatrix in="SourceAlpha" result="hardAlpha" values="0 0 0 0 0 0 0 0 0 0 0 0 0 0 0 0 0 0 127 0"/>
      <feOffset dy="4"/>
      <feGaussianBlur stdDeviation="8.5"/>
      <feComposite in2="hardAlpha" operator="out"/>
      <feColorMatrix values="0 0 0 0 0.0299479 0 0 0 0 0.15764 0 0 0 0 0.3125 0 0 0 0.22 0"/>
      <feBlend in2="BackgroundImageFix" result="effect1_dropShadow_29_133"/>
      <feBlend in="SourceGraphic" in2="effect1_dropShadow_29_133" result="shape"/>
    </filter>
    <filter id="j" width="446.431" height="281.577" x="81.421" y="32.103" color-interpolation-filters="sRGB" filterUnits="userSpaceOnUse">
      <feFlood flood-opacity="0" result="BackgroundImageFix"/>
      <feGaussianBlur in="BackgroundImage" stdDeviation="10"/>
      <feComposite in2="SourceAlpha" operator="in" result="effect1_backgroundBlur_29_133"/>
      <feBlend in="SourceGraphic" in2="effect1_backgroundBlur_29_133" result="shape"/>
    </filter>
    <linearGradient id="b" x1="144.325" x2="-35.777" y1="97.738" y2="119.171" gradientUnits="userSpaceOnUse">
      <stop stop-color="#A0B8FF"/>
      <stop offset="1" stop-color="#F3FEFF"/>
    </linearGradient>
    <linearGradient id="d" x1="481.5" x2="475.373" y1="457" y2="298.091" gradientUnits="userSpaceOnUse">
      <stop stop-color="#A0B8FF"/>
      <stop offset="1" stop-color="#F3FEFF"/>
    </linearGradient>
    <linearGradient id="f" x1="597" x2="479.264" y1="96" y2="-30.606" gradientUnits="userSpaceOnUse">
      <stop stop-color="#A0B8FF"/>
      <stop offset="1" stop-color="#F3FEFF"/>
    </linearGradient>
    <linearGradient id="i" x1="307.887" x2="-71.802" y1="141.653" y2="186.839" gradientUnits="userSpaceOnUse">
      <stop stop-color="#007CFF"/>
      <stop offset="1" stop-color="#DFB5EB"/>
    </linearGradient>
  </defs>
</svg>
