<svg width="549" height="410" viewBox="0 0 549 410" fill="none" xmlns="http://www.w3.org/2000/svg">
<g filter="url(#filter0_d_5_710)">
<path d="M190.721 115.797C190.548 95.014 173.653 78.2194 152.829 78.2194C147.812 78.2194 143.026 79.2034 138.642 80.974C131.201 65.7487 115.566 55.2607 97.4784 55.2607C75.6037 55.2607 57.3237 70.6007 52.777 91.1074C32.205 92.43 15.9264 109.526 15.9264 130.433C15.9264 152.202 33.5744 169.85 55.3437 169.85H180.772C196.204 169.85 208.713 157.339 208.713 141.907C208.713 129.982 201.238 119.807 190.721 115.797Z" fill="url(#paint0_linear_5_710)"/>
</g>
<g filter="url(#filter1_d_5_710)">
<path d="M511.906 297.723C511.732 276.94 494.837 260.145 474.014 260.145C468.997 260.145 464.212 261.129 459.828 262.9C452.386 247.676 436.752 237.187 418.664 237.187C396.789 237.187 378.508 252.527 373.962 273.033C353.39 274.356 337.112 291.452 337.112 312.359C337.112 334.128 354.76 351.776 376.529 351.776H501.956C517.388 351.776 529.898 339.265 529.898 323.833C529.898 311.908 522.424 301.733 511.906 297.723Z" fill="url(#paint1_linear_5_710)"/>
</g>
<path d="M391.799 174.858C391.708 164.08 382.946 155.368 372.146 155.368C369.543 155.368 367.06 155.878 364.787 156.797C360.927 148.9 352.819 143.46 343.438 143.46C332.091 143.46 322.61 151.417 320.251 162.053C309.582 162.738 301.138 171.606 301.138 182.45C301.138 193.741 310.291 202.894 321.583 202.894H386.638C394.642 202.894 401.131 196.405 401.131 188.401C401.131 182.216 397.254 176.938 391.799 174.858Z" fill="#E1E1E1"/>
<g filter="url(#filter2_d_5_710)">
<path d="M483.54 57.4813C483.42 43.2413 471.844 31.732 457.575 31.732C454.137 31.732 450.859 32.4066 447.855 33.62C442.756 23.188 432.043 16 419.648 16C404.659 16 392.133 26.512 389.019 40.564C374.921 41.4706 363.767 53.184 363.767 67.5106C363.767 82.4266 375.86 94.52 390.776 94.52H476.721C487.296 94.52 495.868 85.948 495.868 75.3733C495.868 67.2013 490.747 60.2293 483.54 57.4813Z" fill="url(#paint2_linear_5_710)"/>
</g>
<path d="M207.968 286.008C207.849 271.768 196.272 260.258 182.004 260.258C178.565 260.258 175.286 260.933 172.282 262.146C167.184 251.714 156.47 244.526 144.077 244.526C129.088 244.526 116.561 255.038 113.446 269.09C99.3503 269.997 88.1943 281.71 88.1943 296.037C88.1943 310.953 100.288 323.046 115.205 323.046H201.15C211.724 323.046 220.297 314.474 220.297 303.9C220.297 295.728 215.174 288.756 207.968 286.008Z" fill="#F5F5F5"/>
<path d="M107.852 152.459C107.679 152.459 107.504 152.379 107.384 152.259C107.319 152.192 107.265 152.126 107.239 152.046C107.199 151.966 107.185 151.872 107.185 151.792C107.185 151.699 107.199 151.619 107.239 151.526C107.265 151.446 107.319 151.379 107.384 151.312C107.557 151.139 107.852 151.072 108.104 151.166C108.185 151.206 108.265 151.259 108.319 151.312C108.452 151.446 108.519 151.606 108.519 151.792C108.519 151.872 108.504 151.966 108.465 152.046C108.437 152.126 108.384 152.192 108.319 152.259C108.199 152.379 108.025 152.459 107.852 152.459Z" fill="#E1E1E1"/>
<path d="M107.185 159.139C107.185 158.766 107.491 158.472 107.852 158.472C108.224 158.472 108.519 158.766 108.519 159.139C108.519 159.499 108.224 159.806 107.852 159.806C107.491 159.806 107.185 159.499 107.185 159.139ZM107.185 166.486C107.185 166.112 107.491 165.819 107.852 165.819C108.224 165.819 108.519 166.112 108.519 166.486C108.519 166.846 108.224 167.152 107.852 167.152C107.491 167.152 107.185 166.846 107.185 166.486ZM107.185 173.832C107.185 173.459 107.491 173.166 107.852 173.166C108.224 173.166 108.519 173.459 108.519 173.832C108.519 174.192 108.224 174.499 107.852 174.499C107.491 174.499 107.185 174.192 107.185 173.832ZM107.185 181.179C107.185 180.806 107.491 180.512 107.852 180.512C108.224 180.512 108.519 180.806 108.519 181.179C108.519 181.552 108.224 181.846 107.852 181.846C107.491 181.846 107.185 181.552 107.185 181.179Z" fill="#E1E1E1"/>
<path d="M107.852 189.192C107.771 189.192 107.679 189.179 107.599 189.139C107.519 189.112 107.437 189.059 107.384 188.992C107.319 188.939 107.265 188.859 107.239 188.779C107.199 188.699 107.185 188.619 107.185 188.526C107.185 188.446 107.199 188.352 107.239 188.272C107.265 188.192 107.319 188.112 107.384 188.059C107.437 187.992 107.519 187.952 107.599 187.912C107.759 187.846 107.944 187.846 108.104 187.912C108.185 187.952 108.265 187.992 108.319 188.059C108.384 188.112 108.437 188.192 108.465 188.272C108.504 188.352 108.519 188.446 108.519 188.526C108.519 188.699 108.452 188.872 108.319 188.992C108.265 189.059 108.185 189.112 108.104 189.139C108.025 189.179 107.944 189.192 107.852 189.192Z" fill="#E1E1E1"/>
<path d="M115.331 188.526C115.331 188.166 115.638 187.859 115.998 187.859C116.371 187.859 116.664 188.166 116.664 188.526C116.664 188.899 116.371 189.192 115.998 189.192C115.638 189.192 115.331 188.899 115.331 188.526ZM123.478 188.526C123.478 188.166 123.786 187.859 124.144 187.859C124.519 187.859 124.811 188.166 124.811 188.526C124.811 188.899 124.519 189.192 124.144 189.192C123.786 189.192 123.478 188.899 123.478 188.526ZM131.626 188.526C131.626 188.166 131.931 187.859 132.292 187.859C132.664 187.859 132.959 188.166 132.959 188.526C132.959 188.899 132.664 189.192 132.292 189.192C131.931 189.192 131.626 188.899 131.626 188.526ZM139.786 188.526C139.786 188.166 140.079 187.859 140.452 187.859C140.811 187.859 141.104 188.166 141.104 188.526C141.104 188.899 140.811 189.192 140.452 189.192C140.079 189.192 139.786 188.899 139.786 188.526ZM147.918 188.526C147.918 188.166 148.224 187.859 148.584 187.859C148.959 187.859 149.264 188.166 149.264 188.526C149.264 188.899 148.959 189.192 148.584 189.192C148.224 189.192 147.918 188.899 147.918 188.526ZM156.079 188.526C156.079 188.166 156.371 187.859 156.746 187.859C157.104 187.859 157.412 188.166 157.412 188.526C157.412 188.899 157.104 189.192 156.746 189.192C156.371 189.192 156.079 188.899 156.079 188.526ZM164.224 188.526C164.224 188.166 164.519 187.859 164.891 187.859C165.251 187.859 165.558 188.166 165.558 188.526C165.558 188.899 165.251 189.192 164.891 189.192C164.519 189.192 164.224 188.899 164.224 188.526ZM172.371 188.526C172.371 188.166 172.664 187.859 173.038 187.859C173.399 187.859 173.704 188.166 173.704 188.526C173.704 188.899 173.399 189.192 173.038 189.192C172.664 189.192 172.371 188.899 172.371 188.526ZM180.519 188.526C180.519 188.166 180.811 187.859 181.186 187.859C181.558 187.859 181.852 188.166 181.852 188.526C181.852 188.899 181.558 189.192 181.186 189.192C180.811 189.192 180.519 188.899 180.519 188.526ZM188.664 188.526C188.664 188.166 188.959 187.859 189.331 187.859C189.704 187.859 189.998 188.166 189.998 188.526C189.998 188.899 189.704 189.192 189.331 189.192C188.959 189.192 188.664 188.899 188.664 188.526ZM196.811 188.526C196.811 188.166 197.119 187.859 197.478 187.859C197.852 187.859 198.144 188.166 198.144 188.526C198.144 188.899 197.852 189.192 197.478 189.192C197.119 189.192 196.811 188.899 196.811 188.526ZM204.959 188.526C204.959 188.166 205.264 187.859 205.626 187.859C205.998 187.859 206.292 188.166 206.292 188.526C206.292 188.899 205.998 189.192 205.626 189.192C205.264 189.192 204.959 188.899 204.959 188.526ZM213.119 188.526C213.119 188.166 213.412 187.859 213.786 187.859C214.144 187.859 214.452 188.166 214.452 188.526C214.452 188.899 214.144 189.192 213.786 189.192C213.412 189.192 213.119 188.899 213.119 188.526ZM221.264 188.526C221.264 188.166 221.558 187.859 221.931 187.859C222.292 187.859 222.584 188.166 222.584 188.526C222.584 188.899 222.292 189.192 221.931 189.192C221.558 189.192 221.264 188.899 221.264 188.526ZM229.412 188.526C229.412 188.166 229.704 187.859 230.066 187.859C230.438 187.859 230.746 188.166 230.746 188.526C230.746 188.899 230.438 189.192 230.066 189.192C229.704 189.192 229.412 188.899 229.412 188.526Z" fill="#E1E1E1"/>
<path d="M238.224 189.192C238.132 189.192 238.051 189.179 237.972 189.139C237.891 189.112 237.811 189.059 237.746 188.992C237.692 188.939 237.639 188.859 237.611 188.779C237.572 188.699 237.558 188.619 237.558 188.526C237.558 188.446 237.572 188.352 237.611 188.272C237.639 188.192 237.692 188.112 237.746 188.059C237.811 187.992 237.891 187.939 237.972 187.912C238.132 187.846 238.318 187.846 238.478 187.912C238.558 187.939 238.639 187.992 238.692 188.059C238.746 188.112 238.799 188.192 238.838 188.272C238.864 188.352 238.891 188.446 238.891 188.526C238.891 188.699 238.811 188.872 238.692 188.992C238.639 189.059 238.558 189.112 238.478 189.139C238.399 189.179 238.306 189.192 238.224 189.192Z" fill="#E1E1E1"/>
<path d="M237.558 117.059C237.558 116.686 237.852 116.392 238.224 116.392C238.586 116.392 238.891 116.686 238.891 117.059C238.891 117.432 238.586 117.726 238.224 117.726C237.852 117.726 237.558 117.432 237.558 117.059ZM237.558 125.006C237.558 124.632 237.852 124.339 238.224 124.339C238.586 124.339 238.891 124.632 238.891 125.006C238.891 125.366 238.586 125.672 238.224 125.672C237.852 125.672 237.558 125.366 237.558 125.006ZM237.558 132.939C237.558 132.579 237.852 132.272 238.224 132.272C238.586 132.272 238.891 132.579 238.891 132.939C238.891 133.312 238.586 133.606 238.224 133.606C237.852 133.606 237.558 133.312 237.558 132.939ZM237.558 140.886C237.558 140.512 237.852 140.219 238.224 140.219C238.586 140.219 238.891 140.512 238.891 140.886C238.891 141.246 238.586 141.552 238.224 141.552C237.852 141.552 237.558 141.246 237.558 140.886ZM237.558 148.819C237.558 148.459 237.852 148.152 238.224 148.152C238.586 148.152 238.891 148.459 238.891 148.819C238.891 149.192 238.586 149.486 238.224 149.486C237.852 149.486 237.558 149.192 237.558 148.819ZM237.558 156.766C237.558 156.392 237.852 156.099 238.224 156.099C238.586 156.099 238.891 156.392 238.891 156.766C238.891 157.139 238.586 157.432 238.224 157.432C237.852 157.432 237.558 157.139 237.558 156.766ZM237.558 164.699C237.558 164.339 237.852 164.032 238.224 164.032C238.586 164.032 238.891 164.339 238.891 164.699C238.891 165.072 238.586 165.366 238.224 165.366C237.852 165.366 237.558 165.072 237.558 164.699ZM237.558 172.646C237.558 172.272 237.852 171.979 238.224 171.979C238.586 171.979 238.891 172.272 238.891 172.646C238.891 173.019 238.586 173.312 238.224 173.312C237.852 173.312 237.558 173.019 237.558 172.646ZM237.558 180.592C237.558 180.219 237.852 179.926 238.224 179.926C238.586 179.926 238.891 180.219 238.891 180.592C238.891 180.952 238.586 181.259 238.224 181.259C237.852 181.259 237.558 180.952 237.558 180.592Z" fill="#E1E1E1"/>
<path d="M238.224 109.792C238.132 109.792 238.051 109.766 237.972 109.739C237.891 109.699 237.811 109.646 237.746 109.592C237.692 109.526 237.639 109.459 237.611 109.379C237.572 109.299 237.558 109.206 237.558 109.126C237.558 109.032 237.572 108.952 237.611 108.859C237.639 108.779 237.692 108.712 237.746 108.646C237.811 108.592 237.891 108.539 237.972 108.499C238.132 108.432 238.318 108.432 238.478 108.499C238.558 108.539 238.639 108.592 238.692 108.646C238.811 108.779 238.891 108.952 238.891 109.126C238.891 109.299 238.811 109.472 238.692 109.592C238.572 109.712 238.399 109.792 238.224 109.792Z" fill="#E1E1E1"/>
<path d="M245.544 109.126C245.544 108.752 245.838 108.446 246.211 108.446C246.572 108.446 246.878 108.752 246.878 109.126C246.878 109.486 246.572 109.792 246.211 109.792C245.838 109.792 245.544 109.486 245.544 109.126ZM253.518 109.126C253.518 108.752 253.824 108.446 254.184 108.446C254.558 108.446 254.851 108.752 254.851 109.126C254.851 109.486 254.558 109.792 254.184 109.792C253.824 109.792 253.518 109.486 253.518 109.126ZM261.504 109.126C261.504 108.752 261.798 108.446 262.171 108.446C262.544 108.446 262.838 108.752 262.838 109.126C262.838 109.486 262.544 109.792 262.171 109.792C261.798 109.792 261.504 109.486 261.504 109.126ZM269.491 109.126C269.491 108.752 269.786 108.446 270.158 108.446C270.518 108.446 270.824 108.752 270.824 109.126C270.824 109.486 270.518 109.792 270.158 109.792C269.786 109.792 269.491 109.486 269.491 109.126ZM277.478 109.126C277.478 108.752 277.771 108.446 278.144 108.446C278.504 108.446 278.798 108.752 278.798 109.126C278.798 109.486 278.504 109.792 278.144 109.792C277.771 109.792 277.478 109.486 277.478 109.126ZM285.452 109.126C285.452 108.752 285.758 108.446 286.119 108.446C286.491 108.446 286.786 108.752 286.786 109.126C286.786 109.486 286.491 109.792 286.119 109.792C285.758 109.792 285.452 109.486 285.452 109.126ZM293.438 109.126C293.438 108.752 293.732 108.446 294.104 108.446C294.464 108.446 294.771 108.752 294.771 109.126C294.771 109.486 294.464 109.792 294.104 109.792C293.732 109.792 293.438 109.486 293.438 109.126ZM301.424 109.126C301.424 108.752 301.718 108.446 302.091 108.446C302.452 108.446 302.758 108.752 302.758 109.126C302.758 109.486 302.452 109.792 302.091 109.792C301.718 109.792 301.424 109.486 301.424 109.126ZM309.399 109.126C309.399 108.752 309.704 108.446 310.066 108.446C310.438 108.446 310.744 108.752 310.744 109.126C310.744 109.486 310.438 109.792 310.066 109.792C309.704 109.792 309.399 109.486 309.399 109.126ZM317.384 109.126C317.384 108.752 317.691 108.446 318.051 108.446C318.424 108.446 318.718 108.752 318.718 109.126C318.718 109.486 318.424 109.792 318.051 109.792C317.691 109.792 317.384 109.486 317.384 109.126ZM325.371 109.126C325.371 108.752 325.664 108.446 326.038 108.446C326.411 108.446 326.704 108.752 326.704 109.126C326.704 109.486 326.411 109.792 326.038 109.792C325.664 109.792 325.371 109.486 325.371 109.126ZM333.358 109.126C333.358 108.752 333.651 108.446 334.024 108.446C334.384 108.446 334.691 108.752 334.691 109.126C334.691 109.486 334.384 109.792 334.024 109.792C333.651 109.792 333.358 109.486 333.358 109.126ZM341.331 109.126C341.331 108.752 341.638 108.446 342.012 108.446C342.371 108.446 342.664 108.752 342.664 109.126C342.664 109.486 342.371 109.792 342.012 109.792C341.638 109.792 341.331 109.486 341.331 109.126ZM349.318 109.126C349.318 108.752 349.626 108.446 349.984 108.446C350.358 108.446 350.651 108.752 350.651 109.126C350.651 109.486 350.358 109.792 349.984 109.792C349.626 109.792 349.318 109.486 349.318 109.126ZM357.304 109.126C357.304 108.752 357.598 108.446 357.971 108.446C358.331 108.446 358.638 108.752 358.638 109.126C358.638 109.486 358.331 109.792 357.971 109.792C357.598 109.792 357.304 109.486 357.304 109.126ZM365.292 109.126C365.292 108.752 365.584 108.446 365.959 108.446C366.318 108.446 366.626 108.752 366.626 109.126C366.626 109.486 366.318 109.792 365.959 109.792C365.584 109.792 365.292 109.486 365.292 109.126ZM373.264 109.126C373.264 108.752 373.572 108.446 373.931 108.446C374.304 108.446 374.598 108.752 374.598 109.126C374.598 109.486 374.304 109.792 373.931 109.792C373.572 109.792 373.264 109.486 373.264 109.126ZM381.251 109.126C381.251 108.752 381.544 108.446 381.918 108.446C382.292 108.446 382.584 108.752 382.584 109.126C382.584 109.486 382.292 109.792 381.918 109.792C381.544 109.792 381.251 109.486 381.251 109.126ZM389.239 109.126C389.239 108.752 389.531 108.446 389.906 108.446C390.264 108.446 390.572 108.752 390.572 109.126C390.572 109.486 390.264 109.792 389.906 109.792C389.531 109.792 389.239 109.486 389.239 109.126ZM397.224 109.126C397.224 108.752 397.518 108.446 397.891 108.446C398.251 108.446 398.544 108.752 398.544 109.126C398.544 109.486 398.251 109.792 397.891 109.792C397.518 109.792 397.224 109.486 397.224 109.126ZM405.198 109.126C405.198 108.752 405.504 108.446 405.864 108.446C406.239 108.446 406.531 108.752 406.531 109.126C406.531 109.486 406.239 109.792 405.864 109.792C405.504 109.792 405.198 109.486 405.198 109.126ZM413.184 109.126C413.184 108.752 413.478 108.446 413.851 108.446C414.224 108.446 414.518 108.752 414.518 109.126C414.518 109.486 414.224 109.792 413.851 109.792C413.478 109.792 413.184 109.486 413.184 109.126ZM421.171 109.126C421.171 108.752 421.464 108.446 421.838 108.446C422.198 108.446 422.504 108.752 422.504 109.126C422.504 109.486 422.198 109.792 421.838 109.792C421.464 109.792 421.171 109.486 421.171 109.126Z" fill="#E1E1E1"/>
<path d="M429.825 109.792C429.638 109.792 429.465 109.712 429.346 109.592C429.225 109.459 429.158 109.299 429.158 109.126C429.158 108.952 429.225 108.779 429.346 108.646C429.411 108.592 429.478 108.539 429.558 108.499C429.811 108.406 430.119 108.459 430.293 108.646C430.346 108.712 430.399 108.779 430.438 108.872C430.465 108.952 430.478 109.032 430.478 109.126C430.478 109.299 430.411 109.472 430.293 109.592C430.171 109.712 429.998 109.792 429.825 109.792Z" fill="#E1E1E1"/>
<path d="M429.145 62.9523C429.145 62.5923 429.451 62.2856 429.811 62.2856C430.185 62.2856 430.491 62.5923 430.491 62.9523C430.491 63.3256 430.185 63.619 429.811 63.619C429.451 63.619 429.145 63.3256 429.145 62.9523ZM429.145 70.6456C429.145 70.2856 429.451 69.979 429.811 69.979C430.185 69.979 430.491 70.2856 430.491 70.6456C430.491 71.019 430.185 71.3123 429.811 71.3123C429.451 71.3123 429.145 71.019 429.145 70.6456ZM429.145 78.339C429.145 77.979 429.451 77.6723 429.811 77.6723C430.185 77.6723 430.491 77.979 430.491 78.339C430.491 78.7123 430.185 79.0056 429.811 79.0056C429.451 79.0056 429.145 78.7123 429.145 78.339ZM429.145 86.0323C429.145 85.6723 429.451 85.3656 429.811 85.3656C430.185 85.3656 430.491 85.6723 430.491 86.0323C430.491 86.4056 430.185 86.699 429.811 86.699C429.451 86.699 429.145 86.4056 429.145 86.0323ZM429.145 93.7256C429.145 93.3656 429.451 93.059 429.811 93.059C430.185 93.059 430.491 93.3656 430.491 93.7256C430.491 94.099 430.185 94.4056 429.811 94.4056C429.451 94.4056 429.145 94.099 429.145 93.7256ZM429.145 101.419C429.145 101.059 429.451 100.766 429.811 100.766C430.185 100.766 430.491 101.059 430.491 101.419C430.491 101.792 430.185 102.086 429.811 102.086C429.451 102.086 429.145 101.792 429.145 101.419Z" fill="#E1E1E1"/>
<path d="M429.825 55.9257C429.638 55.9257 429.478 55.8591 429.346 55.7257C429.225 55.6057 429.158 55.4324 429.158 55.2591C429.158 55.1657 429.171 55.0857 429.198 55.0057C429.239 54.9257 429.293 54.8457 429.346 54.7924C429.598 54.5391 430.051 54.5391 430.293 54.7924C430.411 54.9124 430.478 55.0857 430.478 55.2591C430.478 55.3524 430.465 55.4324 430.438 55.5124C430.399 55.5924 430.346 55.6724 430.293 55.7257C430.225 55.7924 430.158 55.8457 430.078 55.8724C429.998 55.9124 429.906 55.9257 429.825 55.9257Z" fill="#E1E1E1"/>
<path d="M154.252 306.819C154.065 306.819 153.89 306.752 153.772 306.632C153.705 306.566 153.665 306.499 153.625 306.406C153.598 306.326 153.572 306.246 153.572 306.152C153.572 305.979 153.652 305.806 153.772 305.686C153.958 305.499 154.252 305.446 154.504 305.539C154.585 305.579 154.652 305.619 154.718 305.686C154.837 305.806 154.905 305.979 154.905 306.152C154.905 306.246 154.89 306.326 154.865 306.406C154.825 306.499 154.772 306.566 154.718 306.632C154.652 306.686 154.585 306.739 154.504 306.766C154.425 306.806 154.332 306.819 154.252 306.819Z" fill="#E1E1E1"/>
<path d="M153.585 314.339C153.585 313.966 153.878 313.672 154.252 313.672C154.612 313.672 154.905 313.966 154.905 314.339C154.905 314.699 154.612 315.006 154.252 315.006C153.878 315.006 153.585 314.699 153.585 314.339ZM153.585 322.512C153.585 322.152 153.878 321.846 154.252 321.846C154.612 321.846 154.905 322.152 154.905 322.512C154.905 322.872 154.612 323.179 154.252 323.179C153.878 323.179 153.585 322.872 153.585 322.512ZM153.585 330.686C153.585 330.326 153.878 330.019 154.252 330.019C154.612 330.019 154.905 330.326 154.905 330.686C154.905 331.059 154.612 331.352 154.252 331.352C153.878 331.352 153.585 331.059 153.585 330.686ZM153.585 338.872C153.585 338.499 153.878 338.206 154.252 338.206C154.612 338.206 154.905 338.499 154.905 338.872C154.905 339.232 154.612 339.539 154.252 339.539C153.878 339.539 153.585 339.232 153.585 338.872Z" fill="#E1E1E1"/>
<path d="M154.252 347.712C154.065 347.712 153.89 347.646 153.772 347.512C153.705 347.459 153.665 347.379 153.625 347.299C153.598 347.219 153.572 347.139 153.572 347.046C153.572 346.966 153.598 346.872 153.625 346.792C153.665 346.712 153.705 346.632 153.772 346.579C153.958 346.392 154.252 346.326 154.504 346.432C154.585 346.459 154.652 346.512 154.718 346.579C154.772 346.632 154.825 346.712 154.865 346.792C154.89 346.872 154.905 346.966 154.905 347.046C154.905 347.139 154.89 347.219 154.865 347.299C154.825 347.379 154.772 347.459 154.718 347.512C154.652 347.579 154.585 347.632 154.504 347.659C154.425 347.699 154.332 347.712 154.252 347.712Z" fill="#E1E1E1"/>
<path d="M161.211 347.046C161.211 346.672 161.518 346.379 161.878 346.379C162.251 346.379 162.545 346.672 162.545 347.046C162.545 347.419 162.251 347.712 161.878 347.712C161.518 347.712 161.211 347.419 161.211 347.046ZM168.851 347.046C168.851 346.672 169.145 346.379 169.518 346.379C169.878 346.379 170.185 346.672 170.185 347.046C170.185 347.419 169.878 347.712 169.518 347.712C169.145 347.712 168.851 347.419 168.851 347.046ZM176.478 347.046C176.478 346.672 176.786 346.379 177.145 346.379C177.518 346.379 177.811 346.672 177.811 347.046C177.811 347.419 177.518 347.712 177.145 347.712C176.786 347.712 176.478 347.419 176.478 347.046ZM184.119 347.046C184.119 346.672 184.411 346.379 184.786 346.379C185.145 346.379 185.453 346.672 185.453 347.046C185.453 347.419 185.145 347.712 184.786 347.712C184.411 347.712 184.119 347.419 184.119 347.046ZM191.745 347.046C191.745 346.672 192.051 346.379 192.425 346.379C192.786 346.379 193.078 346.672 193.078 347.046C193.078 347.419 192.786 347.712 192.425 347.712C192.051 347.712 191.745 347.419 191.745 347.046ZM199.385 347.046C199.385 346.672 199.679 346.379 200.051 346.379C200.411 346.379 200.718 346.672 200.718 347.046C200.718 347.419 200.411 347.712 200.051 347.712C199.679 347.712 199.385 347.419 199.385 347.046ZM207.025 347.046C207.025 346.672 207.318 346.379 207.691 346.379C208.051 346.379 208.358 346.672 208.358 347.046C208.358 347.419 208.051 347.712 207.691 347.712C207.318 347.712 207.025 347.419 207.025 347.046ZM214.651 347.046C214.651 346.672 214.959 346.379 215.318 346.379C215.691 346.379 215.985 346.672 215.985 347.046C215.985 347.419 215.691 347.712 215.318 347.712C214.959 347.712 214.651 347.419 214.651 347.046ZM222.293 347.046C222.293 346.672 222.585 346.379 222.959 346.379C223.318 346.379 223.626 346.672 223.626 347.046C223.626 347.419 223.318 347.712 222.959 347.712C222.585 347.712 222.293 347.419 222.293 347.046ZM229.918 347.046C229.918 346.672 230.225 346.379 230.585 346.379C230.959 346.379 231.251 346.672 231.251 347.046C231.251 347.419 230.959 347.712 230.585 347.712C230.225 347.712 229.918 347.419 229.918 347.046Z" fill="#E1E1E1"/>
<path d="M238.224 347.712C238.132 347.712 238.051 347.699 237.972 347.659C237.891 347.632 237.811 347.579 237.746 347.512C237.692 347.459 237.639 347.379 237.611 347.299C237.572 347.219 237.558 347.139 237.558 347.046C237.558 346.872 237.626 346.699 237.746 346.579C237.811 346.512 237.891 346.459 237.972 346.432C238.132 346.366 238.318 346.366 238.478 346.432C238.558 346.459 238.639 346.512 238.692 346.579C238.811 346.699 238.891 346.872 238.891 347.046C238.891 347.126 238.878 347.219 238.838 347.299C238.799 347.379 238.758 347.459 238.692 347.512C238.639 347.579 238.558 347.632 238.478 347.659C238.399 347.699 238.306 347.712 238.224 347.712Z" fill="#E1E1E1"/>
<path d="M237.558 238.366C237.558 237.992 237.852 237.699 238.224 237.699C238.586 237.699 238.891 237.992 238.891 238.366C238.891 238.739 238.586 239.032 238.224 239.032C237.852 239.032 237.558 238.739 237.558 238.366ZM237.558 246.126C237.558 245.752 237.852 245.459 238.224 245.459C238.586 245.459 238.891 245.752 238.891 246.126C238.891 246.499 238.586 246.792 238.224 246.792C237.852 246.792 237.558 246.499 237.558 246.126ZM237.558 253.886C237.558 253.526 237.852 253.219 238.224 253.219C238.586 253.219 238.891 253.526 238.891 253.886C238.891 254.259 238.586 254.552 238.224 254.552C237.852 254.552 237.558 254.259 237.558 253.886ZM237.558 261.659C237.558 261.286 237.852 260.992 238.224 260.992C238.586 260.992 238.891 261.286 238.891 261.659C238.891 262.019 238.586 262.326 238.224 262.326C237.852 262.326 237.558 262.019 237.558 261.659ZM237.558 269.419C237.558 269.046 237.852 268.752 238.224 268.752C238.586 268.752 238.891 269.046 238.891 269.419C238.891 269.779 238.586 270.086 238.224 270.086C237.852 270.086 237.558 269.779 237.558 269.419ZM237.558 277.179C237.558 276.806 237.852 276.512 238.224 276.512C238.586 276.512 238.891 276.806 238.891 277.179C238.891 277.552 238.586 277.846 238.224 277.846C237.852 277.846 237.558 277.552 237.558 277.179ZM237.558 284.939C237.558 284.579 237.852 284.272 238.224 284.272C238.586 284.272 238.891 284.579 238.891 284.939C238.891 285.312 238.586 285.606 238.224 285.606C237.852 285.606 237.558 285.312 237.558 284.939ZM237.558 292.712C237.558 292.339 237.852 292.046 238.224 292.046C238.586 292.046 238.891 292.339 238.891 292.712C238.891 293.072 238.586 293.379 238.224 293.379C237.852 293.379 237.558 293.072 237.558 292.712ZM237.558 300.472C237.558 300.099 237.852 299.806 238.224 299.806C238.586 299.806 238.891 300.099 238.891 300.472C238.891 300.832 238.586 301.139 238.224 301.139C237.852 301.139 237.558 300.832 237.558 300.472ZM237.558 308.232C237.558 307.859 237.852 307.566 238.224 307.566C238.586 307.566 238.891 307.859 238.891 308.232C238.891 308.592 238.586 308.899 238.224 308.899C237.852 308.899 237.558 308.592 237.558 308.232ZM237.558 315.992C237.558 315.632 237.852 315.326 238.224 315.326C238.586 315.326 238.891 315.632 238.891 315.992C238.891 316.366 238.586 316.659 238.224 316.659C237.852 316.659 237.558 316.366 237.558 315.992ZM237.558 323.752C237.558 323.392 237.852 323.086 238.224 323.086C238.586 323.086 238.891 323.392 238.891 323.752C238.891 324.126 238.586 324.419 238.224 324.419C237.852 324.419 237.558 324.126 237.558 323.752ZM237.558 331.526C237.558 331.152 237.852 330.846 238.224 330.846C238.586 330.846 238.891 331.152 238.891 331.526C238.891 331.886 238.586 332.192 238.224 332.192C237.852 332.192 237.558 331.886 237.558 331.526ZM237.558 339.286C237.558 338.912 237.852 338.619 238.224 338.619C238.586 338.619 238.891 338.912 238.891 339.286C238.891 339.646 238.586 339.952 238.224 339.952C237.852 339.952 237.558 339.646 237.558 339.286Z" fill="#E1E1E1"/>
<path d="M238.224 231.272C238.132 231.272 238.051 231.246 237.972 231.219C237.891 231.179 237.811 231.139 237.746 231.072C237.692 231.006 237.639 230.939 237.611 230.859C237.572 230.779 237.558 230.686 237.558 230.606C237.558 230.419 237.626 230.259 237.746 230.126C237.811 230.072 237.891 230.019 237.972 229.992C238.132 229.926 238.318 229.926 238.478 229.992C238.558 230.019 238.639 230.072 238.692 230.126C238.811 230.259 238.891 230.432 238.891 230.606C238.891 230.686 238.878 230.779 238.838 230.859C238.799 230.939 238.758 231.006 238.692 231.072C238.639 231.126 238.558 231.179 238.478 231.219C238.399 231.246 238.306 231.272 238.224 231.272Z" fill="#E1E1E1"/>
<path d="M245.625 230.606C245.625 230.232 245.919 229.939 246.292 229.939C246.652 229.939 246.959 230.232 246.959 230.606C246.959 230.966 246.652 231.272 246.292 231.272C245.919 231.272 245.625 230.966 245.625 230.606ZM253.692 230.606C253.692 230.232 253.985 229.939 254.359 229.939C254.717 229.939 255.025 230.232 255.025 230.606C255.025 230.966 254.717 231.272 254.359 231.272C253.985 231.272 253.692 230.966 253.692 230.606ZM261.745 230.606C261.745 230.232 262.051 229.939 262.412 229.939C262.785 229.939 263.079 230.232 263.079 230.606C263.079 230.966 262.785 231.272 262.412 231.272C262.051 231.272 261.745 230.966 261.745 230.606ZM269.812 230.606C269.812 230.232 270.119 229.939 270.479 229.939C270.852 229.939 271.145 230.232 271.145 230.606C271.145 230.966 270.852 231.272 270.479 231.272C270.119 231.272 269.812 230.966 269.812 230.606ZM277.877 230.606C277.877 230.232 278.171 229.939 278.544 229.939C278.919 229.939 279.211 230.232 279.211 230.606C279.211 230.966 278.919 231.272 278.544 231.272C278.171 231.272 277.877 230.966 277.877 230.606ZM285.944 230.606C285.944 230.232 286.252 229.939 286.611 229.939C286.985 229.939 287.277 230.232 287.277 230.606C287.277 230.966 286.985 231.272 286.611 231.272C286.252 231.272 285.944 230.966 285.944 230.606ZM294.012 230.606C294.012 230.232 294.305 229.939 294.679 229.939C295.039 229.939 295.345 230.232 295.345 230.606C295.345 230.966 295.039 231.272 294.679 231.272C294.305 231.272 294.012 230.966 294.012 230.606ZM302.079 230.606C302.079 230.232 302.372 229.939 302.745 229.939C303.104 229.939 303.412 230.232 303.412 230.606C303.412 230.966 303.104 231.272 302.745 231.272C302.372 231.272 302.079 230.966 302.079 230.606ZM310.145 230.606C310.145 230.232 310.437 229.939 310.812 229.939C311.171 229.939 311.479 230.232 311.479 230.606C311.479 230.966 311.171 231.272 310.812 231.272C310.437 231.272 310.145 230.966 310.145 230.606ZM318.211 230.606C318.211 230.232 318.504 229.939 318.865 229.939C319.239 229.939 319.532 230.232 319.532 230.606C319.532 230.966 319.239 231.272 318.865 231.272C318.504 231.272 318.211 230.966 318.211 230.606ZM326.264 230.606C326.264 230.232 326.572 229.939 326.931 229.939C327.305 229.939 327.597 230.232 327.597 230.606C327.597 230.966 327.305 231.272 326.931 231.272C326.572 231.272 326.264 230.966 326.264 230.606ZM334.331 230.606C334.331 230.232 334.639 229.939 334.997 229.939C335.372 229.939 335.679 230.232 335.679 230.606C335.679 230.966 335.372 231.272 334.997 231.272C334.639 231.272 334.331 230.966 334.331 230.606ZM342.399 230.606C342.399 230.232 342.705 229.939 343.065 229.939C343.437 229.939 343.732 230.232 343.732 230.606C343.732 230.966 343.437 231.272 343.065 231.272C342.705 231.272 342.399 230.966 342.399 230.606Z" fill="#E1E1E1"/>
<path d="M351.132 231.272C350.958 231.272 350.785 231.192 350.664 231.072C350.598 231.006 350.557 230.939 350.518 230.859C350.492 230.779 350.465 230.686 350.465 230.606C350.465 230.512 350.492 230.432 350.518 230.352C350.557 230.259 350.598 230.192 350.664 230.126C350.717 230.072 350.798 230.019 350.878 229.992C351.05 229.912 351.224 229.912 351.384 229.992C351.465 230.019 351.545 230.072 351.61 230.126C351.664 230.192 351.717 230.259 351.745 230.352C351.785 230.432 351.798 230.512 351.798 230.606C351.798 230.779 351.732 230.952 351.61 231.072C351.478 231.192 351.305 231.272 351.132 231.272Z" fill="#E1E1E1"/>
<path d="M350.465 196.939C350.465 196.579 350.77 196.272 351.132 196.272C351.504 196.272 351.798 196.579 351.798 196.939C351.798 197.312 351.504 197.606 351.132 197.606C350.77 197.606 350.465 197.312 350.465 196.939ZM350.465 205.352C350.465 204.992 350.77 204.686 351.132 204.686C351.504 204.686 351.798 204.992 351.798 205.352C351.798 205.726 351.504 206.019 351.132 206.019C350.77 206.019 350.465 205.726 350.465 205.352ZM350.465 213.779C350.465 213.406 350.77 213.112 351.132 213.112C351.504 213.112 351.798 213.406 351.798 213.779C351.798 214.139 351.504 214.432 351.132 214.432C350.77 214.432 350.465 214.139 350.465 213.779ZM350.465 222.192C350.465 221.819 350.77 221.526 351.132 221.526C351.504 221.526 351.798 221.819 351.798 222.192C351.798 222.552 351.504 222.859 351.132 222.859C350.77 222.859 350.465 222.552 350.465 222.192Z" fill="#E1E1E1"/>
<path d="M351.132 189.192C350.958 189.192 350.785 189.126 350.664 189.006C350.598 188.939 350.557 188.859 350.518 188.779C350.492 188.699 350.465 188.619 350.465 188.526C350.465 188.446 350.492 188.352 350.518 188.272C350.557 188.192 350.598 188.112 350.664 188.059C350.717 187.992 350.798 187.952 350.878 187.912C351.05 187.846 351.224 187.846 351.384 187.912C351.478 187.952 351.545 187.992 351.61 188.059C351.664 188.112 351.717 188.192 351.745 188.272C351.785 188.352 351.798 188.446 351.798 188.526C351.798 188.699 351.732 188.872 351.61 189.006C351.478 189.126 351.305 189.192 351.132 189.192Z" fill="#E1E1E1"/>
<path d="M429.825 336.606C429.638 336.606 429.465 336.526 429.346 336.406C429.225 336.286 429.158 336.112 429.158 335.939C429.158 335.766 429.225 335.592 429.346 335.459C429.531 335.286 429.825 335.219 430.078 335.326C430.158 335.352 430.225 335.406 430.293 335.459C430.346 335.526 430.399 335.592 430.438 335.686C430.465 335.766 430.478 335.846 430.478 335.939C430.478 336.112 430.411 336.286 430.293 336.406C430.171 336.526 429.998 336.606 429.825 336.606Z" fill="#E1E1E1"/>
<path d="M429.145 343.619C429.145 343.246 429.451 342.952 429.811 342.952C430.185 342.952 430.491 343.246 430.491 343.619C430.491 343.979 430.185 344.286 429.811 344.286C429.451 344.286 429.145 343.979 429.145 343.619ZM429.145 351.299C429.145 350.926 429.451 350.632 429.811 350.632C430.185 350.632 430.491 350.926 430.491 351.299C430.491 351.672 430.185 351.966 429.811 351.966C429.451 351.966 429.145 351.672 429.145 351.299ZM429.145 358.979C429.145 358.619 429.451 358.312 429.811 358.312C430.185 358.312 430.491 358.619 430.491 358.979C430.491 359.352 430.185 359.646 429.811 359.646C429.451 359.646 429.145 359.352 429.145 358.979ZM429.145 366.659C429.145 366.299 429.451 365.992 429.811 365.992C430.185 365.992 430.491 366.299 430.491 366.659C430.491 367.032 430.185 367.339 429.811 367.339C429.451 367.339 429.145 367.032 429.145 366.659ZM429.145 374.352C429.145 373.979 429.451 373.686 429.811 373.686C430.185 373.686 430.491 373.979 430.491 374.352C430.491 374.712 430.185 375.019 429.811 375.019C429.451 375.019 429.145 374.712 429.145 374.352ZM429.145 382.032C429.145 381.659 429.451 381.366 429.811 381.366C430.185 381.366 430.491 381.659 430.491 382.032C430.491 382.406 430.185 382.699 429.811 382.699C429.451 382.699 429.145 382.406 429.145 382.032Z" fill="#E1E1E1"/>
<path d="M429.825 390.379C429.638 390.379 429.478 390.312 429.346 390.179C429.225 390.059 429.158 389.886 429.158 389.712C429.158 389.619 429.171 389.539 429.198 389.459C429.239 389.379 429.293 389.299 429.346 389.246C429.598 388.992 430.051 388.992 430.293 389.246C430.411 389.366 430.478 389.539 430.478 389.712C430.478 389.792 430.465 389.886 430.438 389.966C430.399 390.046 430.346 390.126 430.293 390.179C430.225 390.246 430.158 390.299 430.078 390.326C429.998 390.366 429.906 390.379 429.825 390.379Z" fill="#E1E1E1"/>
<path d="M245.531 389.712C245.531 389.339 245.837 389.046 246.198 389.046C246.571 389.046 246.878 389.339 246.878 389.712C246.878 390.086 246.571 390.379 246.198 390.379C245.837 390.379 245.531 390.086 245.531 389.712ZM253.518 389.712C253.518 389.339 253.825 389.046 254.185 389.046C254.558 389.046 254.851 389.339 254.851 389.712C254.851 390.086 254.558 390.379 254.185 390.379C253.825 390.379 253.518 390.086 253.518 389.712ZM261.503 389.712C261.503 389.339 261.798 389.046 262.17 389.046C262.531 389.046 262.837 389.339 262.837 389.712C262.837 390.086 262.531 390.379 262.17 390.379C261.798 390.379 261.503 390.086 261.503 389.712ZM269.491 389.712C269.491 389.339 269.785 389.046 270.158 389.046C270.518 389.046 270.825 389.339 270.825 389.712C270.825 390.086 270.518 390.379 270.158 390.379C269.785 390.379 269.491 390.086 269.491 389.712ZM277.478 389.712C277.478 389.339 277.771 389.046 278.131 389.046C278.503 389.046 278.798 389.339 278.798 389.712C278.798 390.086 278.503 390.379 278.131 390.379C277.771 390.379 277.478 390.086 277.478 389.712ZM285.451 389.712C285.451 389.339 285.745 389.046 286.118 389.046C286.491 389.046 286.785 389.339 286.785 389.712C286.785 390.086 286.491 390.379 286.118 390.379C285.745 390.379 285.451 390.086 285.451 389.712ZM293.438 389.712C293.438 389.339 293.731 389.046 294.105 389.046C294.465 389.046 294.771 389.339 294.771 389.712C294.771 390.086 294.465 390.379 294.105 390.379C293.731 390.379 293.438 390.086 293.438 389.712ZM301.425 389.712C301.425 389.339 301.718 389.046 302.091 389.046C302.451 389.046 302.758 389.339 302.758 389.712C302.758 390.086 302.451 390.379 302.091 390.379C301.718 390.379 301.425 390.086 301.425 389.712ZM309.398 389.712C309.398 389.339 309.705 389.046 310.065 389.046C310.438 389.046 310.731 389.339 310.731 389.712C310.731 390.086 310.438 390.379 310.065 390.379C309.705 390.379 309.398 390.086 309.398 389.712ZM317.385 389.712C317.385 389.339 317.691 389.046 318.051 389.046C318.411 389.046 318.718 389.339 318.718 389.712C318.718 390.086 318.411 390.379 318.051 390.379C317.691 390.379 317.385 390.086 317.385 389.712ZM325.371 389.712C325.371 389.339 325.665 389.046 326.038 389.046C326.398 389.046 326.705 389.339 326.705 389.712C326.705 390.086 326.398 390.379 326.038 390.379C325.665 390.379 325.371 390.086 325.371 389.712ZM333.345 389.712C333.345 389.339 333.651 389.046 334.011 389.046C334.385 389.046 334.691 389.339 334.691 389.712C334.691 390.086 334.385 390.379 334.011 390.379C333.651 390.379 333.345 390.086 333.345 389.712ZM341.331 389.712C341.331 389.339 341.638 389.046 341.998 389.046C342.371 389.046 342.665 389.339 342.665 389.712C342.665 390.086 342.371 390.379 341.998 390.379C341.638 390.379 341.331 390.086 341.331 389.712ZM349.318 389.712C349.318 389.339 349.611 389.046 349.985 389.046C350.358 389.046 350.651 389.339 350.651 389.712C350.651 390.086 350.358 390.379 349.985 390.379C349.611 390.379 349.318 390.086 349.318 389.712ZM357.305 389.712C357.305 389.339 357.598 389.046 357.971 389.046C358.331 389.046 358.638 389.339 358.638 389.712C358.638 390.086 358.331 390.379 357.971 390.379C357.598 390.379 357.305 390.086 357.305 389.712ZM365.278 389.712C365.278 389.339 365.585 389.046 365.958 389.046C366.318 389.046 366.625 389.339 366.625 389.712C366.625 390.086 366.318 390.379 365.958 390.379C365.585 390.379 365.278 390.086 365.278 389.712ZM373.265 389.712C373.265 389.339 373.571 389.046 373.931 389.046C374.305 389.046 374.598 389.339 374.598 389.712C374.598 390.086 374.305 390.379 373.931 390.379C373.571 390.379 373.265 390.086 373.265 389.712ZM381.251 389.712C381.251 389.339 381.545 389.046 381.918 389.046C382.278 389.046 382.585 389.339 382.585 389.712C382.585 390.086 382.278 390.379 381.918 390.379C381.545 390.379 381.251 390.086 381.251 389.712ZM389.238 389.712C389.238 389.339 389.531 389.046 389.905 389.046C390.265 389.046 390.571 389.339 390.571 389.712C390.571 390.086 390.265 390.379 389.905 390.379C389.531 390.379 389.238 390.086 389.238 389.712ZM397.211 389.712C397.211 389.339 397.518 389.046 397.878 389.046C398.251 389.046 398.545 389.339 398.545 389.712C398.545 390.086 398.251 390.379 397.878 390.379C397.518 390.379 397.211 390.086 397.211 389.712ZM405.198 389.712C405.198 389.339 405.491 389.046 405.865 389.046C406.238 389.046 406.531 389.339 406.531 389.712C406.531 390.086 406.238 390.379 405.865 390.379C405.491 390.379 405.198 390.086 405.198 389.712ZM413.185 389.712C413.185 389.339 413.478 389.046 413.851 389.046C414.211 389.046 414.518 389.339 414.518 389.712C414.518 390.086 414.211 390.379 413.851 390.379C413.478 390.379 413.185 390.086 413.185 389.712ZM421.17 389.712C421.17 389.339 421.465 389.046 421.837 389.046C422.198 389.046 422.503 389.339 422.503 389.712C422.503 390.086 422.198 390.379 421.837 390.379C421.465 390.379 421.17 390.086 421.17 389.712Z" fill="#E1E1E1"/>
<path d="M238.224 390.379C238.132 390.379 238.051 390.366 237.972 390.326C237.891 390.299 237.811 390.246 237.746 390.179C237.692 390.126 237.639 390.046 237.611 389.966C237.572 389.886 237.558 389.792 237.558 389.712C237.558 389.632 237.572 389.539 237.611 389.459C237.639 389.379 237.692 389.299 237.746 389.246C237.811 389.179 237.891 389.126 237.972 389.099C238.132 389.032 238.318 389.032 238.478 389.099C238.558 389.126 238.639 389.179 238.692 389.246C238.746 389.299 238.799 389.379 238.838 389.459C238.864 389.539 238.891 389.632 238.891 389.712C238.891 389.792 238.864 389.886 238.838 389.966C238.799 390.046 238.746 390.126 238.692 390.179C238.639 390.246 238.558 390.299 238.478 390.326C238.399 390.366 238.306 390.379 238.224 390.379Z" fill="#E1E1E1"/>
<path d="M237.558 355.579C237.558 355.206 237.852 354.912 238.224 354.912C238.586 354.912 238.891 355.206 238.891 355.579C238.891 355.952 238.586 356.246 238.224 356.246C237.852 356.246 237.558 355.952 237.558 355.579ZM237.558 364.112C237.558 363.739 237.852 363.446 238.224 363.446C238.586 363.446 238.891 363.739 238.891 364.112C238.891 364.486 238.586 364.779 238.224 364.779C237.852 364.779 237.558 364.486 237.558 364.112ZM237.558 372.646C237.558 372.272 237.852 371.979 238.224 371.979C238.586 371.979 238.891 372.272 238.891 372.646C238.891 373.019 238.586 373.312 238.224 373.312C237.852 373.312 237.558 373.019 237.558 372.646ZM237.558 381.179C237.558 380.806 237.852 380.512 238.224 380.512C238.586 380.512 238.891 380.806 238.891 381.179C238.891 381.552 238.586 381.846 238.224 381.846C237.852 381.846 237.558 381.552 237.558 381.179Z" fill="#E1E1E1"/>
<path d="M238.224 347.712C238.132 347.712 238.051 347.699 237.972 347.659C237.891 347.632 237.811 347.579 237.746 347.512C237.692 347.459 237.639 347.379 237.611 347.299C237.572 347.219 237.558 347.139 237.558 347.046C237.558 346.872 237.626 346.699 237.746 346.579C237.811 346.512 237.891 346.459 237.972 346.432C238.132 346.366 238.318 346.366 238.478 346.432C238.558 346.459 238.639 346.512 238.692 346.579C238.811 346.699 238.891 346.872 238.891 347.046C238.891 347.126 238.878 347.219 238.838 347.299C238.799 347.379 238.758 347.459 238.692 347.512C238.639 347.579 238.558 347.632 238.478 347.659C238.399 347.699 238.306 347.712 238.224 347.712Z" fill="#E1E1E1"/>
<path d="M238.224 189.192C238.132 189.192 238.051 189.179 237.972 189.139C237.891 189.112 237.811 189.059 237.746 188.992C237.692 188.939 237.639 188.859 237.611 188.779C237.572 188.699 237.558 188.619 237.558 188.526C237.558 188.446 237.572 188.352 237.611 188.272C237.639 188.192 237.692 188.112 237.746 188.059C237.811 187.992 237.891 187.939 237.972 187.912C238.132 187.846 238.318 187.846 238.478 187.912C238.558 187.939 238.639 187.992 238.692 188.059C238.746 188.112 238.799 188.192 238.838 188.272C238.864 188.352 238.891 188.446 238.891 188.526C238.891 188.699 238.811 188.872 238.692 188.992C238.639 189.059 238.558 189.112 238.478 189.139C238.399 189.179 238.306 189.192 238.224 189.192Z" fill="#E1E1E1"/>
<path d="M237.558 196.939C237.558 196.579 237.852 196.272 238.224 196.272C238.586 196.272 238.891 196.579 238.891 196.939C238.891 197.312 238.586 197.606 238.224 197.606C237.852 197.606 237.558 197.312 237.558 196.939ZM237.558 205.352C237.558 204.992 237.852 204.686 238.224 204.686C238.586 204.686 238.891 204.992 238.891 205.352C238.891 205.726 238.586 206.019 238.224 206.019C237.852 206.019 237.558 205.726 237.558 205.352ZM237.558 213.779C237.558 213.406 237.852 213.112 238.224 213.112C238.586 213.112 238.891 213.406 238.891 213.779C238.891 214.139 238.586 214.446 238.224 214.446C237.852 214.446 237.558 214.139 237.558 213.779ZM237.558 222.192C237.558 221.819 237.852 221.512 238.224 221.512C238.586 221.512 238.891 221.819 238.891 222.192C238.891 222.552 238.586 222.859 238.224 222.859C237.852 222.859 237.558 222.552 237.558 222.192Z" fill="#E1E1E1"/>
<path d="M238.224 231.272C238.132 231.272 238.051 231.246 237.972 231.219C237.891 231.179 237.811 231.139 237.746 231.072C237.692 231.006 237.639 230.939 237.611 230.859C237.572 230.779 237.558 230.686 237.558 230.606C237.558 230.419 237.626 230.259 237.746 230.126C237.811 230.072 237.891 230.019 237.972 229.992C238.132 229.926 238.318 229.926 238.478 229.992C238.558 230.019 238.639 230.072 238.692 230.126C238.811 230.259 238.891 230.432 238.891 230.606C238.891 230.686 238.878 230.779 238.838 230.859C238.799 230.939 238.758 231.006 238.692 231.072C238.639 231.126 238.558 231.179 238.478 231.219C238.399 231.246 238.306 231.272 238.224 231.272Z" fill="#E1E1E1"/>
<g filter="url(#filter3_b_5_710)">
<path d="M318.572 389.884C432.652 375.238 460.504 308.431 465.961 264.391C473.789 201.212 423.132 127.558 294.957 138.875C201.204 147.152 77.2012 189.16 80.8692 280.334C84.9052 380.64 162.105 409.974 318.572 389.884Z" fill="white" fill-opacity="0.33"/>
</g>
<path d="M97.5876 390.356L100.202 344.7C100.356 342.032 102.642 339.869 105.31 339.869H179.396C182.064 339.869 184.102 342.032 183.95 344.7L181.336 390.356C181.182 393.024 178.896 395.187 176.228 395.187H102.142C99.4742 395.187 97.4342 393.024 97.5876 390.356Z" fill="#007CFF"/>
<path d="M93.8434 390.356L96.4581 344.7C96.6114 342.032 98.8981 339.869 101.566 339.869H178.625C181.293 339.869 183.333 342.032 183.179 344.7L180.565 390.356C180.411 393.024 178.125 395.187 175.457 395.187H98.3981C95.7301 395.187 93.6901 393.024 93.8434 390.356Z" fill="white"/>
<g opacity="0.300003">
<path d="M93.8434 390.356L96.4581 344.7C96.6114 342.032 98.8981 339.869 101.566 339.869H178.625C181.293 339.869 183.333 342.032 183.179 344.7L180.565 390.356C180.411 393.024 178.125 395.187 175.457 395.187H98.3981C95.7301 395.187 93.6901 393.024 93.8434 390.356Z" fill="#007CFF"/>
</g>
<path d="M125.472 405.001V404.397C125.472 401.729 127.634 399.566 130.304 399.566H158.168C160.836 399.566 163 401.729 163 404.397V405.001C163 407.669 160.836 409.831 158.168 409.831H130.304C127.634 409.831 125.472 407.669 125.472 405.001Z" fill="#007CFF"/>
<g opacity="0.600006">
<path d="M125.472 405.001V404.397C125.472 401.729 127.634 399.566 130.304 399.566H158.168C160.836 399.566 163 401.729 163 404.397V405.001C163 407.669 160.836 409.831 158.168 409.831H130.304C127.634 409.831 125.472 407.669 125.472 405.001Z" fill="white"/>
</g>
<path d="M114.024 405.001V404.397C114.024 401.729 116.187 399.566 118.855 399.566H149.694C152.362 399.566 154.524 401.729 154.524 404.397V405.001C154.524 407.669 152.362 409.831 149.694 409.831H118.855C116.187 409.831 114.024 407.669 114.024 405.001Z" fill="white"/>
<g opacity="0.300003">
<path d="M114.024 405.001V404.397C114.024 401.729 116.187 399.566 118.855 399.566H149.694C152.362 399.566 154.524 401.729 154.524 404.397V405.001C154.524 407.669 152.362 409.831 149.694 409.831H118.855C116.187 409.831 114.024 407.669 114.024 405.001Z" fill="#007CFF"/>
</g>
<g opacity="0.899994">
<path d="M176.541 392.845H97.582C96.406 392.845 95.5074 391.891 95.574 390.714L98.23 344.342C98.2967 343.165 99.306 342.211 100.483 342.211H179.441C180.618 342.211 181.517 343.165 181.449 344.342L178.793 390.714C178.726 391.891 177.717 392.845 176.541 392.845Z" fill="white"/>
</g>
<g opacity="0.100006">
<path d="M120.338 392.845H104.637L119.001 342.211H134.702L120.338 392.845Z" fill="#007CFF"/>
</g>
<g opacity="0.100006">
<path d="M133.196 392.845H122.226L136.591 342.211H147.56L133.196 392.845Z" fill="#007CFF"/>
</g>
<g opacity="0.100006">
<path d="M157.114 392.845H146.144L160.508 342.211H171.478L157.114 392.845Z" fill="#007CFF"/>
</g>
<path d="M225.209 390.356L227.824 344.7C227.977 342.032 230.264 339.869 232.932 339.869H307.017C309.685 339.869 311.725 342.032 311.572 344.7L308.957 390.356C308.804 393.024 306.517 395.187 303.849 395.187H229.764C227.096 395.187 225.056 393.024 225.209 390.356Z" fill="#007CFF"/>
<path d="M221.465 390.356L224.08 344.7C224.233 342.032 226.52 339.869 229.188 339.869H306.246C308.914 339.869 310.954 342.032 310.801 344.7L308.186 390.356C308.034 393.024 305.746 395.187 303.078 395.187H226.02C223.352 395.187 221.312 393.024 221.465 390.356Z" fill="white"/>
<g opacity="0.300003">
<path d="M221.465 390.356L224.08 344.7C224.233 342.032 226.52 339.869 229.188 339.869H306.246C308.914 339.869 310.954 342.032 310.801 344.7L308.186 390.356C308.034 393.024 305.746 395.187 303.078 395.187H226.02C223.352 395.187 221.312 393.024 221.465 390.356Z" fill="#007CFF"/>
</g>
<path d="M253.094 405.001V404.397C253.094 401.729 255.258 399.566 257.926 399.566H285.79C288.458 399.566 290.622 401.729 290.622 404.397V405.001C290.622 407.669 288.458 409.831 285.79 409.831H257.926C255.258 409.831 253.094 407.669 253.094 405.001Z" fill="#007CFF"/>
<g opacity="0.600006">
<path d="M253.094 405.001V404.397C253.094 401.729 255.258 399.566 257.926 399.566H285.79C288.458 399.566 290.622 401.729 290.622 404.397V405.001C290.622 407.669 288.458 409.831 285.79 409.831H257.926C255.258 409.831 253.094 407.669 253.094 405.001Z" fill="white"/>
</g>
<path d="M241.646 405.001V404.397C241.646 401.729 243.809 399.566 246.477 399.566H277.315C279.983 399.566 282.146 401.729 282.146 404.397V405.001C282.146 407.669 279.983 409.831 277.315 409.831H246.477C243.809 409.831 241.646 407.669 241.646 405.001Z" fill="white"/>
<g opacity="0.300003">
<path d="M241.646 405.001V404.397C241.646 401.729 243.809 399.566 246.477 399.566H277.315C279.983 399.566 282.146 401.729 282.146 404.397V405.001C282.146 407.669 279.983 409.831 277.315 409.831H246.477C243.809 409.831 241.646 407.669 241.646 405.001Z" fill="#007CFF"/>
</g>
<g opacity="0.899994">
<path d="M304.162 392.845H225.205C224.028 392.845 223.129 391.891 223.196 390.714L225.852 344.342C225.918 343.165 226.928 342.211 228.105 342.211H307.062C308.24 342.211 309.138 343.165 309.072 344.342L306.414 390.714C306.348 391.891 305.34 392.845 304.162 392.845Z" fill="white"/>
</g>
<g opacity="0.100006">
<path d="M247.96 392.845H232.259L246.623 342.211H262.324L247.96 392.845Z" fill="#007CFF"/>
</g>
<g opacity="0.100006">
<path d="M260.819 392.845H249.848L264.212 342.211H275.183L260.819 392.845Z" fill="#007CFF"/>
</g>
<g opacity="0.100006">
<path d="M284.736 392.845H273.765L288.129 342.211H299.1L284.736 392.845Z" fill="#007CFF"/>
</g>
<path d="M352.831 390.356L355.446 344.7C355.599 342.032 357.886 339.869 360.554 339.869H434.639C437.307 339.869 439.347 342.032 439.194 344.7L436.579 390.356C436.426 393.024 434.139 395.187 431.471 395.187H357.386C354.718 395.187 352.679 393.024 352.831 390.356Z" fill="#007CFF"/>
<path d="M349.087 390.356L351.702 344.7C351.855 342.032 354.142 339.869 356.809 339.869H433.868C436.537 339.869 438.576 342.032 438.423 344.7L435.809 390.356C435.656 393.024 433.368 395.187 430.7 395.187H353.641C350.974 395.187 348.935 393.024 349.087 390.356Z" fill="white"/>
<g opacity="0.300003">
<path d="M349.087 390.356L351.702 344.7C351.855 342.032 354.142 339.869 356.809 339.869H433.868C436.537 339.869 438.576 342.032 438.423 344.7L435.809 390.356C435.656 393.024 433.368 395.187 430.7 395.187H353.641C350.974 395.187 348.935 393.024 349.087 390.356Z" fill="#007CFF"/>
</g>
<path d="M380.716 405.001V404.397C380.716 401.729 382.878 399.566 385.546 399.566H413.412C416.08 399.566 418.242 401.729 418.242 404.397V405.001C418.242 407.669 416.08 409.831 413.412 409.831H385.546C382.878 409.831 380.716 407.669 380.716 405.001Z" fill="#007CFF"/>
<g opacity="0.600006">
<path d="M380.716 405.001V404.397C380.716 401.729 382.878 399.566 385.546 399.566H413.412C416.08 399.566 418.242 401.729 418.242 404.397V405.001C418.242 407.669 416.08 409.831 413.412 409.831H385.546C382.878 409.831 380.716 407.669 380.716 405.001Z" fill="white"/>
</g>
<path d="M369.268 405.001V404.397C369.268 401.729 371.43 399.566 374.1 399.566H404.937C407.605 399.566 409.768 401.729 409.768 404.397V405.001C409.768 407.669 407.605 409.831 404.937 409.831H374.1C371.43 409.831 369.268 407.669 369.268 405.001Z" fill="white"/>
<g opacity="0.300003">
<path d="M369.268 405.001V404.397C369.268 401.729 371.43 399.566 374.1 399.566H404.937C407.605 399.566 409.768 401.729 409.768 404.397V405.001C409.768 407.669 407.605 409.831 404.937 409.831H374.1C371.43 409.831 369.268 407.669 369.268 405.001Z" fill="#007CFF"/>
</g>
<g opacity="0.899994">
<path d="M431.784 392.845H352.827C351.649 392.845 350.751 391.891 350.817 390.714L353.473 344.342C353.541 343.165 354.549 342.211 355.727 342.211H434.684C435.861 342.211 436.76 343.165 436.693 344.342L434.037 390.714C433.969 391.891 432.961 392.845 431.784 392.845Z" fill="white"/>
</g>
<g opacity="0.100006">
<path d="M375.582 392.845H359.881L374.245 342.211H389.946L375.582 392.845Z" fill="#007CFF"/>
</g>
<g opacity="0.100006">
<path d="M388.44 392.845H377.47L391.834 342.211H402.804L388.44 392.845Z" fill="#007CFF"/>
</g>
<g opacity="0.100006">
<path d="M412.358 392.845H401.387L415.751 342.211H426.722L412.358 392.845Z" fill="#007CFF"/>
</g>
<path d="M138.091 330.779C137.998 330.779 137.918 330.752 137.838 330.725C137.758 330.685 137.678 330.632 137.611 330.579C137.558 330.512 137.505 330.445 137.478 330.365C137.438 330.272 137.425 330.192 137.425 330.112C137.425 329.925 137.491 329.752 137.611 329.632C137.798 329.445 138.091 329.392 138.345 329.485C138.425 329.525 138.505 329.565 138.558 329.632C138.625 329.699 138.678 329.765 138.705 329.845C138.745 329.925 138.758 330.019 138.758 330.112C138.758 330.192 138.745 330.272 138.705 330.365C138.678 330.445 138.625 330.512 138.558 330.579C138.505 330.632 138.425 330.685 138.345 330.725C138.265 330.752 138.171 330.779 138.091 330.779Z" fill="#007CFF"/>
<path d="M137.425 325.219C137.425 324.859 137.718 324.552 138.091 324.552C138.465 324.552 138.758 324.859 138.758 325.219C138.758 325.592 138.465 325.886 138.091 325.886C137.718 325.886 137.425 325.592 137.425 325.219Z" fill="#007CFF"/>
<path d="M138.091 321.006C137.918 321.006 137.745 320.939 137.611 320.806C137.558 320.752 137.505 320.672 137.478 320.592C137.438 320.512 137.425 320.432 137.425 320.339C137.425 320.166 137.491 319.992 137.611 319.872C137.798 319.686 138.091 319.619 138.345 319.726C138.425 319.766 138.505 319.806 138.558 319.872C138.625 319.926 138.678 320.006 138.705 320.086C138.745 320.166 138.758 320.259 138.758 320.339C138.758 320.432 138.745 320.512 138.705 320.592C138.678 320.672 138.625 320.752 138.558 320.806C138.505 320.872 138.425 320.926 138.345 320.952C138.265 320.992 138.171 321.006 138.091 321.006Z" fill="#007CFF"/>
<path d="M142.771 320.339C142.771 319.979 143.078 319.672 143.438 319.672C143.811 319.672 144.105 319.979 144.105 320.339C144.105 320.712 143.811 321.006 143.438 321.006C143.078 321.006 142.771 320.712 142.771 320.339ZM148.133 320.339C148.133 319.979 148.425 319.672 148.786 319.672C149.158 319.672 149.453 319.979 149.453 320.339C149.453 320.712 149.158 321.006 148.786 321.006C148.425 321.006 148.133 320.712 148.133 320.339ZM153.478 320.339C153.478 319.979 153.771 319.672 154.145 319.672C154.505 319.672 154.811 319.979 154.811 320.339C154.811 320.712 154.505 321.006 154.145 321.006C153.771 321.006 153.478 320.712 153.478 320.339ZM158.825 320.339C158.825 319.979 159.133 319.672 159.491 319.672C159.865 319.672 160.158 319.979 160.158 320.339C160.158 320.712 159.865 321.006 159.491 321.006C159.133 321.006 158.825 320.712 158.825 320.339ZM164.171 320.339C164.171 319.979 164.478 319.672 164.838 319.672C165.211 319.672 165.505 319.979 165.505 320.339C165.505 320.712 165.211 321.006 164.838 321.006C164.478 321.006 164.171 320.712 164.171 320.339ZM169.531 320.339C169.531 319.979 169.825 319.672 170.198 319.672C170.558 319.672 170.865 319.979 170.865 320.339C170.865 320.712 170.558 321.006 170.198 321.006C169.825 321.006 169.531 320.712 169.531 320.339ZM174.878 320.339C174.878 319.979 175.171 319.672 175.545 319.672C175.918 319.672 176.211 319.979 176.211 320.339C176.211 320.712 175.918 321.006 175.545 321.006C175.171 321.006 174.878 320.712 174.878 320.339ZM180.225 320.339C180.225 319.979 180.531 319.672 180.891 319.672C181.265 319.672 181.573 319.979 181.573 320.339C181.573 320.712 181.265 321.006 180.891 321.006C180.531 321.006 180.225 320.712 180.225 320.339ZM185.585 320.339C185.585 319.979 185.878 319.672 186.251 319.672C186.626 319.672 186.918 319.979 186.918 320.339C186.918 320.712 186.626 321.006 186.251 321.006C185.878 321.006 185.585 320.712 185.585 320.339ZM190.931 320.339C190.931 319.979 191.239 319.672 191.598 319.672C191.971 319.672 192.265 319.979 192.265 320.339C192.265 320.712 191.971 321.006 191.598 321.006C191.239 321.006 190.931 320.712 190.931 320.339ZM196.278 320.339C196.278 319.979 196.585 319.672 196.959 319.672C197.318 319.672 197.626 319.979 197.626 320.339C197.626 320.712 197.318 321.006 196.959 321.006C196.585 321.006 196.278 320.712 196.278 320.339ZM201.638 320.339C201.638 319.979 201.931 319.672 202.305 319.672C202.665 319.672 202.971 319.979 202.971 320.339C202.971 320.712 202.665 321.006 202.305 321.006C201.931 321.006 201.638 320.712 201.638 320.339ZM206.985 320.339C206.985 319.979 207.293 319.672 207.651 319.672C208.025 319.672 208.318 319.979 208.318 320.339C208.318 320.712 208.025 321.006 207.651 321.006C207.293 321.006 206.985 320.712 206.985 320.339ZM212.346 320.339C212.346 319.979 212.638 319.672 213.013 319.672C213.371 319.672 213.679 319.979 213.679 320.339C213.679 320.712 213.371 321.006 213.013 321.006C212.638 321.006 212.346 320.712 212.346 320.339ZM217.691 320.339C217.691 319.979 217.985 319.672 218.358 319.672C218.718 319.672 219.025 319.979 219.025 320.339C219.025 320.712 218.718 321.006 218.358 321.006C217.985 321.006 217.691 320.712 217.691 320.339ZM223.038 320.339C223.038 319.979 223.346 319.672 223.705 319.672C224.078 319.672 224.371 319.979 224.371 320.339C224.371 320.712 224.078 321.006 223.705 321.006C223.346 321.006 223.038 320.712 223.038 320.339ZM228.399 320.339C228.399 319.979 228.691 319.672 229.066 319.672C229.425 319.672 229.733 319.979 229.733 320.339C229.733 320.712 229.425 321.006 229.066 321.006C228.691 321.006 228.399 320.712 228.399 320.339ZM233.745 320.339C233.745 319.979 234.038 319.672 234.411 319.672C234.771 319.672 235.078 319.979 235.078 320.339C235.078 320.712 234.771 321.006 234.411 321.006C234.038 321.006 233.745 320.712 233.745 320.339ZM239.091 320.339C239.091 319.979 239.399 319.672 239.758 319.672C240.133 319.672 240.425 319.979 240.425 320.339C240.425 320.712 240.133 321.006 239.758 321.006C239.399 321.006 239.091 320.712 239.091 320.339ZM244.453 320.339C244.453 319.979 244.745 319.672 245.119 319.672C245.478 319.672 245.771 319.979 245.771 320.339C245.771 320.712 245.478 321.006 245.119 321.006C244.745 321.006 244.453 320.712 244.453 320.339ZM249.799 320.339C249.799 319.979 250.091 319.672 250.466 319.672C250.825 319.672 251.133 319.979 251.133 320.339C251.133 320.712 250.825 321.006 250.466 321.006C250.091 321.006 249.799 320.712 249.799 320.339ZM255.145 320.339C255.145 319.979 255.453 319.672 255.811 319.672C256.186 319.672 256.478 319.979 256.478 320.339C256.478 320.712 256.186 321.006 255.811 321.006C255.453 321.006 255.145 320.712 255.145 320.339ZM260.505 320.339C260.505 319.979 260.799 319.672 261.158 319.672C261.531 319.672 261.825 319.979 261.825 320.339C261.825 320.712 261.531 321.006 261.158 321.006C260.799 321.006 260.505 320.712 260.505 320.339Z" fill="#007CFF"/>
<path d="M266.518 321.006C266.425 321.006 266.345 320.992 266.265 320.952C266.185 320.926 266.104 320.872 266.05 320.819C265.985 320.752 265.932 320.672 265.905 320.592C265.865 320.512 265.852 320.432 265.852 320.339C265.852 320.259 265.865 320.166 265.905 320.086C265.932 320.006 265.985 319.939 266.05 319.872C266.104 319.806 266.185 319.766 266.265 319.726C266.425 319.659 266.61 319.659 266.77 319.726C266.852 319.766 266.932 319.806 266.985 319.872C267.118 319.992 267.185 320.166 267.185 320.339C267.185 320.432 267.17 320.512 267.132 320.592C267.104 320.672 267.05 320.752 266.985 320.819C266.932 320.872 266.852 320.926 266.77 320.952C266.692 320.992 266.61 321.006 266.518 321.006Z" fill="#007CFF"/>
<path d="M266.518 321.006C266.425 321.006 266.345 320.992 266.265 320.952C266.185 320.926 266.104 320.872 266.05 320.819C265.985 320.752 265.932 320.672 265.905 320.592C265.865 320.512 265.852 320.432 265.852 320.339C265.852 320.259 265.865 320.166 265.905 320.086C265.932 320.006 265.985 319.939 266.05 319.872C266.104 319.806 266.185 319.766 266.265 319.726C266.425 319.659 266.61 319.659 266.77 319.726C266.852 319.766 266.932 319.806 266.985 319.872C267.118 319.992 267.185 320.166 267.185 320.339C267.185 320.432 267.17 320.512 267.132 320.592C267.104 320.672 267.05 320.752 266.985 320.819C266.932 320.872 266.852 320.926 266.77 320.952C266.692 320.992 266.61 321.006 266.518 321.006Z" fill="#007CFF"/>
<path d="M265.852 306.459C265.852 306.086 266.157 305.792 266.518 305.792C266.89 305.792 267.185 306.086 267.185 306.459C267.185 306.832 266.89 307.126 266.518 307.126C266.157 307.126 265.852 306.832 265.852 306.459ZM265.852 311.086C265.852 310.712 266.157 310.419 266.518 310.419C266.89 310.419 267.185 310.712 267.185 311.086C267.185 311.459 266.89 311.752 266.518 311.752C266.157 311.752 265.852 311.459 265.852 311.086ZM265.852 315.712C265.852 315.339 266.157 315.046 266.518 315.046C266.89 315.046 267.185 315.339 267.185 315.712C267.185 316.086 266.89 316.379 266.518 316.379C266.157 316.379 265.852 316.086 265.852 315.712Z" fill="#007CFF"/>
<path d="M266.518 302.499C266.345 302.499 266.17 302.432 266.05 302.299C265.985 302.245 265.932 302.165 265.905 302.085C265.865 302.005 265.852 301.912 265.852 301.832C265.852 301.739 265.865 301.659 265.905 301.579C265.932 301.485 265.985 301.419 266.05 301.352C266.104 301.299 266.185 301.245 266.265 301.219C266.425 301.152 266.61 301.139 266.77 301.219C266.852 301.245 266.932 301.299 266.985 301.352C267.05 301.419 267.104 301.499 267.132 301.579C267.17 301.659 267.185 301.739 267.185 301.832C267.185 301.912 267.17 302.005 267.132 302.085C267.104 302.165 267.05 302.245 266.985 302.299C266.865 302.432 266.692 302.499 266.518 302.499Z" fill="#007CFF"/>
<path d="M266.518 321.006C266.425 321.006 266.345 320.992 266.265 320.952C266.185 320.926 266.104 320.872 266.05 320.819C265.985 320.752 265.932 320.672 265.905 320.592C265.865 320.512 265.852 320.432 265.852 320.339C265.852 320.259 265.865 320.166 265.905 320.086C265.932 320.006 265.985 319.939 266.05 319.872C266.104 319.806 266.185 319.766 266.265 319.726C266.425 319.659 266.61 319.659 266.77 319.726C266.852 319.766 266.932 319.806 266.985 319.872C267.118 319.992 267.185 320.166 267.185 320.339C267.185 320.432 267.17 320.512 267.132 320.592C267.104 320.672 267.05 320.752 266.985 320.819C266.932 320.872 266.852 320.926 266.77 320.952C266.692 320.992 266.61 321.006 266.518 321.006Z" fill="#007CFF"/>
<path d="M265.852 325.219C265.852 324.859 266.157 324.552 266.518 324.552C266.89 324.552 267.185 324.859 267.185 325.219C267.185 325.592 266.89 325.886 266.518 325.886C266.157 325.886 265.852 325.592 265.852 325.219Z" fill="#007CFF"/>
<path d="M266.518 330.779C266.345 330.779 266.17 330.699 266.05 330.579C265.985 330.512 265.932 330.445 265.905 330.365C265.865 330.285 265.852 330.192 265.852 330.099C265.852 330.019 265.865 329.925 265.905 329.845C265.932 329.765 265.985 329.699 266.05 329.632C266.292 329.392 266.732 329.379 266.985 329.632C267.05 329.699 267.104 329.765 267.132 329.845C267.17 329.925 267.185 330.019 267.185 330.099C267.185 330.192 267.17 330.285 267.132 330.365C267.104 330.445 267.05 330.512 266.985 330.579C266.865 330.699 266.692 330.779 266.518 330.779Z" fill="#007CFF"/>
<path d="M394.944 330.779C394.771 330.779 394.598 330.699 394.478 330.579C394.359 330.445 394.278 330.272 394.278 330.099C394.278 329.925 394.359 329.752 394.478 329.632C394.718 329.392 395.171 329.379 395.412 329.632C395.478 329.699 395.531 329.765 395.558 329.845C395.598 329.925 395.611 330.019 395.611 330.099C395.611 330.272 395.544 330.445 395.412 330.579C395.292 330.699 395.119 330.779 394.944 330.779Z" fill="#007CFF"/>
<path d="M394.278 325.219C394.278 324.859 394.584 324.552 394.944 324.552C395.318 324.552 395.611 324.859 395.611 325.219C395.611 325.592 395.318 325.886 394.944 325.886C394.584 325.886 394.278 325.592 394.278 325.219Z" fill="#007CFF"/>
<path d="M394.944 321.006C394.771 321.006 394.598 320.939 394.478 320.819C394.359 320.686 394.278 320.512 394.278 320.339C394.278 320.166 394.359 319.992 394.478 319.872C394.718 319.619 395.158 319.619 395.412 319.872C395.544 319.992 395.611 320.166 395.611 320.339C395.611 320.512 395.544 320.686 395.412 320.819C395.292 320.939 395.119 321.006 394.944 321.006Z" fill="#007CFF"/>
<path d="M271.198 320.339C271.198 319.966 271.504 319.672 271.865 319.672C272.238 319.672 272.545 319.966 272.545 320.339C272.545 320.712 272.238 321.006 271.865 321.006C271.504 321.006 271.198 320.712 271.198 320.339ZM276.558 320.339C276.558 319.966 276.852 319.672 277.225 319.672C277.585 319.672 277.892 319.966 277.892 320.339C277.892 320.712 277.585 321.006 277.225 321.006C276.852 321.006 276.558 320.712 276.558 320.339ZM281.905 320.339C281.905 319.966 282.198 319.672 282.572 319.672C282.945 319.672 283.238 319.966 283.238 320.339C283.238 320.712 282.945 321.006 282.572 321.006C282.198 321.006 281.905 320.712 281.905 320.339ZM287.252 320.339C287.252 319.966 287.558 319.672 287.918 319.672C288.292 319.672 288.598 319.966 288.598 320.339C288.598 320.712 288.292 321.006 287.918 321.006C287.558 321.006 287.252 320.712 287.252 320.339ZM292.612 320.339C292.612 319.966 292.905 319.672 293.278 319.672C293.638 319.672 293.945 319.966 293.945 320.339C293.945 320.712 293.638 321.006 293.278 321.006C292.905 321.006 292.612 320.712 292.612 320.339ZM297.958 320.339C297.958 319.966 298.265 319.672 298.625 319.672C298.998 319.672 299.292 319.966 299.292 320.339C299.292 320.712 298.998 321.006 298.625 321.006C298.265 321.006 297.958 320.712 297.958 320.339ZM303.305 320.339C303.305 319.966 303.612 319.672 303.972 319.672C304.345 319.672 304.652 319.966 304.652 320.339C304.652 320.712 304.345 321.006 303.972 321.006C303.612 321.006 303.305 320.712 303.305 320.339ZM308.665 320.339C308.665 319.966 308.958 319.672 309.332 319.672C309.692 319.672 309.998 319.966 309.998 320.339C309.998 320.712 309.692 321.006 309.332 321.006C308.958 321.006 308.665 320.712 308.665 320.339ZM314.012 320.339C314.012 319.966 314.318 319.672 314.678 319.672C315.052 319.672 315.345 319.966 315.345 320.339C315.345 320.712 315.052 321.006 314.678 321.006C314.318 321.006 314.012 320.712 314.012 320.339ZM319.358 320.339C319.358 319.966 319.665 319.672 320.025 319.672C320.398 319.672 320.692 319.966 320.692 320.339C320.692 320.712 320.398 321.006 320.025 321.006C319.665 321.006 319.358 320.712 319.358 320.339ZM324.718 320.339C324.718 319.966 325.012 319.672 325.385 319.672C325.745 319.672 326.052 319.966 326.052 320.339C326.052 320.712 325.745 321.006 325.385 321.006C325.012 321.006 324.718 320.712 324.718 320.339ZM330.065 320.339C330.065 319.966 330.372 319.672 330.732 319.672C331.105 319.672 331.398 319.966 331.398 320.339C331.398 320.712 331.105 321.006 330.732 321.006C330.372 321.006 330.065 320.712 330.065 320.339ZM335.412 320.339C335.412 319.966 335.718 319.672 336.078 319.672C336.452 319.672 336.745 319.966 336.745 320.339C336.745 320.712 336.452 321.006 336.078 321.006C335.718 321.006 335.412 320.712 335.412 320.339ZM340.772 320.339C340.772 319.966 341.065 319.672 341.438 319.672C341.798 319.672 342.105 319.966 342.105 320.339C342.105 320.712 341.798 321.006 341.438 321.006C341.065 321.006 340.772 320.712 340.772 320.339ZM346.118 320.339C346.118 319.966 346.425 319.672 346.785 319.672C347.158 319.672 347.452 319.966 347.452 320.339C347.452 320.712 347.158 321.006 346.785 321.006C346.425 321.006 346.118 320.712 346.118 320.339ZM351.465 320.339C351.465 319.966 351.772 319.672 352.132 319.672C352.504 319.672 352.812 319.966 352.812 320.339C352.812 320.712 352.504 321.006 352.132 321.006C351.772 321.006 351.465 320.712 351.465 320.339ZM356.825 320.339C356.825 319.966 357.118 319.672 357.492 319.672C357.852 319.672 358.158 319.966 358.158 320.339C358.158 320.712 357.852 321.006 357.492 321.006C357.118 321.006 356.825 320.712 356.825 320.339ZM362.17 320.339C362.17 319.966 362.478 319.672 362.837 319.672C363.212 319.672 363.504 319.966 363.504 320.339C363.504 320.712 363.212 321.006 362.837 321.006C362.478 321.006 362.17 320.712 362.17 320.339ZM367.518 320.339C367.518 319.966 367.825 319.672 368.185 319.672C368.558 319.672 368.865 319.966 368.865 320.339C368.865 320.712 368.558 321.006 368.185 321.006C367.825 321.006 367.518 320.712 367.518 320.339ZM372.878 320.339C372.878 319.966 373.17 319.672 373.545 319.672C373.905 319.672 374.212 319.966 374.212 320.339C374.212 320.712 373.905 321.006 373.545 321.006C373.17 321.006 372.878 320.712 372.878 320.339ZM378.225 320.339C378.225 319.966 378.532 319.672 378.892 319.672C379.265 319.672 379.558 319.966 379.558 320.339C379.558 320.712 379.265 321.006 378.892 321.006C378.532 321.006 378.225 320.712 378.225 320.339ZM383.572 320.339C383.572 319.966 383.878 319.672 384.252 319.672C384.612 319.672 384.918 319.966 384.918 320.339C384.918 320.712 384.612 321.006 384.252 321.006C383.878 321.006 383.572 320.712 383.572 320.339ZM388.932 320.339C388.932 319.966 389.225 319.672 389.598 319.672C389.958 319.672 390.265 319.966 390.265 320.339C390.265 320.712 389.958 321.006 389.598 321.006C389.225 321.006 388.932 320.712 388.932 320.339Z" fill="#007CFF"/>
<path d="M266.518 321.006C266.425 321.006 266.345 320.992 266.265 320.952C266.185 320.926 266.104 320.872 266.05 320.819C265.985 320.752 265.932 320.672 265.905 320.592C265.865 320.512 265.852 320.432 265.852 320.339C265.852 320.259 265.865 320.166 265.905 320.086C265.932 320.006 265.985 319.939 266.05 319.872C266.104 319.806 266.185 319.766 266.265 319.726C266.425 319.659 266.61 319.659 266.77 319.726C266.852 319.766 266.932 319.806 266.985 319.872C267.118 319.992 267.185 320.166 267.185 320.339C267.185 320.432 267.17 320.512 267.132 320.592C267.104 320.672 267.05 320.752 266.985 320.819C266.932 320.872 266.852 320.926 266.77 320.952C266.692 320.992 266.61 321.006 266.518 321.006Z" fill="#007CFF"/>
<path d="M469.921 179.726C469.554 135.914 433.938 100.506 390.038 100.506H357.04C340.365 71.5802 309.136 52.1028 273.349 52.1028H209.126V76.5882C194.294 89.8255 183.568 107.57 179.112 127.676C135.741 130.466 101.421 166.506 101.421 210.582C101.421 256.476 138.626 293.682 184.521 293.682H448.945C481.478 293.682 507.852 267.307 507.852 234.774C507.852 209.632 492.094 188.18 469.921 179.726Z" fill="#007CFF"/>
<g opacity="0.699997">
<path d="M469.921 179.726C469.554 135.914 433.938 100.506 390.038 100.506H357.04C340.365 71.5802 309.136 52.1028 273.349 52.1028H209.126V76.5882C194.294 89.8255 183.568 107.57 179.112 127.676C135.741 130.466 101.421 166.506 101.421 210.582C101.421 256.476 138.626 293.682 184.521 293.682H448.945C481.478 293.682 507.852 267.307 507.852 234.774C507.852 209.632 492.094 188.18 469.921 179.726Z" fill="white"/>
</g>
<g filter="url(#filter4_d_5_710)">
<path d="M405.698 179.726C405.331 135.912 369.714 100.506 325.815 100.506C315.236 100.506 305.148 102.58 295.908 106.314C280.219 74.2165 247.259 52.1031 209.126 52.1031C163.01 52.1031 124.471 84.4445 114.888 127.676C71.5176 130.464 37.1976 166.506 37.1976 210.58C37.1976 256.475 74.403 293.68 120.298 293.68H384.722C417.255 293.68 443.628 267.307 443.628 234.774C443.628 209.631 427.871 188.18 405.698 179.726Z" fill="url(#paint3_linear_5_710)"/>
</g>
<g filter="url(#filter5_b_5_710)">
<path d="M469.921 179.726C469.554 135.912 433.938 100.506 390.038 100.506C379.46 100.506 369.372 102.58 360.132 106.314C344.442 74.2165 311.482 52.1031 273.349 52.1031C227.233 52.1031 188.694 84.4445 179.112 127.676C135.741 130.464 101.421 166.506 101.421 210.58C101.421 256.475 138.626 293.68 184.521 293.68H448.945C481.478 293.68 507.852 267.307 507.852 234.774C507.852 209.631 492.094 188.18 469.921 179.726Z" fill="white" fill-opacity="0.3"/>
</g>
<path d="M175.42 175.841H196.653C199.927 175.841 202.58 178.494 202.58 181.768V286.46C202.58 289.733 199.927 292.386 196.653 292.386H175.42V175.841Z" fill="#E1E1E1"/>
<path d="M177.533 175.841H131.819C128.546 175.841 125.893 178.494 125.893 181.768V286.46C125.893 289.733 128.546 292.386 131.819 292.386H177.533C180.806 292.386 183.459 289.733 183.459 286.46V181.768C183.459 178.494 180.806 175.841 177.533 175.841Z" fill="white"/>
<path d="M183.46 269.294H125.893V268.211H183.46V269.294Z" fill="#E1E1E1"/>
<path d="M183.46 246.2H125.893V245.118H183.46V246.2Z" fill="#E1E1E1"/>
<path d="M183.46 223.108H125.893V222.026H183.46V223.108Z" fill="#E1E1E1"/>
<path d="M183.46 200.016H125.893V198.934H183.46V200.016Z" fill="#E1E1E1"/>
<g opacity="0.600006">
<path d="M154.597 191.443H135.341C134.125 191.443 133.141 192.428 133.141 193.643C133.141 194.858 134.125 195.842 135.341 195.842H154.597C155.811 195.842 156.797 194.858 156.797 193.643C156.797 192.428 155.811 191.443 154.597 191.443Z" fill="#007CFF"/>
</g>
<g opacity="0.600006">
<path d="M154.597 185.729H135.341C134.125 185.729 133.141 186.714 133.141 187.929C133.141 189.144 134.125 190.128 135.341 190.128H154.597C155.811 190.128 156.797 189.144 156.797 187.929C156.797 186.714 155.811 185.729 154.597 185.729Z" fill="#007CFF"/>
</g>
<g opacity="0.600006">
<path d="M154.597 180.015H135.341C134.125 180.015 133.141 181 133.141 182.215C133.141 183.43 134.125 184.414 135.341 184.414H154.597C155.811 184.414 156.797 183.43 156.797 182.215C156.797 181 155.811 180.015 154.597 180.015Z" fill="#007CFF"/>
</g>
<path d="M158.817 191.443H166.857V195.842H158.817V191.443Z" fill="#ECECEC"/>
<path d="M158.817 185.728H166.857V190.127H158.817V185.728Z" fill="#007CFF"/>
<path d="M158.817 180.015H166.857V184.414H158.817V180.015Z" fill="#ECECEC"/>
<path d="M168.172 191.443H176.212V195.842H168.172V191.443Z" fill="#ECECEC"/>
<path d="M168.172 185.728H176.212V190.127H168.172V185.728Z" fill="#ECECEC"/>
<path d="M168.172 180.015H176.212V184.414H168.172V180.015Z" fill="#007CFF"/>
<path d="M154.597 214.535H135.341C134.125 214.535 133.141 215.521 133.141 216.735C133.141 217.95 134.125 218.934 135.341 218.934H154.597C155.811 218.934 156.797 217.95 156.797 216.735C156.797 215.521 155.811 214.535 154.597 214.535Z" fill="#ECECEC"/>
<g opacity="0.600006">
<path d="M154.597 208.822H135.341C134.125 208.822 133.141 209.807 133.141 211.022C133.141 212.236 134.125 213.22 135.341 213.22H154.597C155.811 213.22 156.797 212.236 156.797 211.022C156.797 209.807 155.811 208.822 154.597 208.822Z" fill="#007CFF"/>
</g>
<g opacity="0.600006">
<path d="M154.597 203.108H135.341C134.125 203.108 133.141 204.093 133.141 205.308C133.141 206.522 134.125 207.506 135.341 207.506H154.597C155.811 207.506 156.797 206.522 156.797 205.308C156.797 204.093 155.811 203.108 154.597 203.108Z" fill="#007CFF"/>
</g>
<path d="M158.817 214.535H166.857V218.934H158.817V214.535Z" fill="#ECECEC"/>
<path d="M158.817 208.822H166.857V213.22H158.817V208.822Z" fill="#ECECEC"/>
<path d="M158.817 203.107H166.857V207.506H158.817V203.107Z" fill="#007CFF"/>
<path d="M168.172 214.535H176.212V218.934H168.172V214.535Z" fill="#ECECEC"/>
<path d="M168.172 208.822H176.212V213.22H168.172V208.822Z" fill="#ECECEC"/>
<path d="M168.172 203.107H176.212V207.506H168.172V203.107Z" fill="#ECECEC"/>
<g opacity="0.600006">
<path d="M154.597 237.628H135.341C134.125 237.628 133.141 238.613 133.141 239.828C133.141 241.043 134.125 242.027 135.341 242.027H154.597C155.811 242.027 156.797 241.043 156.797 239.828C156.797 238.613 155.811 237.628 154.597 237.628Z" fill="#007CFF"/>
</g>
<g opacity="0.600006">
<path d="M154.597 231.914H135.341C134.125 231.914 133.141 232.899 133.141 234.114C133.141 235.329 134.125 236.314 135.341 236.314H154.597C155.811 236.314 156.797 235.329 156.797 234.114C156.797 232.899 155.811 231.914 154.597 231.914Z" fill="#007CFF"/>
</g>
<g opacity="0.600006">
<path d="M154.597 226.2H135.341C134.125 226.2 133.141 227.185 133.141 228.4C133.141 229.615 134.125 230.599 135.341 230.599H154.597C155.811 230.599 156.797 229.615 156.797 228.4C156.797 227.185 155.811 226.2 154.597 226.2Z" fill="#007CFF"/>
</g>
<path d="M158.817 237.628H166.857V242.027H158.817V237.628Z" fill="#ECECEC"/>
<path d="M158.817 231.914H166.857V236.314H158.817V231.914Z" fill="#007CFF"/>
<path d="M158.817 226.2H166.857V230.599H158.817V226.2Z" fill="#ECECEC"/>
<path d="M168.172 237.628H176.212V242.027H168.172V237.628Z" fill="#ECECEC"/>
<path d="M168.172 231.914H176.212V236.314H168.172V231.914Z" fill="#ECECEC"/>
<path d="M168.172 226.2H176.212V230.599H168.172V226.2Z" fill="#007CFF"/>
<g opacity="0.600006">
<path d="M154.597 260.721H135.341C134.125 260.721 133.141 261.706 133.141 262.921C133.141 264.135 134.125 265.119 135.341 265.119H154.597C155.811 265.119 156.797 264.135 156.797 262.921C156.797 261.706 155.811 260.721 154.597 260.721Z" fill="#007CFF"/>
</g>
<g opacity="0.600006">
<path d="M154.597 255.007H135.341C134.125 255.007 133.141 255.992 133.141 257.207C133.141 258.421 134.125 259.405 135.341 259.405H154.597C155.811 259.405 156.797 258.421 156.797 257.207C156.797 255.992 155.811 255.007 154.597 255.007Z" fill="#007CFF"/>
</g>
<g opacity="0.600006">
<path d="M154.597 249.293H135.341C134.125 249.293 133.141 250.278 133.141 251.493C133.141 252.708 134.125 253.692 135.341 253.692H154.597C155.811 253.692 156.797 252.708 156.797 251.493C156.797 250.278 155.811 249.293 154.597 249.293Z" fill="#007CFF"/>
</g>
<path d="M158.817 260.72H166.857V265.119H158.817V260.72Z" fill="#ECECEC"/>
<path d="M158.817 255.007H166.857V259.406H158.817V255.007Z" fill="#007CFF"/>
<path d="M158.817 249.292H166.857V253.691H158.817V249.292Z" fill="#ECECEC"/>
<path d="M168.172 260.72H176.212V265.119H168.172V260.72Z" fill="#007CFF"/>
<path d="M168.172 255.007H176.212V259.406H168.172V255.007Z" fill="#ECECEC"/>
<path d="M168.172 249.292H176.212V253.691H168.172V249.292Z" fill="#007CFF"/>
<g opacity="0.600006">
<path d="M154.597 283.813H135.341C134.125 283.813 133.141 284.799 133.141 286.013C133.141 287.228 134.125 288.212 135.341 288.212H154.597C155.811 288.212 156.797 287.228 156.797 286.013C156.797 284.799 155.811 283.813 154.597 283.813Z" fill="#007CFF"/>
</g>
<g opacity="0.600006">
<path d="M154.597 278.099H135.341C134.125 278.099 133.141 279.084 133.141 280.299C133.141 281.514 134.125 282.498 135.341 282.498H154.597C155.811 282.498 156.797 281.514 156.797 280.299C156.797 279.084 155.811 278.099 154.597 278.099Z" fill="#007CFF"/>
</g>
<g opacity="0.600006">
<path d="M154.597 272.385H135.341C134.125 272.385 133.141 273.37 133.141 274.585C133.141 275.8 134.125 276.784 135.341 276.784H154.597C155.811 276.784 156.797 275.8 156.797 274.585C156.797 273.37 155.811 272.385 154.597 272.385Z" fill="#007CFF"/>
</g>
<path d="M158.817 283.814H166.857V288.212H158.817V283.814Z" fill="#007CFF"/>
<path d="M158.817 278.099H166.857V282.498H158.817V278.099Z" fill="#ECECEC"/>
<path d="M158.817 272.386H166.857V276.784H158.817V272.386Z" fill="#ECECEC"/>
<path d="M168.172 283.814H176.212V288.212H168.172V283.814Z" fill="#ECECEC"/>
<path d="M168.172 278.099H176.212V282.498H168.172V278.099Z" fill="#ECECEC"/>
<path d="M168.172 272.386H176.212V276.784H168.172V272.386Z" fill="#007CFF"/>
<path d="M258.369 120.812H289.629C294.448 120.812 298.355 124.719 298.355 129.537V283.661C298.355 288.48 294.448 292.387 289.629 292.387H258.369V120.812Z" fill="#E1E1E1"/>
<path d="M261.48 120.812H194.181C189.364 120.812 185.456 124.719 185.456 129.537V283.661C185.456 288.48 189.364 292.387 194.181 292.387H261.48C266.299 292.387 270.205 288.48 270.205 283.661V129.537C270.205 124.719 266.299 120.812 261.48 120.812Z" fill="white"/>
<path d="M270.205 258.39H185.456V256.796H270.205V258.39Z" fill="#E1E1E1"/>
<path d="M270.205 224.394H185.456V222.8H270.205V224.394Z" fill="#E1E1E1"/>
<path d="M270.205 190.398H185.456V188.804H270.205V190.398Z" fill="#E1E1E1"/>
<path d="M270.205 156.402H185.456V154.808H270.205V156.402Z" fill="#E1E1E1"/>
<g opacity="0.600006">
<path d="M227.714 143.78H199.365C197.577 143.78 196.128 145.23 196.128 147.018C196.128 148.807 197.577 150.256 199.365 150.256H227.714C229.502 150.256 230.952 148.807 230.952 147.018C230.952 145.23 229.502 143.78 227.714 143.78Z" fill="#007CFF"/>
</g>
<g opacity="0.600006">
<path d="M227.714 135.368H199.365C197.577 135.368 196.128 136.818 196.128 138.607C196.128 140.395 197.577 141.844 199.365 141.844H227.714C229.502 141.844 230.952 140.395 230.952 138.607C230.952 136.818 229.502 135.368 227.714 135.368Z" fill="#007CFF"/>
</g>
<g opacity="0.600006">
<path d="M227.714 126.957H199.365C197.577 126.957 196.128 128.406 196.128 130.195C196.128 131.983 197.577 133.433 199.365 133.433H227.714C229.502 133.433 230.952 131.983 230.952 130.195C230.952 128.406 229.502 126.957 227.714 126.957Z" fill="#007CFF"/>
</g>
<path d="M233.928 143.78H245.764V150.256H233.928V143.78Z" fill="#ECECEC"/>
<path d="M233.928 135.368H245.764V141.844H233.928V135.368Z" fill="#007CFF"/>
<path d="M233.928 126.956H245.764V133.432H233.928V126.956Z" fill="#ECECEC"/>
<path d="M247.7 143.78H259.536V150.256H247.7V143.78Z" fill="#ECECEC"/>
<path d="M247.7 135.368H259.536V141.844H247.7V135.368Z" fill="#ECECEC"/>
<path d="M247.7 126.956H259.536V133.432H247.7V126.956Z" fill="#007CFF"/>
<g opacity="0.600006">
<path d="M227.714 177.777H199.365C197.577 177.777 196.128 179.226 196.128 181.015C196.128 182.803 197.577 184.253 199.365 184.253H227.714C229.502 184.253 230.952 182.803 230.952 181.015C230.952 179.226 229.502 177.777 227.714 177.777Z" fill="#007CFF"/>
</g>
<g opacity="0.600006">
<path d="M227.714 169.365H199.365C197.577 169.365 196.128 170.814 196.128 172.602C196.128 174.391 197.577 175.841 199.365 175.841H227.714C229.502 175.841 230.952 174.391 230.952 172.602C230.952 170.814 229.502 169.365 227.714 169.365Z" fill="#007CFF"/>
</g>
<g opacity="0.600006">
<path d="M227.714 160.953H199.365C197.577 160.953 196.128 162.402 196.128 164.19C196.128 165.98 197.577 167.429 199.365 167.429H227.714C229.502 167.429 230.952 165.98 230.952 164.19C230.952 162.402 229.502 160.953 227.714 160.953Z" fill="#007CFF"/>
</g>
<path d="M233.928 177.776H245.764V184.252H233.928V177.776Z" fill="#ECECEC"/>
<path d="M233.928 169.364H245.764V175.84H233.928V169.364Z" fill="#ECECEC"/>
<path d="M233.928 160.952H245.764V167.428H233.928V160.952Z" fill="#007CFF"/>
<path d="M247.7 177.776H259.536V184.252H247.7V177.776Z" fill="#007CFF"/>
<path d="M247.7 169.364H259.536V175.84H247.7V169.364Z" fill="#ECECEC"/>
<path d="M247.7 160.952H259.536V167.428H247.7V160.952Z" fill="#007CFF"/>
<g opacity="0.600006">
<path d="M227.714 211.773H199.365C197.577 211.773 196.128 213.222 196.128 215.01C196.128 216.8 197.577 218.249 199.365 218.249H227.714C229.502 218.249 230.952 216.8 230.952 215.01C230.952 213.222 229.502 211.773 227.714 211.773Z" fill="#007CFF"/>
</g>
<g opacity="0.600006">
<path d="M227.714 203.361H199.365C197.577 203.361 196.128 204.81 196.128 206.599C196.128 208.387 197.577 209.837 199.365 209.837H227.714C229.502 209.837 230.952 208.387 230.952 206.599C230.952 204.81 229.502 203.361 227.714 203.361Z" fill="#007CFF"/>
</g>
<g opacity="0.600006">
<path d="M227.714 194.949H199.365C197.577 194.949 196.128 196.398 196.128 198.186C196.128 199.976 197.577 201.425 199.365 201.425H227.714C229.502 201.425 230.952 199.976 230.952 198.186C230.952 196.398 229.502 194.949 227.714 194.949Z" fill="#007CFF"/>
</g>
<path d="M233.928 211.772H245.764V218.248H233.928V211.772Z" fill="#007CFF"/>
<path d="M233.928 203.36H245.764V209.836H233.928V203.36Z" fill="#ECECEC"/>
<path d="M233.928 194.948H245.764V201.424H233.928V194.948Z" fill="#ECECEC"/>
<path d="M247.7 211.772H259.536V218.248H247.7V211.772Z" fill="#ECECEC"/>
<path d="M247.7 203.36H259.536V209.836H247.7V203.36Z" fill="#ECECEC"/>
<path d="M247.7 194.948H259.536V201.424H247.7V194.948Z" fill="#007CFF"/>
<g opacity="0.600006">
<path d="M227.714 245.769H199.365C197.577 245.769 196.128 247.218 196.128 249.006C196.128 250.796 197.577 252.245 199.365 252.245H227.714C229.502 252.245 230.952 250.796 230.952 249.006C230.952 247.218 229.502 245.769 227.714 245.769Z" fill="#007CFF"/>
</g>
<path d="M227.714 237.357H199.365C197.577 237.357 196.128 238.807 196.128 240.595C196.128 242.384 197.577 243.833 199.365 243.833H227.714C229.502 243.833 230.952 242.384 230.952 240.595C230.952 238.807 229.502 237.357 227.714 237.357Z" fill="#ECECEC"/>
<g opacity="0.600006">
<path d="M227.714 228.945H199.365C197.577 228.945 196.128 230.395 196.128 232.184C196.128 233.972 197.577 235.421 199.365 235.421H227.714C229.502 235.421 230.952 233.972 230.952 232.184C230.952 230.395 229.502 228.945 227.714 228.945Z" fill="#007CFF"/>
</g>
<path d="M233.928 245.768H245.764V252.244H233.928V245.768Z" fill="#ECECEC"/>
<path d="M233.928 237.358H245.764V243.834H233.928V237.358Z" fill="#007CFF"/>
<path d="M233.928 228.946H245.764V235.422H233.928V228.946Z" fill="#ECECEC"/>
<path d="M247.7 245.768H259.536V252.244H247.7V245.768Z" fill="#007CFF"/>
<path d="M247.7 237.358H259.536V243.834H247.7V237.358Z" fill="#007CFF"/>
<path d="M247.7 228.946H259.536V235.422H247.7V228.946Z" fill="#ECECEC"/>
<g opacity="0.600006">
<path d="M227.714 279.765H199.365C197.577 279.765 196.128 281.215 196.128 283.004C196.128 284.792 197.577 286.241 199.365 286.241H227.714C229.502 286.241 230.952 284.792 230.952 283.004C230.952 281.215 229.502 279.765 227.714 279.765Z" fill="#007CFF"/>
</g>
<g opacity="0.600006">
<path d="M227.714 271.353H199.365C197.577 271.353 196.128 272.803 196.128 274.592C196.128 276.38 197.577 277.829 199.365 277.829H227.714C229.502 277.829 230.952 276.38 230.952 274.592C230.952 272.803 229.502 271.353 227.714 271.353Z" fill="#007CFF"/>
</g>
<g opacity="0.600006">
<path d="M227.714 262.942H199.365C197.577 262.942 196.128 264.391 196.128 266.179C196.128 267.968 197.577 269.418 199.365 269.418H227.714C229.502 269.418 230.952 267.968 230.952 266.179C230.952 264.391 229.502 262.942 227.714 262.942Z" fill="#007CFF"/>
</g>
<path d="M233.928 279.766H245.764V286.242H233.928V279.766Z" fill="#ECECEC"/>
<path d="M233.928 271.354H245.764V277.83H233.928V271.354Z" fill="#ECECEC"/>
<path d="M233.928 262.942H245.764V269.418H233.928V262.942Z" fill="#ECECEC"/>
<path d="M247.7 279.766H259.536V286.242H247.7V279.766Z" fill="#ECECEC"/>
<path d="M247.7 271.354H259.536V277.83H247.7V271.354Z" fill="#ECECEC"/>
<path d="M247.7 262.942H259.536V269.418H247.7V262.942Z" fill="#007CFF"/>
<path d="M336.135 143.158H363.324C367.515 143.158 370.912 146.555 370.912 150.747V284.798C370.912 288.988 367.515 292.386 363.324 292.386H336.135V143.158Z" fill="#E1E1E1"/>
<path d="M338.841 143.158H280.307C276.117 143.158 272.719 146.555 272.719 150.747V284.798C272.719 288.988 276.117 292.386 280.307 292.386H338.841C343.033 292.386 346.43 288.988 346.43 284.798V150.747C346.43 146.555 343.033 143.158 338.841 143.158Z" fill="white"/>
<path d="M346.43 262.818H272.72V261.432H346.43V262.818Z" fill="#E1E1E1"/>
<path d="M346.43 233.25H272.72V231.864H346.43V233.25Z" fill="#E1E1E1"/>
<path d="M346.43 203.68H272.72V202.295H346.43V203.68Z" fill="#E1E1E1"/>
<path d="M346.43 174.112H272.72V172.726H346.43V174.112Z" fill="#E1E1E1"/>
<g opacity="0.600006">
<path d="M309.472 163.135H284.815C283.26 163.135 281.999 164.396 281.999 165.951C281.999 167.507 283.26 168.768 284.815 168.768H309.472C311.028 168.768 312.288 167.507 312.288 165.951C312.288 164.396 311.028 163.135 309.472 163.135Z" fill="#007CFF"/>
</g>
<g opacity="0.600006">
<path d="M309.472 155.819H284.815C283.26 155.819 281.999 157.08 281.999 158.635C281.999 160.191 283.26 161.452 284.815 161.452H309.472C311.028 161.452 312.288 160.191 312.288 158.635C312.288 157.08 311.028 155.819 309.472 155.819Z" fill="#007CFF"/>
</g>
<g opacity="0.600006">
<path d="M309.472 148.502H284.815C283.26 148.502 281.999 149.763 281.999 151.318C281.999 152.874 283.26 154.135 284.815 154.135H309.472C311.028 154.135 312.288 152.874 312.288 151.318C312.288 149.763 311.028 148.502 309.472 148.502Z" fill="#007CFF"/>
</g>
<path d="M314.877 272.408H325.172V266.775H314.877V272.408Z" fill="#ECECEC"/>
<path d="M314.877 279.726H325.172V274.092H314.877V279.726Z" fill="#007CFF"/>
<path d="M314.877 287.042H325.172V281.408H314.877V287.042Z" fill="#ECECEC"/>
<path d="M326.854 272.408H337.149V266.775H326.854V272.408Z" fill="#ECECEC"/>
<path d="M326.854 279.726H337.149V274.092H326.854V279.726Z" fill="#ECECEC"/>
<path d="M326.854 287.042H337.149V281.408H326.854V287.042Z" fill="#007CFF"/>
<path d="M309.472 192.703H284.815C283.26 192.703 281.999 193.965 281.999 195.519C281.999 197.075 283.26 198.337 284.815 198.337H309.472C311.028 198.337 312.288 197.075 312.288 195.519C312.288 193.965 311.028 192.703 309.472 192.703Z" fill="#ECECEC"/>
<g opacity="0.600006">
<path d="M309.472 185.387H284.815C283.26 185.387 281.999 186.648 281.999 188.203C281.999 189.759 283.26 191.02 284.815 191.02H309.472C311.028 191.02 312.288 189.759 312.288 188.203C312.288 186.648 311.028 185.387 309.472 185.387Z" fill="#007CFF"/>
</g>
<g opacity="0.600006">
<path d="M309.472 178.071H284.815C283.26 178.071 281.999 179.332 281.999 180.887C281.999 182.443 283.26 183.703 284.815 183.703H309.472C311.028 183.703 312.288 182.443 312.288 180.887C312.288 179.332 311.028 178.071 309.472 178.071Z" fill="#007CFF"/>
</g>
<path d="M314.877 242.84H325.172V237.207H314.877V242.84Z" fill="#ECECEC"/>
<path d="M314.877 250.156H325.172V244.524H314.877V250.156Z" fill="#ECECEC"/>
<path d="M314.877 257.474H325.172V251.84H314.877V257.474Z" fill="#007CFF"/>
<path d="M326.854 242.84H337.149V237.207H326.854V242.84Z" fill="#007CFF"/>
<path d="M326.854 250.156H337.149V244.524H326.854V250.156Z" fill="#ECECEC"/>
<path d="M326.854 257.474H337.149V251.84H326.854V257.474Z" fill="#007CFF"/>
<g opacity="0.600006">
<path d="M309.472 222.272H284.815C283.26 222.272 281.999 223.533 281.999 225.088C281.999 226.644 283.26 227.905 284.815 227.905H309.472C311.028 227.905 312.288 226.644 312.288 225.088C312.288 223.533 311.028 222.272 309.472 222.272Z" fill="#007CFF"/>
</g>
<g opacity="0.600006">
<path d="M309.472 214.956H284.815C283.26 214.956 281.999 216.217 281.999 217.772C281.999 219.328 283.26 220.589 284.815 220.589H309.472C311.028 220.589 312.288 219.328 312.288 217.772C312.288 216.217 311.028 214.956 309.472 214.956Z" fill="#007CFF"/>
</g>
<g opacity="0.600006">
<path d="M309.472 207.639H284.815C283.26 207.639 281.999 208.901 281.999 210.455C281.999 212.011 283.26 213.273 284.815 213.273H309.472C311.028 213.273 312.288 212.011 312.288 210.455C312.288 208.901 311.028 207.639 309.472 207.639Z" fill="#007CFF"/>
</g>
<path d="M314.877 213.272H325.172V207.639H314.877V213.272Z" fill="#007CFF"/>
<path d="M314.877 220.588H325.172V214.955H314.877V220.588Z" fill="#ECECEC"/>
<path d="M314.877 227.904H325.172V222.271H314.877V227.904Z" fill="#ECECEC"/>
<path d="M326.854 213.272H337.149V207.639H326.854V213.272Z" fill="#ECECEC"/>
<path d="M326.854 220.588H337.149V214.955H326.854V220.588Z" fill="#ECECEC"/>
<path d="M326.854 227.904H337.149V222.271H326.854V227.904Z" fill="#007CFF"/>
<g opacity="0.600006">
<path d="M309.472 251.84H284.815C283.26 251.84 281.999 253.102 281.999 254.656C281.999 256.212 283.26 257.474 284.815 257.474H309.472C311.028 257.474 312.288 256.212 312.288 254.656C312.288 253.102 311.028 251.84 309.472 251.84Z" fill="#007CFF"/>
</g>
<g opacity="0.600006">
<path d="M309.472 244.524H284.815C283.26 244.524 281.999 245.786 281.999 247.34C281.999 248.896 283.26 250.156 284.815 250.156H309.472C311.028 250.156 312.288 248.896 312.288 247.34C312.288 245.786 311.028 244.524 309.472 244.524Z" fill="#007CFF"/>
</g>
<g opacity="0.600006">
<path d="M309.472 237.208H284.815C283.26 237.208 281.999 238.469 281.999 240.024C281.999 241.58 283.26 242.841 284.815 242.841H309.472C311.028 242.841 312.288 241.58 312.288 240.024C312.288 238.469 311.028 237.208 309.472 237.208Z" fill="#007CFF"/>
</g>
<path d="M314.877 183.703H325.172V178.071H314.877V183.703Z" fill="#ECECEC"/>
<path d="M314.877 191.019H325.172V185.386H314.877V191.019Z" fill="#007CFF"/>
<path d="M314.877 198.336H325.172V192.703H314.877V198.336Z" fill="#ECECEC"/>
<path d="M326.854 183.703H337.149V178.071H326.854V183.703Z" fill="#007CFF"/>
<path d="M326.854 191.019H337.149V185.386H326.854V191.019Z" fill="#ECECEC"/>
<path d="M326.854 198.336H337.149V192.703H326.854V198.336Z" fill="#ECECEC"/>
<g opacity="0.600006">
<path d="M309.472 281.409H284.815C283.26 281.409 281.999 282.67 281.999 284.225C281.999 285.781 283.26 287.042 284.815 287.042H309.472C311.028 287.042 312.288 285.781 312.288 284.225C312.288 282.67 311.028 281.409 309.472 281.409Z" fill="#007CFF"/>
</g>
<g opacity="0.600006">
<path d="M309.472 274.093H284.815C283.26 274.093 281.999 275.354 281.999 276.909C281.999 278.465 283.26 279.726 284.815 279.726H309.472C311.028 279.726 312.288 278.465 312.288 276.909C312.288 275.354 311.028 274.093 309.472 274.093Z" fill="#007CFF"/>
</g>
<g opacity="0.600006">
<path d="M309.472 266.776H284.815C283.26 266.776 281.999 268.038 281.999 269.592C281.999 271.148 283.26 272.41 284.815 272.41H309.472C311.028 272.41 312.288 271.148 312.288 269.592C312.288 268.038 311.028 266.776 309.472 266.776Z" fill="#007CFF"/>
</g>
<path d="M314.877 154.135H325.172V148.502H314.877V154.135Z" fill="#007CFF"/>
<path d="M314.877 161.451H325.172V155.818H314.877V161.451Z" fill="#ECECEC"/>
<path d="M314.877 168.767H325.172V163.134H314.877V168.767Z" fill="#ECECEC"/>
<path d="M326.854 154.135H337.149V148.502H326.854V154.135Z" fill="#ECECEC"/>
<path d="M326.854 161.451H337.149V155.818H326.854V161.451Z" fill="#ECECEC"/>
<path d="M326.854 168.767H337.149V163.134H326.854V168.767Z" fill="#007CFF"/>
<defs>
<filter id="filter0_d_5_710" x="0.926392" y="40.2607" width="230.787" height="152.589" filterUnits="userSpaceOnUse" color-interpolation-filters="sRGB">
<feFlood flood-opacity="0" result="BackgroundImageFix"/>
<feColorMatrix in="SourceAlpha" type="matrix" values="0 0 0 0 0 0 0 0 0 0 0 0 0 0 0 0 0 0 127 0" result="hardAlpha"/>
<feOffset dx="4" dy="4"/>
<feGaussianBlur stdDeviation="9.5"/>
<feComposite in2="hardAlpha" operator="out"/>
<feColorMatrix type="matrix" values="0 0 0 0 0.54902 0 0 0 0 0.601218 0 0 0 0 0.827451 0 0 0 0.12 0"/>
<feBlend mode="normal" in2="BackgroundImageFix" result="effect1_dropShadow_5_710"/>
<feBlend mode="normal" in="SourceGraphic" in2="effect1_dropShadow_5_710" result="shape"/>
</filter>
<filter id="filter1_d_5_710" x="318.112" y="224.187" width="230.787" height="152.589" filterUnits="userSpaceOnUse" color-interpolation-filters="sRGB">
<feFlood flood-opacity="0" result="BackgroundImageFix"/>
<feColorMatrix in="SourceAlpha" type="matrix" values="0 0 0 0 0 0 0 0 0 0 0 0 0 0 0 0 0 0 127 0" result="hardAlpha"/>
<feOffset dy="6"/>
<feGaussianBlur stdDeviation="9.5"/>
<feComposite in2="hardAlpha" operator="out"/>
<feColorMatrix type="matrix" values="0 0 0 0 0.154167 0 0 0 0 0.154167 0 0 0 0 0.154167 0 0 0 0.12 0"/>
<feBlend mode="normal" in2="BackgroundImageFix" result="effect1_dropShadow_5_710"/>
<feBlend mode="normal" in="SourceGraphic" in2="effect1_dropShadow_5_710" result="shape"/>
</filter>
<filter id="filter2_d_5_710" x="344.767" y="-3.05176e-05" width="170.101" height="116.52" filterUnits="userSpaceOnUse" color-interpolation-filters="sRGB">
<feFlood flood-opacity="0" result="BackgroundImageFix"/>
<feColorMatrix in="SourceAlpha" type="matrix" values="0 0 0 0 0 0 0 0 0 0 0 0 0 0 0 0 0 0 127 0" result="hardAlpha"/>
<feOffset dy="3"/>
<feGaussianBlur stdDeviation="9.5"/>
<feComposite in2="hardAlpha" operator="out"/>
<feColorMatrix type="matrix" values="0 0 0 0 0.54902 0 0 0 0 0.601218 0 0 0 0 0.827451 0 0 0 0.12 0"/>
<feBlend mode="normal" in2="BackgroundImageFix" result="effect1_dropShadow_5_710"/>
<feBlend mode="normal" in="SourceGraphic" in2="effect1_dropShadow_5_710" result="shape"/>
</filter>
<filter id="filter3_b_5_710" x="31.7897" y="88.7145" width="483.952" height="356.124" filterUnits="userSpaceOnUse" color-interpolation-filters="sRGB">
<feFlood flood-opacity="0" result="BackgroundImageFix"/>
<feGaussianBlur in="BackgroundImage" stdDeviation="24.5"/>
<feComposite in2="SourceAlpha" operator="in" result="effect1_backgroundBlur_5_710"/>
<feBlend mode="normal" in="SourceGraphic" in2="effect1_backgroundBlur_5_710" result="shape"/>
</filter>
<filter id="filter4_d_5_710" x="20.1976" y="39.1031" width="440.431" height="275.577" filterUnits="userSpaceOnUse" color-interpolation-filters="sRGB">
<feFlood flood-opacity="0" result="BackgroundImageFix"/>
<feColorMatrix in="SourceAlpha" type="matrix" values="0 0 0 0 0 0 0 0 0 0 0 0 0 0 0 0 0 0 127 0" result="hardAlpha"/>
<feOffset dy="4"/>
<feGaussianBlur stdDeviation="8.5"/>
<feComposite in2="hardAlpha" operator="out"/>
<feColorMatrix type="matrix" values="0 0 0 0 0.0299479 0 0 0 0 0.15764 0 0 0 0 0.3125 0 0 0 0.22 0"/>
<feBlend mode="normal" in2="BackgroundImageFix" result="effect1_dropShadow_5_710"/>
<feBlend mode="normal" in="SourceGraphic" in2="effect1_dropShadow_5_710" result="shape"/>
</filter>
<filter id="filter5_b_5_710" x="81.4209" y="32.1031" width="446.431" height="281.577" filterUnits="userSpaceOnUse" color-interpolation-filters="sRGB">
<feFlood flood-opacity="0" result="BackgroundImageFix"/>
<feGaussianBlur in="BackgroundImage" stdDeviation="10"/>
<feComposite in2="SourceAlpha" operator="in" result="effect1_backgroundBlur_5_710"/>
<feBlend mode="normal" in="SourceGraphic" in2="effect1_backgroundBlur_5_710" result="shape"/>
</filter>
<linearGradient id="paint0_linear_5_710" x1="144.325" y1="97.7378" x2="-35.7765" y2="119.171" gradientUnits="userSpaceOnUse">
<stop stop-color="#A0B8FF"/>
<stop offset="1" stop-color="#F3FEFF"/>
</linearGradient>
<linearGradient id="paint1_linear_5_710" x1="481.5" y1="457" x2="475.373" y2="298.091" gradientUnits="userSpaceOnUse">
<stop stop-color="#A0B8FF"/>
<stop offset="1" stop-color="#F3FEFF"/>
</linearGradient>
<linearGradient id="paint2_linear_5_710" x1="597" y1="95.9999" x2="479.264" y2="-30.6059" gradientUnits="userSpaceOnUse">
<stop stop-color="#A0B8FF"/>
<stop offset="1" stop-color="#F3FEFF"/>
</linearGradient>
<linearGradient id="paint3_linear_5_710" x1="307.887" y1="141.653" x2="-71.8018" y2="186.839" gradientUnits="userSpaceOnUse">
<stop stop-color="#007CFF"/>
<stop offset="1" stop-color="#DFB5EB"/>
</linearGradient>
</defs>
</svg>
