<svg width="549" height="410" viewBox="0 0 549 410" fill="none" xmlns="http://www.w3.org/2000/svg">
<g filter="url(#filter0_d_61_504)">
<path d="M190.721 115.797C190.548 95.0141 173.653 78.2194 152.829 78.2194C147.812 78.2194 143.026 79.2034 138.642 80.9741C131.201 65.7488 115.566 55.2608 97.4783 55.2608C75.6036 55.2608 57.3236 70.6008 52.7769 91.1074C32.2049 92.4301 15.9263 109.526 15.9263 130.433C15.9263 152.202 33.5743 169.85 55.3436 169.85H180.772C196.204 169.85 208.713 157.339 208.713 141.907C208.713 129.982 201.238 119.807 190.721 115.797Z" fill="url(#paint0_linear_61_504)"/>
</g>
<g filter="url(#filter1_d_61_504)">
<path d="M511.906 297.723C511.732 276.94 494.837 260.145 474.014 260.145C468.997 260.145 464.212 261.129 459.828 262.9C452.386 247.676 436.752 237.187 418.664 237.187C396.789 237.187 378.508 252.527 373.962 273.033C353.39 274.356 337.112 291.452 337.112 312.359C337.112 334.128 354.76 351.776 376.529 351.776H501.956C517.388 351.776 529.898 339.265 529.898 323.833C529.898 311.908 522.424 301.733 511.906 297.723Z" fill="url(#paint1_linear_61_504)"/>
</g>
<g filter="url(#filter2_d_61_504)">
<path d="M483.54 57.4814C483.42 43.2414 471.844 31.732 457.575 31.732C454.137 31.732 450.859 32.4067 447.855 33.62C442.756 23.188 432.043 16 419.648 16C404.659 16 392.133 26.512 389.019 40.564C374.921 41.4707 363.767 53.184 363.767 67.5107C363.767 82.4267 375.86 94.52 390.776 94.52H476.721C487.296 94.52 495.868 85.948 495.868 75.3734C495.868 67.2014 490.747 60.2294 483.54 57.4814Z" fill="url(#paint2_linear_61_504)"/>
</g>
<g filter="url(#filter3_b_61_504)">
<path d="M318.572 389.884C432.652 375.238 460.504 308.431 465.961 264.391C473.789 201.212 423.132 127.558 294.957 138.875C201.204 147.152 77.2011 189.16 80.8691 280.334C84.9051 380.64 162.105 409.974 318.572 389.884Z" fill="white" fill-opacity="0.33"/>
</g>
<path d="M469.921 179.726C469.554 135.914 433.938 100.506 390.038 100.506H357.04C340.365 71.5802 309.136 52.1029 273.349 52.1029H209.126V76.5882C194.294 89.8256 183.568 107.57 179.112 127.676C135.741 130.466 101.421 166.506 101.421 210.582C101.421 256.476 138.626 293.682 184.521 293.682H448.945C481.478 293.682 507.852 267.307 507.852 234.774C507.852 209.632 492.094 188.18 469.921 179.726Z" fill="#007CFF"/>
<path d="M469.921 179.726C469.554 135.914 433.938 100.506 390.038 100.506H357.04C340.365 71.5802 309.136 52.1029 273.349 52.1029H209.126V76.5882C194.294 89.8256 183.568 107.57 179.112 127.676C135.741 130.466 101.421 166.506 101.421 210.582C101.421 256.476 138.626 293.682 184.521 293.682H448.945C481.478 293.682 507.852 267.307 507.852 234.774C507.852 209.632 492.094 188.18 469.921 179.726Z" fill="#B3D8FF"/>
<g filter="url(#filter4_d_61_504)">
<path d="M405.697 179.726C405.331 135.913 369.713 100.506 325.815 100.506C315.236 100.506 305.148 102.581 295.908 106.314C280.219 74.2166 247.259 52.1032 209.125 52.1032C163.009 52.1032 124.471 84.4445 114.888 127.677C71.5173 130.465 37.1973 166.506 37.1973 210.581C37.1973 256.475 74.4026 293.681 120.297 293.681H384.721C417.255 293.681 443.628 267.307 443.628 234.774C443.628 209.631 427.871 188.181 405.697 179.726Z" fill="url(#paint3_linear_61_504)"/>
</g>
<path d="M97.5872 390.356L100.202 344.7C100.355 342.032 102.642 339.869 105.31 339.869H179.395C182.063 339.869 184.102 342.032 183.95 344.7L181.335 390.356C181.182 393.024 178.895 395.187 176.227 395.187H102.142C99.4739 395.187 97.4339 393.024 97.5872 390.356Z" fill="#007CFF"/>
<path d="M225.209 390.356L227.823 344.7C227.977 342.032 230.263 339.869 232.931 339.869H307.017C309.685 339.869 311.725 342.032 311.571 344.7L308.957 390.356C308.803 393.024 306.517 395.187 303.849 395.187H229.763C227.095 395.187 225.055 393.024 225.209 390.356Z" fill="#007CFF"/>
<path d="M352.831 390.356L355.445 344.7C355.599 342.032 357.885 339.869 360.553 339.869H434.639C437.307 339.869 439.347 342.032 439.193 344.7L436.579 390.356C436.425 393.024 434.139 395.187 431.471 395.187H357.385C354.717 395.187 352.679 393.024 352.831 390.356Z" fill="#007CFF"/>
<path d="M125.471 405.001V404.397C125.471 401.729 127.634 399.566 130.303 399.566H158.167C160.835 399.566 162.999 401.729 162.999 404.397V405.001C162.999 407.669 160.835 409.831 158.167 409.831H130.303C127.634 409.831 125.471 407.669 125.471 405.001Z" fill="#84C0FF"/>
<path d="M253.093 405.001V404.397C253.093 401.729 255.257 399.566 257.925 399.566H285.789C288.457 399.566 290.621 401.729 290.621 404.397V405.001C290.621 407.669 288.457 409.831 285.789 409.831H257.925C255.257 409.831 253.093 407.669 253.093 405.001Z" fill="#84C0FF"/>
<path d="M380.715 405.001V404.397C380.715 401.729 382.878 399.566 385.546 399.566H413.411C416.079 399.566 418.242 401.729 418.242 404.397V405.001C418.242 407.669 416.079 409.831 413.411 409.831H385.546C382.878 409.831 380.715 407.669 380.715 405.001Z" fill="#84C0FF"/>
<path d="M93.8436 390.356L96.4582 344.7C96.6116 342.032 98.8982 339.869 101.566 339.869H178.625C181.293 339.869 183.333 342.032 183.18 344.7L180.565 390.356C180.412 393.024 178.125 395.187 175.457 395.187H98.3982C95.7302 395.187 93.6902 393.024 93.8436 390.356Z" fill="#B3D8FF"/>
<path d="M221.465 390.356L224.08 344.7C224.233 342.032 226.52 339.869 229.188 339.869H306.247C308.915 339.869 310.955 342.032 310.801 344.7L308.187 390.356C308.035 393.024 305.747 395.187 303.079 395.187H226.02C223.352 395.187 221.312 393.024 221.465 390.356Z" fill="#B3D8FF"/>
<path d="M349.087 390.356L351.702 344.7C351.855 342.032 354.142 339.869 356.81 339.869H433.868C436.538 339.869 438.576 342.032 438.423 344.7L435.81 390.356C435.656 393.024 433.368 395.187 430.7 395.187H353.642C350.974 395.187 348.935 393.024 349.087 390.356Z" fill="#B3D8FF"/>
<path d="M114.025 405.001V404.397C114.025 401.729 116.187 399.566 118.855 399.566H149.694C152.362 399.566 154.525 401.729 154.525 404.397V405.001C154.525 407.669 152.362 409.832 149.694 409.832H118.855C116.187 409.832 114.025 407.669 114.025 405.001Z" fill="#B3D8FF"/>
<path d="M241.646 405.001V404.397C241.646 401.729 243.809 399.566 246.477 399.566H277.316C279.984 399.566 282.146 401.729 282.146 404.397V405.001C282.146 407.669 279.984 409.832 277.316 409.832H246.477C243.809 409.832 241.646 407.669 241.646 405.001Z" fill="#B3D8FF"/>
<path d="M369.268 405.001V404.397C369.268 401.729 371.431 399.566 374.1 399.566H404.937C407.605 399.566 409.768 401.729 409.768 404.397V405.001C409.768 407.669 407.605 409.832 404.937 409.832H374.1C371.431 409.832 369.268 407.669 369.268 405.001Z" fill="#B3D8FF"/>
<path fill-rule="evenodd" clip-rule="evenodd" d="M93.8431 390.356L96.4577 344.7C96.6111 342.032 98.8977 339.869 101.566 339.869H178.624C181.292 339.869 183.332 342.032 183.179 344.7L180.564 390.356C180.411 393.024 178.124 395.187 175.456 395.187H98.3977C95.7297 395.187 93.6897 393.024 93.8431 390.356ZM221.465 390.356L224.079 344.7C224.233 342.032 226.519 339.869 229.187 339.869H306.246C308.914 339.869 310.954 342.032 310.801 344.7L308.186 390.356C308.034 393.024 305.746 395.187 303.078 395.187H226.019C223.351 395.187 221.311 393.024 221.465 390.356ZM351.701 344.7L349.087 390.356C348.935 393.024 350.973 395.187 353.641 395.187H430.7C433.368 395.187 435.656 393.024 435.809 390.356L438.423 344.7C438.576 342.032 436.537 339.869 433.868 339.869H356.809C354.141 339.869 351.855 342.032 351.701 344.7ZM176.54 392.845H97.5818C96.4058 392.845 95.5071 391.891 95.5738 390.714L98.2298 344.342C98.2965 343.165 99.3058 342.211 100.483 342.211H179.44C180.618 342.211 181.516 343.165 181.448 344.342L178.792 390.714C178.726 391.891 177.716 392.845 176.54 392.845ZM304.162 392.845H225.205C224.028 392.845 223.129 391.891 223.196 390.714L225.852 344.342C225.918 343.165 226.928 342.211 228.105 342.211H307.062C308.24 342.211 309.138 343.165 309.072 344.342L306.414 390.714C306.348 391.891 305.34 392.845 304.162 392.845ZM352.827 392.845H431.784C432.961 392.845 433.969 391.891 434.037 390.714L436.693 344.342C436.76 343.165 435.861 342.211 434.684 342.211H355.727C354.549 342.211 353.541 343.165 353.473 344.342L350.817 390.714C350.751 391.891 351.649 392.845 352.827 392.845Z" fill="white"/>
<path d="M120.338 392.845H104.637L119.001 342.211H134.702L120.338 392.845Z" fill="#DEEFFF"/>
<path d="M133.196 392.845H122.226L136.591 342.211H147.56L133.196 392.845Z" fill="#DEEFFF"/>
<path d="M157.114 392.845H146.144L160.508 342.211H171.478L157.114 392.845Z" fill="#DEEFFF"/>
<path d="M247.96 392.845H232.259L246.623 342.211H262.324L247.96 392.845Z" fill="#DEEFFF"/>
<path d="M260.819 392.845H249.848L264.212 342.211H275.183L260.819 392.845Z" fill="#DEEFFF"/>
<path d="M284.736 392.845H273.765L288.129 342.211H299.1L284.736 392.845Z" fill="#DEEFFF"/>
<path d="M375.582 392.845H359.881L374.245 342.211H389.946L375.582 392.845Z" fill="#DEEFFF"/>
<path d="M388.44 392.845H377.47L391.834 342.211H402.804L388.44 392.845Z" fill="#DEEFFF"/>
<path d="M412.358 392.845H401.387L415.751 342.211H426.722L412.358 392.845Z" fill="#DEEFFF"/>
<g filter="url(#filter5_b_61_504)">
<path d="M469.921 179.726C469.554 135.913 433.938 100.506 390.038 100.506C379.46 100.506 369.372 102.581 360.132 106.314C344.442 74.2165 311.482 52.1032 273.349 52.1032C227.233 52.1032 188.694 84.4445 179.112 127.677C135.741 130.465 101.421 166.506 101.421 210.581C101.421 256.475 138.626 293.681 184.521 293.681H448.945C481.478 293.681 507.852 267.307 507.852 234.774C507.852 209.631 492.094 188.181 469.921 179.726Z" fill="white" fill-opacity="0.3"/>
</g>
<path d="M175.42 175.841H196.653C199.927 175.841 202.58 178.494 202.58 181.768V286.46C202.58 289.733 199.927 292.386 196.653 292.386H175.42V175.841Z" fill="#E1E1E1"/>
<path d="M258.369 120.812H289.629C294.448 120.812 298.354 124.719 298.354 129.537V283.661C298.354 288.48 294.448 292.387 289.629 292.387H258.369V120.812Z" fill="#E1E1E1"/>
<path d="M336.135 143.158H363.324C367.515 143.158 370.912 146.555 370.912 150.747V284.798C370.912 288.989 367.515 292.386 363.324 292.386H336.135V143.158Z" fill="#E1E1E1"/>
<path d="M177.533 175.841H131.819C128.546 175.841 125.893 178.494 125.893 181.768V286.46C125.893 289.733 128.546 292.386 131.819 292.386H177.533C180.806 292.386 183.459 289.733 183.459 286.46V181.768C183.459 178.494 180.806 175.841 177.533 175.841Z" fill="white"/>
<path d="M261.48 120.812H194.181C189.364 120.812 185.456 124.719 185.456 129.537V283.661C185.456 288.48 189.364 292.387 194.181 292.387H261.48C266.299 292.387 270.205 288.48 270.205 283.661V129.537C270.205 124.719 266.299 120.812 261.48 120.812Z" fill="white"/>
<path d="M338.841 143.158H280.307C276.117 143.158 272.719 146.555 272.719 150.747V284.798C272.719 288.989 276.117 292.386 280.307 292.386H338.841C343.033 292.386 346.43 288.989 346.43 284.798V150.747C346.43 146.555 343.033 143.158 338.841 143.158Z" fill="white"/>
<path d="M183.46 269.294H125.893V268.211H183.46V269.294Z" fill="#E1E1E1"/>
<path d="M183.46 246.2H125.893V245.118H183.46V246.2Z" fill="#E1E1E1"/>
<path d="M183.46 223.109H125.893V222.026H183.46V223.109Z" fill="#E1E1E1"/>
<path d="M183.46 200.017H125.893V198.934H183.46V200.017Z" fill="#E1E1E1"/>
<path d="M159 191.443H167.04V195.842H159V191.443Z" fill="#ECECEC"/>
<path d="M159 180.015H167.04V184.414H159V180.015Z" fill="#ECECEC"/>
<path d="M168.172 191.443H176.212V195.842H168.172V191.443Z" fill="#ECECEC"/>
<path d="M168.172 180.601H176.212V185H168.172V180.601Z" fill="#ECECEC"/>
<path d="M154.596 214.535H135.34C134.124 214.535 133.14 215.521 133.14 216.735C133.14 217.95 134.124 218.934 135.34 218.934H154.596C155.811 218.934 156.796 217.95 156.796 216.735C156.796 215.521 155.811 214.535 154.596 214.535Z" fill="#ECECEC"/>
<path d="M158.817 214.535H166.857V218.934H158.817V214.535Z" fill="#ECECEC"/>
<path d="M158.817 208.822H166.857V213.221H158.817V208.822Z" fill="#ECECEC"/>
<path d="M168.172 214.535H176.212V218.934H168.172V214.535Z" fill="#ECECEC"/>
<path d="M168.172 208.822H176.212V213.221H168.172V208.822Z" fill="#ECECEC"/>
<path d="M168.172 203.107H176.212V207.506H168.172V203.107Z" fill="#ECECEC"/>
<path d="M158.817 237.629H166.857V242.027H158.817V237.629Z" fill="#ECECEC"/>
<path d="M158.817 226.2H166.857V230.599H158.817V226.2Z" fill="#ECECEC"/>
<path d="M168.172 237.629H176.212V242.027H168.172V237.629Z" fill="#ECECEC"/>
<path d="M168.172 231.914H176.212V236.314H168.172V231.914Z" fill="#ECECEC"/>
<path d="M158.817 260.721H166.857V265.119H158.817V260.721Z" fill="#ECECEC"/>
<path d="M158.817 249.292H166.857V253.691H158.817V249.292Z" fill="#ECECEC"/>
<path d="M168.172 255.007H176.212V259.406H168.172V255.007Z" fill="#ECECEC"/>
<path d="M158.817 278.099H166.857V282.498H158.817V278.099Z" fill="#ECECEC"/>
<path d="M158.817 272.386H166.857V276.785H158.817V272.386Z" fill="#ECECEC"/>
<path d="M168.172 283.814H176.212V288.213H168.172V283.814Z" fill="#ECECEC"/>
<path d="M168.172 278.099H176.212V282.498H168.172V278.099Z" fill="#ECECEC"/>
<path d="M270.205 258.39H185.456V256.797H270.205V258.39Z" fill="#E1E1E1"/>
<path d="M270.205 224.394H185.456V222.801H270.205V224.394Z" fill="#E1E1E1"/>
<path d="M270.205 190.398H185.456V188.805H270.205V190.398Z" fill="#E1E1E1"/>
<path d="M270.205 156.402H185.456V154.809H270.205V156.402Z" fill="#E1E1E1"/>
<path d="M233.928 143.781H245.764V150.257H233.928V143.781Z" fill="#ECECEC"/>
<path d="M233.928 126.957H245.764V133.433H233.928V126.957Z" fill="#ECECEC"/>
<path d="M247.7 143.781H259.536V150.257H247.7V143.781Z" fill="#ECECEC"/>
<path d="M247.7 135.369H259.536V141.845H247.7V135.369Z" fill="#ECECEC"/>
<path d="M233.928 177.777H245.764V184.252H233.928V177.777Z" fill="#ECECEC"/>
<path d="M233.928 169.365H245.764V175.841H233.928V169.365Z" fill="#ECECEC"/>
<path d="M247.7 169.365H259.536V175.841H247.7V169.365Z" fill="#ECECEC"/>
<path d="M233.928 203.36H245.764V209.836H233.928V203.36Z" fill="#ECECEC"/>
<path d="M233.928 194.949H245.764V201.424H233.928V194.949Z" fill="#ECECEC"/>
<path d="M247.7 211.773H259.536V218.249H247.7V211.773Z" fill="#ECECEC"/>
<path d="M247.7 203.36H259.536V209.836H247.7V203.36Z" fill="#ECECEC"/>
<path d="M227.714 237.357H199.365C197.577 237.357 196.128 238.807 196.128 240.595C196.128 242.384 197.577 243.833 199.365 243.833H227.714C229.502 243.833 230.952 242.384 230.952 240.595C230.952 238.807 229.502 237.357 227.714 237.357Z" fill="#ECECEC"/>
<path d="M233.928 245.769H245.764V252.245H233.928V245.769Z" fill="#ECECEC"/>
<path d="M233.928 228.946H245.764V235.422H233.928V228.946Z" fill="#ECECEC"/>
<path d="M247.7 228.946H259.536V235.422H247.7V228.946Z" fill="#ECECEC"/>
<path d="M233.928 279.766H245.764V286.242H233.928V279.766Z" fill="#ECECEC"/>
<path d="M233.928 271.354H245.764V277.83H233.928V271.354Z" fill="#ECECEC"/>
<path d="M233.928 262.942H245.764V269.418H233.928V262.942Z" fill="#ECECEC"/>
<path d="M247.7 279.766H259.536V286.242H247.7V279.766Z" fill="#ECECEC"/>
<path d="M247.7 271.354H259.536V277.83H247.7V271.354Z" fill="#ECECEC"/>
<path d="M346.43 262.818H272.72V261.433H346.43V262.818Z" fill="#E1E1E1"/>
<path d="M346.43 233.25H272.72V231.865H346.43V233.25Z" fill="#E1E1E1"/>
<path d="M346.43 203.681H272.72V202.295H346.43V203.681Z" fill="#E1E1E1"/>
<path d="M346.43 174.112H272.72V172.726H346.43V174.112Z" fill="#E1E1E1"/>
<path d="M314.877 272.409H325.172V266.775H314.877V272.409Z" fill="#ECECEC"/>
<path d="M314.877 287.042H325.172V281.409H314.877V287.042Z" fill="#ECECEC"/>
<path d="M326.854 272.409H337.149V266.775H326.854V272.409Z" fill="#ECECEC"/>
<path d="M326.854 279.726H337.149V274.092H326.854V279.726Z" fill="#ECECEC"/>
<path d="M314.877 242.841H325.172V237.207H314.877V242.841Z" fill="#ECECEC"/>
<path d="M314.877 250.156H325.172V244.524H314.877V250.156Z" fill="#ECECEC"/>
<path d="M326.854 250.156H337.149V244.524H326.854V250.156Z" fill="#ECECEC"/>
<path d="M314.877 220.589H325.172V214.955H314.877V220.589Z" fill="#ECECEC"/>
<path d="M314.877 227.905H325.172V222.271H314.877V227.905Z" fill="#ECECEC"/>
<path d="M326.854 213.273H337.149V207.639H326.854V213.273Z" fill="#ECECEC"/>
<path d="M326.854 220.589H337.149V214.955H326.854V220.589Z" fill="#ECECEC"/>
<path d="M314.877 183.703H325.172V178.071H314.877V183.703Z" fill="#ECECEC"/>
<path d="M314.877 198.336H325.172V192.703H314.877V198.336Z" fill="#ECECEC"/>
<path d="M326.854 191.019H337.149V185.386H326.854V191.019Z" fill="#ECECEC"/>
<path d="M326.854 198.336H337.149V192.703H326.854V198.336Z" fill="#ECECEC"/>
<path d="M314.877 161.451H325.172V155.818H314.877V161.451Z" fill="#ECECEC"/>
<path d="M314.877 168.767H325.172V163.134H314.877V168.767Z" fill="#ECECEC"/>
<path d="M326.854 154.135H337.149V148.502H326.854V154.135Z" fill="#ECECEC"/>
<path d="M326.854 161.451H337.149V155.818H326.854V161.451Z" fill="#ECECEC"/>
<path d="M138.091 330.779C137.998 330.779 137.918 330.752 137.838 330.726C137.758 330.686 137.678 330.632 137.611 330.579C137.558 330.512 137.504 330.446 137.478 330.366C137.438 330.272 137.424 330.192 137.424 330.112C137.424 329.926 137.491 329.752 137.611 329.632C137.798 329.446 138.091 329.392 138.344 329.486C138.424 329.526 138.504 329.566 138.558 329.632C138.624 329.699 138.678 329.766 138.704 329.846C138.744 329.926 138.758 330.019 138.758 330.112C138.758 330.192 138.744 330.272 138.704 330.366C138.678 330.446 138.624 330.512 138.558 330.579C138.504 330.632 138.424 330.686 138.344 330.726C138.264 330.752 138.171 330.779 138.091 330.779Z" fill="#007CFF"/>
<path d="M137.424 325.219C137.424 324.859 137.718 324.552 138.091 324.552C138.464 324.552 138.758 324.859 138.758 325.219C138.758 325.592 138.464 325.886 138.091 325.886C137.718 325.886 137.424 325.592 137.424 325.219Z" fill="#007CFF"/>
<path d="M138.091 321.006C137.918 321.006 137.744 320.939 137.611 320.806C137.558 320.753 137.504 320.673 137.478 320.593C137.438 320.513 137.424 320.433 137.424 320.339C137.424 320.166 137.491 319.993 137.611 319.873C137.798 319.686 138.091 319.619 138.344 319.726C138.424 319.766 138.504 319.806 138.558 319.873C138.624 319.926 138.678 320.006 138.704 320.086C138.744 320.166 138.758 320.259 138.758 320.339C138.758 320.433 138.744 320.513 138.704 320.593C138.678 320.673 138.624 320.753 138.558 320.806C138.504 320.873 138.424 320.926 138.344 320.953C138.264 320.993 138.171 321.006 138.091 321.006Z" fill="#007CFF"/>
<path d="M142.771 320.339C142.771 319.979 143.077 319.673 143.437 319.673C143.811 319.673 144.104 319.979 144.104 320.339C144.104 320.713 143.811 321.006 143.437 321.006C143.077 321.006 142.771 320.713 142.771 320.339ZM148.132 320.339C148.132 319.979 148.424 319.673 148.785 319.673C149.157 319.673 149.452 319.979 149.452 320.339C149.452 320.713 149.157 321.006 148.785 321.006C148.424 321.006 148.132 320.713 148.132 320.339ZM153.477 320.339C153.477 319.979 153.771 319.673 154.144 319.673C154.504 319.673 154.811 319.979 154.811 320.339C154.811 320.713 154.504 321.006 154.144 321.006C153.771 321.006 153.477 320.713 153.477 320.339ZM158.824 320.339C158.824 319.979 159.132 319.673 159.491 319.673C159.864 319.673 160.157 319.979 160.157 320.339C160.157 320.713 159.864 321.006 159.491 321.006C159.132 321.006 158.824 320.713 158.824 320.339ZM164.171 320.339C164.171 319.979 164.477 319.673 164.837 319.673C165.211 319.673 165.504 319.979 165.504 320.339C165.504 320.713 165.211 321.006 164.837 321.006C164.477 321.006 164.171 320.713 164.171 320.339ZM169.531 320.339C169.531 319.979 169.824 319.673 170.197 319.673C170.557 319.673 170.864 319.979 170.864 320.339C170.864 320.713 170.557 321.006 170.197 321.006C169.824 321.006 169.531 320.713 169.531 320.339ZM174.877 320.339C174.877 319.979 175.171 319.673 175.544 319.673C175.917 319.673 176.211 319.979 176.211 320.339C176.211 320.713 175.917 321.006 175.544 321.006C175.171 321.006 174.877 320.713 174.877 320.339ZM180.224 320.339C180.224 319.979 180.531 319.673 180.891 319.673C181.264 319.673 181.572 319.979 181.572 320.339C181.572 320.713 181.264 321.006 180.891 321.006C180.531 321.006 180.224 320.713 180.224 320.339ZM185.584 320.339C185.584 319.979 185.877 319.673 186.251 319.673C186.625 319.673 186.917 319.979 186.917 320.339C186.917 320.713 186.625 321.006 186.251 321.006C185.877 321.006 185.584 320.713 185.584 320.339ZM190.931 320.339C190.931 319.979 191.239 319.673 191.597 319.673C191.971 319.673 192.264 319.979 192.264 320.339C192.264 320.713 191.971 321.006 191.597 321.006C191.239 321.006 190.931 320.713 190.931 320.339ZM196.277 320.339C196.277 319.979 196.584 319.673 196.959 319.673C197.317 319.673 197.625 319.979 197.625 320.339C197.625 320.713 197.317 321.006 196.959 321.006C196.584 321.006 196.277 320.713 196.277 320.339ZM201.637 320.339C201.637 319.979 201.931 319.673 202.304 319.673C202.664 319.673 202.971 319.979 202.971 320.339C202.971 320.713 202.664 321.006 202.304 321.006C201.931 321.006 201.637 320.713 201.637 320.339ZM206.984 320.339C206.984 319.979 207.292 319.673 207.651 319.673C208.024 319.673 208.317 319.979 208.317 320.339C208.317 320.713 208.024 321.006 207.651 321.006C207.292 321.006 206.984 320.713 206.984 320.339ZM212.345 320.339C212.345 319.979 212.637 319.673 213.012 319.673C213.371 319.673 213.679 319.979 213.679 320.339C213.679 320.713 213.371 321.006 213.012 321.006C212.637 321.006 212.345 320.713 212.345 320.339ZM217.691 320.339C217.691 319.979 217.984 319.673 218.357 319.673C218.717 319.673 219.024 319.979 219.024 320.339C219.024 320.713 218.717 321.006 218.357 321.006C217.984 321.006 217.691 320.713 217.691 320.339ZM223.037 320.339C223.037 319.979 223.345 319.673 223.704 319.673C224.077 319.673 224.371 319.979 224.371 320.339C224.371 320.713 224.077 321.006 223.704 321.006C223.345 321.006 223.037 320.713 223.037 320.339ZM228.399 320.339C228.399 319.979 228.691 319.673 229.065 319.673C229.424 319.673 229.732 319.979 229.732 320.339C229.732 320.713 229.424 321.006 229.065 321.006C228.691 321.006 228.399 320.713 228.399 320.339ZM233.744 320.339C233.744 319.979 234.037 319.673 234.411 319.673C234.771 319.673 235.077 319.979 235.077 320.339C235.077 320.713 234.771 321.006 234.411 321.006C234.037 321.006 233.744 320.713 233.744 320.339ZM239.091 320.339C239.091 319.979 239.399 319.673 239.757 319.673C240.132 319.673 240.424 319.979 240.424 320.339C240.424 320.713 240.132 321.006 239.757 321.006C239.399 321.006 239.091 320.713 239.091 320.339ZM244.452 320.339C244.452 319.979 244.744 319.673 245.119 319.673C245.477 319.673 245.771 319.979 245.771 320.339C245.771 320.713 245.477 321.006 245.119 321.006C244.744 321.006 244.452 320.713 244.452 320.339ZM249.799 320.339C249.799 319.979 250.091 319.673 250.465 319.673C250.824 319.673 251.132 319.979 251.132 320.339C251.132 320.713 250.824 321.006 250.465 321.006C250.091 321.006 249.799 320.713 249.799 320.339ZM255.144 320.339C255.144 319.979 255.452 319.673 255.811 319.673C256.185 319.673 256.477 319.979 256.477 320.339C256.477 320.713 256.185 321.006 255.811 321.006C255.452 321.006 255.144 320.713 255.144 320.339ZM260.504 320.339C260.504 319.979 260.799 319.673 261.157 319.673C261.531 319.673 261.824 319.979 261.824 320.339C261.824 320.713 261.531 321.006 261.157 321.006C260.799 321.006 260.504 320.713 260.504 320.339Z" fill="#007CFF"/>
<path d="M266.518 321.006C266.425 321.006 266.345 320.993 266.265 320.953C266.185 320.926 266.103 320.873 266.05 320.819C265.985 320.753 265.931 320.673 265.905 320.593C265.865 320.513 265.851 320.433 265.851 320.339C265.851 320.259 265.865 320.166 265.905 320.086C265.931 320.006 265.985 319.939 266.05 319.873C266.103 319.806 266.185 319.766 266.265 319.726C266.425 319.659 266.61 319.659 266.77 319.726C266.851 319.766 266.931 319.806 266.985 319.873C267.118 319.993 267.185 320.166 267.185 320.339C267.185 320.433 267.17 320.513 267.131 320.593C267.103 320.673 267.05 320.753 266.985 320.819C266.931 320.873 266.851 320.926 266.77 320.953C266.691 320.993 266.61 321.006 266.518 321.006Z" fill="#007CFF"/>
<path d="M266.518 321.006C266.425 321.006 266.345 320.993 266.265 320.953C266.185 320.926 266.103 320.873 266.05 320.819C265.985 320.753 265.931 320.673 265.905 320.593C265.865 320.513 265.851 320.433 265.851 320.339C265.851 320.259 265.865 320.166 265.905 320.086C265.931 320.006 265.985 319.939 266.05 319.873C266.103 319.806 266.185 319.766 266.265 319.726C266.425 319.659 266.61 319.659 266.77 319.726C266.851 319.766 266.931 319.806 266.985 319.873C267.118 319.993 267.185 320.166 267.185 320.339C267.185 320.433 267.17 320.513 267.131 320.593C267.103 320.673 267.05 320.753 266.985 320.819C266.931 320.873 266.851 320.926 266.77 320.953C266.691 320.993 266.61 321.006 266.518 321.006Z" fill="#007CFF"/>
<path d="M265.851 306.459C265.851 306.086 266.157 305.792 266.518 305.792C266.89 305.792 267.185 306.086 267.185 306.459C267.185 306.832 266.89 307.126 266.518 307.126C266.157 307.126 265.851 306.832 265.851 306.459ZM265.851 311.086C265.851 310.712 266.157 310.419 266.518 310.419C266.89 310.419 267.185 310.712 267.185 311.086C267.185 311.459 266.89 311.752 266.518 311.752C266.157 311.752 265.851 311.459 265.851 311.086ZM265.851 315.712C265.851 315.339 266.157 315.046 266.518 315.046C266.89 315.046 267.185 315.339 267.185 315.712C267.185 316.086 266.89 316.379 266.518 316.379C266.157 316.379 265.851 316.086 265.851 315.712Z" fill="#007CFF"/>
<path d="M266.518 302.499C266.345 302.499 266.17 302.432 266.05 302.299C265.985 302.246 265.931 302.166 265.905 302.086C265.865 302.006 265.851 301.912 265.851 301.832C265.851 301.739 265.865 301.659 265.905 301.579C265.931 301.486 265.985 301.419 266.05 301.352C266.103 301.299 266.185 301.246 266.265 301.219C266.425 301.152 266.61 301.139 266.77 301.219C266.851 301.246 266.931 301.299 266.985 301.352C267.05 301.419 267.103 301.499 267.131 301.579C267.17 301.659 267.185 301.739 267.185 301.832C267.185 301.912 267.17 302.006 267.131 302.086C267.103 302.166 267.05 302.246 266.985 302.299C266.865 302.432 266.691 302.499 266.518 302.499Z" fill="#007CFF"/>
<path d="M266.518 321.006C266.425 321.006 266.345 320.993 266.265 320.953C266.185 320.926 266.103 320.873 266.05 320.819C265.985 320.753 265.931 320.673 265.905 320.593C265.865 320.513 265.851 320.433 265.851 320.339C265.851 320.259 265.865 320.166 265.905 320.086C265.931 320.006 265.985 319.939 266.05 319.873C266.103 319.806 266.185 319.766 266.265 319.726C266.425 319.659 266.61 319.659 266.77 319.726C266.851 319.766 266.931 319.806 266.985 319.873C267.118 319.993 267.185 320.166 267.185 320.339C267.185 320.433 267.17 320.513 267.131 320.593C267.103 320.673 267.05 320.753 266.985 320.819C266.931 320.873 266.851 320.926 266.77 320.953C266.691 320.993 266.61 321.006 266.518 321.006Z" fill="#007CFF"/>
<path d="M265.851 325.219C265.851 324.859 266.157 324.552 266.518 324.552C266.89 324.552 267.185 324.859 267.185 325.219C267.185 325.592 266.89 325.886 266.518 325.886C266.157 325.886 265.851 325.592 265.851 325.219Z" fill="#007CFF"/>
<path d="M266.518 330.779C266.345 330.779 266.17 330.699 266.05 330.579C265.985 330.512 265.931 330.446 265.905 330.366C265.865 330.286 265.851 330.192 265.851 330.099C265.851 330.019 265.865 329.926 265.905 329.846C265.931 329.766 265.985 329.699 266.05 329.632C266.291 329.392 266.731 329.379 266.985 329.632C267.05 329.699 267.103 329.766 267.131 329.846C267.17 329.926 267.185 330.019 267.185 330.099C267.185 330.192 267.17 330.286 267.131 330.366C267.103 330.446 267.05 330.512 266.985 330.579C266.865 330.699 266.691 330.779 266.518 330.779Z" fill="#007CFF"/>
<path d="M394.944 330.779C394.77 330.779 394.597 330.699 394.477 330.579C394.358 330.446 394.277 330.272 394.277 330.099C394.277 329.926 394.358 329.752 394.477 329.632C394.717 329.392 395.17 329.379 395.412 329.632C395.477 329.699 395.53 329.766 395.557 329.846C395.597 329.926 395.61 330.019 395.61 330.099C395.61 330.272 395.544 330.446 395.412 330.579C395.292 330.699 395.118 330.779 394.944 330.779Z" fill="#007CFF"/>
<path d="M394.277 325.219C394.277 324.859 394.584 324.552 394.944 324.552C395.317 324.552 395.61 324.859 395.61 325.219C395.61 325.592 395.317 325.886 394.944 325.886C394.584 325.886 394.277 325.592 394.277 325.219Z" fill="#007CFF"/>
<path d="M394.944 321.006C394.77 321.006 394.597 320.939 394.477 320.819C394.358 320.686 394.277 320.513 394.277 320.339C394.277 320.166 394.358 319.993 394.477 319.873C394.717 319.619 395.157 319.619 395.412 319.873C395.544 319.993 395.61 320.166 395.61 320.339C395.61 320.513 395.544 320.686 395.412 320.819C395.292 320.939 395.118 321.006 394.944 321.006Z" fill="#007CFF"/>
<path d="M271.198 320.339C271.198 319.966 271.503 319.673 271.864 319.673C272.238 319.673 272.544 319.966 272.544 320.339C272.544 320.713 272.238 321.006 271.864 321.006C271.503 321.006 271.198 320.713 271.198 320.339ZM276.558 320.339C276.558 319.966 276.851 319.673 277.224 319.673C277.584 319.673 277.891 319.966 277.891 320.339C277.891 320.713 277.584 321.006 277.224 321.006C276.851 321.006 276.558 320.713 276.558 320.339ZM281.904 320.339C281.904 319.966 282.198 319.673 282.571 319.673C282.944 319.673 283.238 319.966 283.238 320.339C283.238 320.713 282.944 321.006 282.571 321.006C282.198 321.006 281.904 320.713 281.904 320.339ZM287.251 320.339C287.251 319.966 287.558 319.673 287.918 319.673C288.291 319.673 288.598 319.966 288.598 320.339C288.598 320.713 288.291 321.006 287.918 321.006C287.558 321.006 287.251 320.713 287.251 320.339ZM292.611 320.339C292.611 319.966 292.904 319.673 293.278 319.673C293.638 319.673 293.944 319.966 293.944 320.339C293.944 320.713 293.638 321.006 293.278 321.006C292.904 321.006 292.611 320.713 292.611 320.339ZM297.958 320.339C297.958 319.966 298.264 319.673 298.624 319.673C298.998 319.673 299.291 319.966 299.291 320.339C299.291 320.713 298.998 321.006 298.624 321.006C298.264 321.006 297.958 320.713 297.958 320.339ZM303.304 320.339C303.304 319.966 303.611 319.673 303.971 319.673C304.344 319.673 304.651 319.966 304.651 320.339C304.651 320.713 304.344 321.006 303.971 321.006C303.611 321.006 303.304 320.713 303.304 320.339ZM308.664 320.339C308.664 319.966 308.958 319.673 309.331 319.673C309.691 319.673 309.998 319.966 309.998 320.339C309.998 320.713 309.691 321.006 309.331 321.006C308.958 321.006 308.664 320.713 308.664 320.339ZM314.011 320.339C314.011 319.966 314.318 319.673 314.678 319.673C315.051 319.673 315.344 319.966 315.344 320.339C315.344 320.713 315.051 321.006 314.678 321.006C314.318 321.006 314.011 320.713 314.011 320.339ZM319.358 320.339C319.358 319.966 319.664 319.673 320.024 319.673C320.398 319.673 320.691 319.966 320.691 320.339C320.691 320.713 320.398 321.006 320.024 321.006C319.664 321.006 319.358 320.713 319.358 320.339ZM324.718 320.339C324.718 319.966 325.011 319.673 325.384 319.673C325.744 319.673 326.051 319.966 326.051 320.339C326.051 320.713 325.744 321.006 325.384 321.006C325.011 321.006 324.718 320.713 324.718 320.339ZM330.064 320.339C330.064 319.966 330.371 319.673 330.731 319.673C331.104 319.673 331.398 319.966 331.398 320.339C331.398 320.713 331.104 321.006 330.731 321.006C330.371 321.006 330.064 320.713 330.064 320.339ZM335.411 320.339C335.411 319.966 335.718 319.673 336.078 319.673C336.451 319.673 336.744 319.966 336.744 320.339C336.744 320.713 336.451 321.006 336.078 321.006C335.718 321.006 335.411 320.713 335.411 320.339ZM340.771 320.339C340.771 319.966 341.064 319.673 341.438 319.673C341.798 319.673 342.104 319.966 342.104 320.339C342.104 320.713 341.798 321.006 341.438 321.006C341.064 321.006 340.771 320.713 340.771 320.339ZM346.118 320.339C346.118 319.966 346.424 319.673 346.784 319.673C347.158 319.673 347.451 319.966 347.451 320.339C347.451 320.713 347.158 321.006 346.784 321.006C346.424 321.006 346.118 320.713 346.118 320.339ZM351.464 320.339C351.464 319.966 351.771 319.673 352.131 319.673C352.503 319.673 352.811 319.966 352.811 320.339C352.811 320.713 352.503 321.006 352.131 321.006C351.771 321.006 351.464 320.713 351.464 320.339ZM356.824 320.339C356.824 319.966 357.118 319.673 357.491 319.673C357.851 319.673 358.158 319.966 358.158 320.339C358.158 320.713 357.851 321.006 357.491 321.006C357.118 321.006 356.824 320.713 356.824 320.339ZM362.17 320.339C362.17 319.966 362.478 319.673 362.836 319.673C363.211 319.673 363.503 319.966 363.503 320.339C363.503 320.713 363.211 321.006 362.836 321.006C362.478 321.006 362.17 320.713 362.17 320.339ZM367.518 320.339C367.518 319.966 367.824 319.673 368.184 319.673C368.558 319.673 368.864 319.966 368.864 320.339C368.864 320.713 368.558 321.006 368.184 321.006C367.824 321.006 367.518 320.713 367.518 320.339ZM372.878 320.339C372.878 319.966 373.17 319.673 373.544 319.673C373.904 319.673 374.211 319.966 374.211 320.339C374.211 320.713 373.904 321.006 373.544 321.006C373.17 321.006 372.878 320.713 372.878 320.339ZM378.224 320.339C378.224 319.966 378.531 319.673 378.891 319.673C379.264 319.673 379.558 319.966 379.558 320.339C379.558 320.713 379.264 321.006 378.891 321.006C378.531 321.006 378.224 320.713 378.224 320.339ZM383.571 320.339C383.571 319.966 383.878 319.673 384.251 319.673C384.611 319.673 384.918 319.966 384.918 320.339C384.918 320.713 384.611 321.006 384.251 321.006C383.878 321.006 383.571 320.713 383.571 320.339ZM388.931 320.339C388.931 319.966 389.224 319.673 389.598 319.673C389.958 319.673 390.264 319.966 390.264 320.339C390.264 320.713 389.958 321.006 389.598 321.006C389.224 321.006 388.931 320.713 388.931 320.339Z" fill="#007CFF"/>
<path d="M266.518 321.006C266.425 321.006 266.345 320.993 266.265 320.953C266.185 320.926 266.103 320.873 266.05 320.819C265.985 320.753 265.931 320.673 265.905 320.593C265.865 320.513 265.851 320.433 265.851 320.339C265.851 320.259 265.865 320.166 265.905 320.086C265.931 320.006 265.985 319.939 266.05 319.873C266.103 319.806 266.185 319.766 266.265 319.726C266.425 319.659 266.61 319.659 266.77 319.726C266.851 319.766 266.931 319.806 266.985 319.873C267.118 319.993 267.185 320.166 267.185 320.339C267.185 320.433 267.17 320.513 267.131 320.593C267.103 320.673 267.05 320.753 266.985 320.819C266.931 320.873 266.851 320.926 266.77 320.953C266.691 320.993 266.61 321.006 266.518 321.006Z" fill="#007CFF"/>
<path d="M158.817 185.728H166.857V190.127H158.817V185.728Z" fill="#007CFF"/>
<path d="M168.171 180.015H176.211V184.414H168.171V180.015Z" fill="#007CFF"/>
<path d="M158.817 203.107H166.857V207.506H158.817V203.107Z" fill="#007CFF"/>
<path d="M158.817 231.914H166.857V236.314H158.817V231.914Z" fill="#007CFF"/>
<path d="M168.171 226.2H176.211V230.599H168.171V226.2Z" fill="#007CFF"/>
<path d="M158.817 255.007H166.857V259.406H158.817V255.007Z" fill="#007CFF"/>
<path d="M168.171 249.292H176.211V253.691H168.171V249.292Z" fill="#007CFF"/>
<path d="M158.817 283.814H166.857V288.213H158.817V283.814Z" fill="#007CFF"/>
<path d="M168.171 272.386H176.211V276.785H168.171V272.386Z" fill="#007CFF"/>
<path d="M233.927 135.369H245.763V141.845H233.927V135.369Z" fill="#007CFF"/>
<path d="M247.699 126.957H259.535V133.433H247.699V126.957Z" fill="#007CFF"/>
<path d="M233.927 160.953H245.763V167.429H233.927V160.953Z" fill="#007CFF"/>
<path d="M247.699 177.776H259.535V184.252H247.699V177.776Z" fill="#007CFF"/>
<path d="M247.699 160.953H259.535V167.429H247.699V160.953Z" fill="#007CFF"/>
<path d="M233.927 211.773H245.763V218.249H233.927V211.773Z" fill="#007CFF"/>
<path d="M247.699 194.948H259.535V201.424H247.699V194.948Z" fill="#007CFF"/>
<path d="M233.927 237.358H245.763V243.834H233.927V237.358Z" fill="#007CFF"/>
<path d="M247.699 245.768H259.535V252.244H247.699V245.768Z" fill="#007CFF"/>
<path d="M247.699 237.358H259.535V243.834H247.699V237.358Z" fill="#007CFF"/>
<path d="M247.699 262.942H259.535V269.418H247.699V262.942Z" fill="#007CFF"/>
<path d="M314.877 279.726H325.171V274.092H314.877V279.726Z" fill="#007CFF"/>
<path d="M326.854 287.042H337.149V281.409H326.854V287.042Z" fill="#007CFF"/>
<path d="M314.877 257.474H325.171V251.841H314.877V257.474Z" fill="#007CFF"/>
<path d="M326.854 257.474H337.149V251.841H326.854V257.474Z" fill="#007CFF"/>
<path d="M314.877 213.272H325.171V207.639H314.877V213.272Z" fill="#007CFF"/>
<path d="M326.854 227.905H337.149V222.271H326.854V227.905Z" fill="#007CFF"/>
<path d="M314.877 191.019H325.171V185.386H314.877V191.019Z" fill="#007CFF"/>
<path d="M326.854 183.703H337.149V178.071H326.854V183.703Z" fill="#007CFF"/>
<path d="M314.877 154.135H325.171V148.502H314.877V154.135Z" fill="#007CFF"/>
<path d="M326.854 168.767H337.149V163.134H326.854V168.767Z" fill="#007CFF"/>
<path d="M168.171 260.721H176.211V265.119H168.171V260.721Z" fill="#007CFF"/>
<path d="M326.854 242.84H337.149V237.207H326.854V242.84Z" fill="#007CFF"/>
<path d="M154.597 191.443H135.341C134.125 191.443 133.141 192.428 133.141 193.643C133.141 194.858 134.125 195.842 135.341 195.842H154.597C155.812 195.842 156.797 194.858 156.797 193.643C156.797 192.428 155.812 191.443 154.597 191.443Z" fill="#B3D8FF"/>
<path d="M154.597 185.729H135.341C134.125 185.729 133.141 186.714 133.141 187.929C133.141 189.144 134.125 190.128 135.341 190.128H154.597C155.812 190.128 156.797 189.144 156.797 187.929C156.797 186.714 155.812 185.729 154.597 185.729Z" fill="#B3D8FF"/>
<path d="M154.597 180.015H135.341C134.125 180.015 133.141 181 133.141 182.215C133.141 183.43 134.125 184.414 135.341 184.414H154.597C155.812 184.414 156.797 183.43 156.797 182.215C156.797 181 155.812 180.015 154.597 180.015Z" fill="#B3D8FF"/>
<path d="M154.597 208.822H135.341C134.125 208.822 133.141 209.807 133.141 211.022C133.141 212.236 134.125 213.22 135.341 213.22H154.597C155.812 213.22 156.797 212.236 156.797 211.022C156.797 209.807 155.812 208.822 154.597 208.822Z" fill="#B3D8FF"/>
<path d="M154.597 203.108H135.341C134.125 203.108 133.141 204.093 133.141 205.308C133.141 206.522 134.125 207.506 135.341 207.506H154.597C155.812 207.506 156.797 206.522 156.797 205.308C156.797 204.093 155.812 203.108 154.597 203.108Z" fill="#B3D8FF"/>
<path d="M154.597 237.628H135.341C134.125 237.628 133.141 238.614 133.141 239.828C133.141 241.043 134.125 242.027 135.341 242.027H154.597C155.812 242.027 156.797 241.043 156.797 239.828C156.797 238.614 155.812 237.628 154.597 237.628Z" fill="#B3D8FF"/>
<path d="M154.597 231.914H135.341C134.125 231.914 133.141 232.899 133.141 234.114C133.141 235.329 134.125 236.314 135.341 236.314H154.597C155.812 236.314 156.797 235.329 156.797 234.114C156.797 232.899 155.812 231.914 154.597 231.914Z" fill="#B3D8FF"/>
<path d="M154.597 226.2H135.341C134.125 226.2 133.141 227.185 133.141 228.4C133.141 229.615 134.125 230.599 135.341 230.599H154.597C155.812 230.599 156.797 229.615 156.797 228.4C156.797 227.185 155.812 226.2 154.597 226.2Z" fill="#B3D8FF"/>
<path d="M154.597 260.721H135.341C134.125 260.721 133.141 261.706 133.141 262.921C133.141 264.135 134.125 265.119 135.341 265.119H154.597C155.812 265.119 156.797 264.135 156.797 262.921C156.797 261.706 155.812 260.721 154.597 260.721Z" fill="#B3D8FF"/>
<path d="M154.597 255.007H135.341C134.125 255.007 133.141 255.992 133.141 257.207C133.141 258.421 134.125 259.405 135.341 259.405H154.597C155.812 259.405 156.797 258.421 156.797 257.207C156.797 255.992 155.812 255.007 154.597 255.007Z" fill="#B3D8FF"/>
<path d="M154.597 249.293H135.341C134.125 249.293 133.141 250.278 133.141 251.493C133.141 252.708 134.125 253.692 135.341 253.692H154.597C155.812 253.692 156.797 252.708 156.797 251.493C156.797 250.278 155.812 249.293 154.597 249.293Z" fill="#B3D8FF"/>
<path d="M154.597 283.813H135.341C134.125 283.813 133.141 284.799 133.141 286.013C133.141 287.228 134.125 288.212 135.341 288.212H154.597C155.812 288.212 156.797 287.228 156.797 286.013C156.797 284.799 155.812 283.813 154.597 283.813Z" fill="#B3D8FF"/>
<path d="M154.597 278.099H135.341C134.125 278.099 133.141 279.084 133.141 280.299C133.141 281.514 134.125 282.498 135.341 282.498H154.597C155.812 282.498 156.797 281.514 156.797 280.299C156.797 279.084 155.812 278.099 154.597 278.099Z" fill="#B3D8FF"/>
<path d="M154.597 272.385H135.341C134.125 272.385 133.141 273.371 133.141 274.585C133.141 275.8 134.125 276.784 135.341 276.784H154.597C155.812 276.784 156.797 275.8 156.797 274.585C156.797 273.371 155.812 272.385 154.597 272.385Z" fill="#B3D8FF"/>
<path d="M227.715 143.78H199.365C197.577 143.78 196.128 145.23 196.128 147.018C196.128 148.807 197.577 150.256 199.365 150.256H227.715C229.503 150.256 230.952 148.807 230.952 147.018C230.952 145.23 229.503 143.78 227.715 143.78Z" fill="#B3D8FF"/>
<path d="M227.715 135.368H199.365C197.577 135.368 196.128 136.818 196.128 138.607C196.128 140.395 197.577 141.844 199.365 141.844H227.715C229.503 141.844 230.952 140.395 230.952 138.607C230.952 136.818 229.503 135.368 227.715 135.368Z" fill="#B3D8FF"/>
<path d="M227.715 126.957H199.365C197.577 126.957 196.128 128.406 196.128 130.195C196.128 131.983 197.577 133.433 199.365 133.433H227.715C229.503 133.433 230.952 131.983 230.952 130.195C230.952 128.406 229.503 126.957 227.715 126.957Z" fill="#B3D8FF"/>
<path d="M227.715 177.777H199.365C197.577 177.777 196.128 179.226 196.128 181.015C196.128 182.803 197.577 184.253 199.365 184.253H227.715C229.503 184.253 230.952 182.803 230.952 181.015C230.952 179.226 229.503 177.777 227.715 177.777Z" fill="#B3D8FF"/>
<path d="M227.715 169.365H199.365C197.577 169.365 196.128 170.814 196.128 172.602C196.128 174.391 197.577 175.841 199.365 175.841H227.715C229.503 175.841 230.952 174.391 230.952 172.602C230.952 170.814 229.503 169.365 227.715 169.365Z" fill="#B3D8FF"/>
<path d="M227.715 160.953H199.365C197.577 160.953 196.128 162.402 196.128 164.19C196.128 165.98 197.577 167.429 199.365 167.429H227.715C229.503 167.429 230.952 165.98 230.952 164.19C230.952 162.402 229.503 160.953 227.715 160.953Z" fill="#B3D8FF"/>
<path d="M227.715 211.773H199.365C197.577 211.773 196.128 213.222 196.128 215.01C196.128 216.8 197.577 218.249 199.365 218.249H227.715C229.503 218.249 230.952 216.8 230.952 215.01C230.952 213.222 229.503 211.773 227.715 211.773Z" fill="#B3D8FF"/>
<path d="M227.715 203.361H199.365C197.577 203.361 196.128 204.81 196.128 206.6C196.128 208.388 197.577 209.837 199.365 209.837H227.715C229.503 209.837 230.952 208.388 230.952 206.6C230.952 204.81 229.503 203.361 227.715 203.361Z" fill="#B3D8FF"/>
<path d="M227.715 194.949H199.365C197.577 194.949 196.128 196.398 196.128 198.186C196.128 199.976 197.577 201.425 199.365 201.425H227.715C229.503 201.425 230.952 199.976 230.952 198.186C230.952 196.398 229.503 194.949 227.715 194.949Z" fill="#B3D8FF"/>
<path d="M227.715 245.769H199.365C197.577 245.769 196.128 247.218 196.128 249.006C196.128 250.796 197.577 252.245 199.365 252.245H227.715C229.503 252.245 230.952 250.796 230.952 249.006C230.952 247.218 229.503 245.769 227.715 245.769Z" fill="#B3D8FF"/>
<path d="M227.715 228.945H199.365C197.577 228.945 196.128 230.395 196.128 232.184C196.128 233.972 197.577 235.421 199.365 235.421H227.715C229.503 235.421 230.952 233.972 230.952 232.184C230.952 230.395 229.503 228.945 227.715 228.945Z" fill="#B3D8FF"/>
<path d="M227.715 279.765H199.365C197.577 279.765 196.128 281.215 196.128 283.004C196.128 284.792 197.577 286.241 199.365 286.241H227.715C229.503 286.241 230.952 284.792 230.952 283.004C230.952 281.215 229.503 279.765 227.715 279.765Z" fill="#B3D8FF"/>
<path d="M227.715 271.353H199.365C197.577 271.353 196.128 272.803 196.128 274.592C196.128 276.38 197.577 277.829 199.365 277.829H227.715C229.503 277.829 230.952 276.38 230.952 274.592C230.952 272.803 229.503 271.353 227.715 271.353Z" fill="#B3D8FF"/>
<path d="M227.715 262.942H199.365C197.577 262.942 196.128 264.391 196.128 266.179C196.128 267.968 197.577 269.418 199.365 269.418H227.715C229.503 269.418 230.952 267.968 230.952 266.179C230.952 264.391 229.503 262.942 227.715 262.942Z" fill="#B3D8FF"/>
<path d="M309.472 163.135H284.815C283.26 163.135 281.999 164.396 281.999 165.951C281.999 167.507 283.26 168.768 284.815 168.768H309.472C311.028 168.768 312.288 167.507 312.288 165.951C312.288 164.396 311.028 163.135 309.472 163.135Z" fill="#B3D8FF"/>
<path d="M309.472 155.819H284.815C283.26 155.819 281.999 157.08 281.999 158.635C281.999 160.191 283.26 161.452 284.815 161.452H309.472C311.028 161.452 312.288 160.191 312.288 158.635C312.288 157.08 311.028 155.819 309.472 155.819Z" fill="#B3D8FF"/>
<path d="M309.472 148.502H284.815C283.26 148.502 281.999 149.763 281.999 151.318C281.999 152.874 283.26 154.135 284.815 154.135H309.472C311.028 154.135 312.288 152.874 312.288 151.318C312.288 149.763 311.028 148.502 309.472 148.502Z" fill="#B3D8FF"/>
<path d="M309.472 185.387H284.815C283.26 185.387 281.999 186.648 281.999 188.203C281.999 189.759 283.26 191.02 284.815 191.02H309.472C311.028 191.02 312.288 189.759 312.288 188.203C312.288 186.648 311.028 185.387 309.472 185.387Z" fill="#B3D8FF"/>
<path d="M309.472 178.071H284.815C283.26 178.071 281.999 179.332 281.999 180.887C281.999 182.443 283.26 183.703 284.815 183.703H309.472C311.028 183.703 312.288 182.443 312.288 180.887C312.288 179.332 311.028 178.071 309.472 178.071Z" fill="#B3D8FF"/>
<path d="M309.472 222.272H284.815C283.26 222.272 281.999 223.533 281.999 225.088C281.999 226.644 283.26 227.905 284.815 227.905H309.472C311.028 227.905 312.288 226.644 312.288 225.088C312.288 223.533 311.028 222.272 309.472 222.272Z" fill="#B3D8FF"/>
<path d="M309.472 214.956H284.815C283.26 214.956 281.999 216.217 281.999 217.772C281.999 219.328 283.26 220.589 284.815 220.589H309.472C311.028 220.589 312.288 219.328 312.288 217.772C312.288 216.217 311.028 214.956 309.472 214.956Z" fill="#B3D8FF"/>
<path d="M309.472 207.639H284.815C283.26 207.639 281.999 208.901 281.999 210.455C281.999 212.011 283.26 213.273 284.815 213.273H309.472C311.028 213.273 312.288 212.011 312.288 210.455C312.288 208.901 311.028 207.639 309.472 207.639Z" fill="#B3D8FF"/>
<path d="M309.472 251.84H284.815C283.26 251.84 281.999 253.102 281.999 254.656C281.999 256.212 283.26 257.474 284.815 257.474H309.472C311.028 257.474 312.288 256.212 312.288 254.656C312.288 253.102 311.028 251.84 309.472 251.84Z" fill="#B3D8FF"/>
<path d="M309.472 244.524H284.815C283.26 244.524 281.999 245.786 281.999 247.34C281.999 248.896 283.26 250.156 284.815 250.156H309.472C311.028 250.156 312.288 248.896 312.288 247.34C312.288 245.786 311.028 244.524 309.472 244.524Z" fill="#B3D8FF"/>
<path d="M309.472 237.208H284.815C283.26 237.208 281.999 238.469 281.999 240.024C281.999 241.58 283.26 242.841 284.815 242.841H309.472C311.028 242.841 312.288 241.58 312.288 240.024C312.288 238.469 311.028 237.208 309.472 237.208Z" fill="#B3D8FF"/>
<path d="M309.472 281.409H284.815C283.26 281.409 281.999 282.67 281.999 284.225C281.999 285.781 283.26 287.042 284.815 287.042H309.472C311.028 287.042 312.288 285.781 312.288 284.225C312.288 282.67 311.028 281.409 309.472 281.409Z" fill="#B3D8FF"/>
<path d="M309.472 274.093H284.815C283.26 274.093 281.999 275.354 281.999 276.909C281.999 278.465 283.26 279.726 284.815 279.726H309.472C311.028 279.726 312.288 278.465 312.288 276.909C312.288 275.354 311.028 274.093 309.472 274.093Z" fill="#B3D8FF"/>
<path d="M309.472 266.776H284.815C283.26 266.776 281.999 268.038 281.999 269.592C281.999 271.148 283.26 272.41 284.815 272.41H309.472C311.028 272.41 312.288 271.148 312.288 269.592C312.288 268.038 311.028 266.776 309.472 266.776Z" fill="#B3D8FF"/>
<path d="M309.472 192.704H284.815C283.26 192.704 281.999 193.965 281.999 195.52C281.999 197.076 283.26 198.337 284.815 198.337H309.472C311.028 198.337 312.288 197.076 312.288 195.52C312.288 193.965 311.028 192.704 309.472 192.704Z" fill="#ECECEC"/>
<defs>
<filter id="filter0_d_61_504" x="0.92627" y="40.2608" width="230.787" height="152.589" filterUnits="userSpaceOnUse" color-interpolation-filters="sRGB">
<feFlood flood-opacity="0" result="BackgroundImageFix"/>
<feColorMatrix in="SourceAlpha" type="matrix" values="0 0 0 0 0 0 0 0 0 0 0 0 0 0 0 0 0 0 127 0" result="hardAlpha"/>
<feOffset dx="4" dy="4"/>
<feGaussianBlur stdDeviation="9.5"/>
<feComposite in2="hardAlpha" operator="out"/>
<feColorMatrix type="matrix" values="0 0 0 0 0.54902 0 0 0 0 0.601218 0 0 0 0 0.827451 0 0 0 0.12 0"/>
<feBlend mode="normal" in2="BackgroundImageFix" result="effect1_dropShadow_61_504"/>
<feBlend mode="normal" in="SourceGraphic" in2="effect1_dropShadow_61_504" result="shape"/>
</filter>
<filter id="filter1_d_61_504" x="318.112" y="224.187" width="230.787" height="152.589" filterUnits="userSpaceOnUse" color-interpolation-filters="sRGB">
<feFlood flood-opacity="0" result="BackgroundImageFix"/>
<feColorMatrix in="SourceAlpha" type="matrix" values="0 0 0 0 0 0 0 0 0 0 0 0 0 0 0 0 0 0 127 0" result="hardAlpha"/>
<feOffset dy="6"/>
<feGaussianBlur stdDeviation="9.5"/>
<feComposite in2="hardAlpha" operator="out"/>
<feColorMatrix type="matrix" values="0 0 0 0 0.154167 0 0 0 0 0.154167 0 0 0 0 0.154167 0 0 0 0.12 0"/>
<feBlend mode="normal" in2="BackgroundImageFix" result="effect1_dropShadow_61_504"/>
<feBlend mode="normal" in="SourceGraphic" in2="effect1_dropShadow_61_504" result="shape"/>
</filter>
<filter id="filter2_d_61_504" x="344.767" y="3.05176e-05" width="170.101" height="116.52" filterUnits="userSpaceOnUse" color-interpolation-filters="sRGB">
<feFlood flood-opacity="0" result="BackgroundImageFix"/>
<feColorMatrix in="SourceAlpha" type="matrix" values="0 0 0 0 0 0 0 0 0 0 0 0 0 0 0 0 0 0 127 0" result="hardAlpha"/>
<feOffset dy="3"/>
<feGaussianBlur stdDeviation="9.5"/>
<feComposite in2="hardAlpha" operator="out"/>
<feColorMatrix type="matrix" values="0 0 0 0 0.54902 0 0 0 0 0.601218 0 0 0 0 0.827451 0 0 0 0.12 0"/>
<feBlend mode="normal" in2="BackgroundImageFix" result="effect1_dropShadow_61_504"/>
<feBlend mode="normal" in="SourceGraphic" in2="effect1_dropShadow_61_504" result="shape"/>
</filter>
<filter id="filter3_b_61_504" x="31.7896" y="88.7146" width="483.952" height="356.124" filterUnits="userSpaceOnUse" color-interpolation-filters="sRGB">
<feFlood flood-opacity="0" result="BackgroundImageFix"/>
<feGaussianBlur in="BackgroundImage" stdDeviation="24.5"/>
<feComposite in2="SourceAlpha" operator="in" result="effect1_backgroundBlur_61_504"/>
<feBlend mode="normal" in="SourceGraphic" in2="effect1_backgroundBlur_61_504" result="shape"/>
</filter>
<filter id="filter4_d_61_504" x="20.1973" y="39.1032" width="440.431" height="275.577" filterUnits="userSpaceOnUse" color-interpolation-filters="sRGB">
<feFlood flood-opacity="0" result="BackgroundImageFix"/>
<feColorMatrix in="SourceAlpha" type="matrix" values="0 0 0 0 0 0 0 0 0 0 0 0 0 0 0 0 0 0 127 0" result="hardAlpha"/>
<feOffset dy="4"/>
<feGaussianBlur stdDeviation="8.5"/>
<feComposite in2="hardAlpha" operator="out"/>
<feColorMatrix type="matrix" values="0 0 0 0 0.0299479 0 0 0 0 0.15764 0 0 0 0 0.3125 0 0 0 0.22 0"/>
<feBlend mode="normal" in2="BackgroundImageFix" result="effect1_dropShadow_61_504"/>
<feBlend mode="normal" in="SourceGraphic" in2="effect1_dropShadow_61_504" result="shape"/>
</filter>
<filter id="filter5_b_61_504" x="81.4209" y="32.1032" width="446.431" height="281.577" filterUnits="userSpaceOnUse" color-interpolation-filters="sRGB">
<feFlood flood-opacity="0" result="BackgroundImageFix"/>
<feGaussianBlur in="BackgroundImage" stdDeviation="10"/>
<feComposite in2="SourceAlpha" operator="in" result="effect1_backgroundBlur_61_504"/>
<feBlend mode="normal" in="SourceGraphic" in2="effect1_backgroundBlur_61_504" result="shape"/>
</filter>
<linearGradient id="paint0_linear_61_504" x1="144.325" y1="97.7379" x2="-35.7766" y2="119.171" gradientUnits="userSpaceOnUse">
<stop stop-color="#A0B8FF"/>
<stop offset="1" stop-color="#F3FEFF"/>
</linearGradient>
<linearGradient id="paint1_linear_61_504" x1="481.5" y1="457" x2="475.373" y2="298.091" gradientUnits="userSpaceOnUse">
<stop stop-color="#A0B8FF"/>
<stop offset="1" stop-color="#F3FEFF"/>
</linearGradient>
<linearGradient id="paint2_linear_61_504" x1="597" y1="96" x2="479.264" y2="-30.6058" gradientUnits="userSpaceOnUse">
<stop stop-color="#A0B8FF"/>
<stop offset="1" stop-color="#F3FEFF"/>
</linearGradient>
<linearGradient id="paint3_linear_61_504" x1="307.886" y1="141.653" x2="-71.8021" y2="186.839" gradientUnits="userSpaceOnUse">
<stop stop-color="#007CFF"/>
<stop offset="1" stop-color="#DFB5EB"/>
</linearGradient>
</defs>
</svg>
