<svg width="24" height="24" viewBox="0 0 24 24" fill="none" xmlns="http://www.w3.org/2000/svg">
<g clip-path="url(#clip0_29_1178)">
<path d="M24 9.99996C24 9.92697 23.992 9.85419 23.976 9.78296L22.676 3.91496C22.4345 2.8012 21.8173 1.80434 20.9281 1.09154C20.0389 0.378743 18.9316 -0.00665845 17.792 -3.81815e-05H6.208C5.06905 -0.00573848 3.96273 0.380084 3.07433 1.09281C2.18593 1.80553 1.5694 2.80188 1.328 3.91496L0.0240014 9.78296C0.00800947 9.85419 -3.96599e-05 9.92697 1.3694e-06 9.99996V11C-0.000805438 11.9736 0.354923 12.9137 1 13.643V19C1.00159 20.3256 1.52888 21.5964 2.46622 22.5337C3.40356 23.4711 4.67441 23.9984 6 24H18C19.3256 23.9984 20.5964 23.4711 21.5338 22.5337C22.4711 21.5964 22.9984 20.3256 23 19V13.643C23.6451 12.9137 24.0008 11.9736 24 11V9.99996ZM2 10.109L3.28 4.34896C3.42504 3.68121 3.79502 3.08354 4.32801 2.65594C4.86101 2.22834 5.52469 1.99677 6.208 1.99996H7V4.99996C7 5.26518 7.10536 5.51953 7.2929 5.70707C7.48043 5.89461 7.73479 5.99996 8 5.99996C8.26522 5.99996 8.51957 5.89461 8.70711 5.70707C8.89464 5.51953 9 5.26518 9 4.99996V1.99996H15V4.99996C15 5.26518 15.1054 5.51953 15.2929 5.70707C15.4804 5.89461 15.7348 5.99996 16 5.99996C16.2652 5.99996 16.5196 5.89461 16.7071 5.70707C16.8946 5.51953 17 5.26518 17 4.99996V1.99996H17.792C18.4753 1.99677 19.139 2.22834 19.672 2.65594C20.205 3.08354 20.575 3.68121 20.72 4.34896L22 10.109V11C22 11.5304 21.7893 12.0391 21.4142 12.4142C21.0391 12.7892 20.5304 13 20 13H19C18.4696 13 17.9609 12.7892 17.5858 12.4142C17.2107 12.0391 17 11.5304 17 11C17 10.7347 16.8946 10.4804 16.7071 10.2929C16.5196 10.1053 16.2652 9.99996 16 9.99996C15.7348 9.99996 15.4804 10.1053 15.2929 10.2929C15.1054 10.4804 15 10.7347 15 11C15 11.5304 14.7893 12.0391 14.4142 12.4142C14.0391 12.7892 13.5304 13 13 13H11C10.4696 13 9.96086 12.7892 9.58579 12.4142C9.21072 12.0391 9 11.5304 9 11C9 10.7347 8.89464 10.4804 8.70711 10.2929C8.51957 10.1053 8.26522 9.99996 8 9.99996C7.73479 9.99996 7.48043 10.1053 7.2929 10.2929C7.10536 10.4804 7 10.7347 7 11C7 11.5304 6.78929 12.0391 6.41422 12.4142C6.03914 12.7892 5.53044 13 5 13H4C3.46957 13 2.96086 12.7892 2.58579 12.4142C2.21072 12.0391 2 11.5304 2 11V10.109ZM18 22H6C5.20435 22 4.44129 21.6839 3.87868 21.1213C3.31607 20.5587 3 19.7956 3 19V14.873C3.3266 14.9575 3.66263 15.0002 4 15H5C5.56782 15.0003 6.12916 14.8794 6.64651 14.6453C7.16386 14.4113 7.6253 14.0696 8 13.643C8.3747 14.0696 8.83615 14.4113 9.3535 14.6453C9.87085 14.8794 10.4322 15.0003 11 15H13C13.5678 15.0003 14.1292 14.8794 14.6465 14.6453C15.1639 14.4113 15.6253 14.0696 16 13.643C16.3747 14.0696 16.8361 14.4113 17.3535 14.6453C17.8708 14.8794 18.4322 15.0003 19 15H20C20.3374 15.0002 20.6734 14.9575 21 14.873V19C21 19.7956 20.6839 20.5587 20.1213 21.1213C19.5587 21.6839 18.7957 22 18 22Z" fill="#434343"/>
</g>
<defs>
<clipPath id="clip0_29_1178">
<rect width="24" height="24" fill="white"/>
</clipPath>
</defs>
</svg>
