<svg width="18" height="18" viewBox="0 0 18 18" fill="none" xmlns="http://www.w3.org/2000/svg">
<g clip-path="url(#clip0_23_106)">
<path d="M17.7802 16.7197L13.3035 12.243C14.5234 10.7509 15.1232 8.84706 14.9788 6.92516C14.8344 5.00326 13.9569 3.21039 12.5276 1.91738C11.0984 0.624372 9.2269 -0.0698418 7.30019 -0.0216679C5.37348 0.026506 3.53899 0.813382 2.17617 2.1762C0.813351 3.53902 0.0264755 5.37351 -0.0216984 7.30022C-0.0698723 9.22693 0.624341 11.0985 1.91735 12.5277C3.21036 13.9569 5.00323 14.8345 6.92513 14.9789C8.84703 15.1233 10.7509 14.5235 12.243 13.3035L16.7197 17.7802C16.8612 17.9169 17.0506 17.9925 17.2473 17.9907C17.4439 17.989 17.632 17.9102 17.7711 17.7711C17.9101 17.632 17.989 17.4439 17.9907 17.2473C17.9924 17.0506 17.9168 16.8612 17.7802 16.7197ZM7.49996 13.5C6.31327 13.5 5.15323 13.1481 4.16654 12.4888C3.17984 11.8295 2.41081 10.8924 1.95668 9.79609C1.50256 8.69973 1.38374 7.49333 1.61525 6.32945C1.84676 5.16556 2.4182 4.09646 3.25732 3.25735C4.09643 2.41823 5.16553 1.84679 6.32942 1.61528C7.4933 1.38377 8.6997 1.50259 9.79606 1.95671C10.8924 2.41084 11.8295 3.17987 12.4888 4.16657C13.1481 5.15326 13.5 6.3133 13.5 7.49999C13.4982 9.09074 12.8655 10.6158 11.7406 11.7407C10.6158 12.8655 9.09071 13.4982 7.49996 13.5Z" fill="#213B89"/>
</g>
<defs>
<clipPath id="clip0_23_106">
<rect width="18" height="18" fill="white"/>
</clipPath>
</defs>
</svg>
